{
.appVersion = "3134";
.formatVersion = 3;
DisplayStrings = (
"Aa Bb Cc Dd Ee Ff Gg Hh Ii Jj Kk Ll Mm Nn Oo Pp Qq Rr Ss Tt Uu Vv Ww Xx Yy Zz 0123456789"
);
customParameters = (
{
name = vendorID;
value = ITFO;
},
{
name = panose;
value = (
0,
0,
8,
0,
0,
0,
0,
0,
0,
0
);
},
{
name = unicodeRanges;
value = (
0,
1,
2,
15
);
},
{
name = codePageRanges;
value = (
"1252",
"1250",
"1254",
"1257",
"bit 29"
);
},
{
name = fsType;
value = (
);
},
{
name = glyphOrder;
value = (
.notdef,
NULL,
CR,
space,
dvA,
dvAA,
dvI,
dvII,
dvU,
dvUU,
dvvR,
dvvRR,
dvvL,
dvvLL,
dvE,
dvAI,
dvO,
dvAU,
dvEcandra,
dvAcandra,
dvOcandra,
dvmAA,
dvmI,
dvmII,
dvmU,
dvmUU,
dvmvR,
dvmvRR,
dvmvL,
dvmvLL,
dvmE,
dvmAI,
dvmO,
dvmAU,
dvmEcandra,
dvmOcandra,
dvKA,
dvKHA,
dvGA,
dvGHA,
dvNGA,
dvCA,
dvCHA,
dvJA,
dvJHA,
dvNYA,
dvTTA,
dvTTHA,
dvDDA,
dvDDHA,
dvNNA,
dvTA,
dvTHA,
dvDA,
dvDHA,
dvNA,
dvPA,
dvPHA,
dvBA,
dvBHA,
dvMA,
dvYA,
dvRA,
dvLA,
dvVA,
dvSHA,
dvSSA,
dvSA,
dvHA,
dvLLA,
dvK_SSA,
dvJ_NYA,
dvKxA,
dvKHxA,
dvGxA,
dvJxA,
dvDDxA,
dvDDHxA,
dvPHxA,
dvRxA,
dvK,
dvKH,
dvG,
dvGH,
dvNG,
dvC,
dvCH,
dvJ,
dvJH,
dvNY,
dvTT,
dvTTH,
dvDD,
dvDDH,
dvNN,
dvT,
dvTH,
dvD,
dvDH,
dvN,
dvP,
dvPH,
dvB,
dvBH,
dvM,
dvY,
dvR,
dvL,
dvV,
dvSH,
dvSS,
dvS,
dvH,
dvLL,
dvK_SS,
dvJ_NY,
dvKx,
dvKHx,
dvGx,
dvJx,
dvPHx,
dvAnusvara,
dvCandrabindu,
dvVisarga,
dvAvagraha,
dvVirama,
dvNukta,
dvZero,
dvOne,
dvTwo,
dvThree,
dvFour,
dvFive,
dvSix,
dvSeven,
dvEight,
dvNine,
dvOm,
dvAbbreviationsign,
danda,
doubledanda,
rupee,
indianrupee,
zerowidthnonjoiner,
zerowidthjoiner,
dottedcircle,
dvReph,
dvEyelash,
dvRashtrasign,
dvK_RA,
dvKH_RA,
dvG_RA,
dvGH_RA,
dvNG_RA,
dvC_RA,
dvCH_RA,
dvJ_RA,
dvJH_RA,
dvNY_RA,
dvTT_RA,
dvTTH_RA,
dvDD_RA,
dvDDH_RA,
dvNN_RA,
dvT_RA,
dvTH_RA,
dvD_RA,
dvDH_RA,
dvN_RA,
dvP_RA,
dvPH_RA,
dvB_RA,
dvBH_RA,
dvM_RA,
dvY_RA,
dvL_RA,
dvV_RA,
dvSH_RA,
dvSS_RA,
dvS_RA,
dvH_RA,
dvLL_RA,
dvKx_RA,
dvKHx_RA,
dvGx_RA,
dvJx_RA,
dvPHx_RA,
dvK_R,
dvKH_R,
dvG_R,
dvGH_R,
dvNG_R,
dvC_R,
dvCH_R,
dvJ_R,
dvJH_R,
dvNY_R,
dvTT_R,
dvTTH_R,
dvDD_R,

glyphs = (
{
glyphname = .notdef;
lastChange = "2022-10-20 15:43:06 +0000";
layers = (
{
layerId = m01;
shapes = (
{
closed = 1;
nodes = (
(-62,0,l),
(438,0,l),
(562,700,l),
(62,700,l)
);
},
{
closed = 1;
nodes = (
(258,395,l),
(133,650,l),
(473,650,l)
);
},
{
closed = 1;
nodes = (
(280,350,l),
(495,605,l),
(405,95,l)
);
},
{
closed = 1;
nodes = (
(27,50,l),
(242,305,l),
(367,50,l)
);
},
{
closed = 1;
nodes = (
(95,605,l),
(220,350,l),
(5,95,l)
);
}
);
width = 500;
}
);
note = ".notdef";
},
{
glyphname = dvR;
lastChange = "2022-10-20 15:43:06 +0000";
layers = (
{
layerId = m01;
shapes = (
{
closed = 1;
nodes = (
(229,-291,l),
(390,-291,l),
(295,-68,l),
(139,-68,l)
);
},
{
closed = 1;
nodes = (
(51,609,l),
(374,609,l),
(364,556,ls),
(350,476,o),
(307,426,o),
(200,426,cs),
(99,426,l),
(60,208,ls),
(39,86,o),
(96,-9,o),
(241,-9,cs),
(373,-9,o),
(463,74,o),
(486,201,cs),
(490,224,l),
(339,224,l),
(334,196,ls),
(327,155,o),
(299,125,o),
(261,125,cs),
(218,125,o),
(206,157,o),
(214,200,cs),
(231,300,l),
(236,300,ls),
(419,300,o),
(496,410,o),
(521,556,cs),
(531,609,l),
(616,609,l),
(639,740,l),
(74,740,l)
);
}
);
width = 531;
}
);
note = dvR;
},
{
glyphname = dvKx;
lastChange = "2022-10-20 15:43:06 +0000";
layers = (
{
layerId = m01;
shapes = (
{
closed = 1;
nodes = (
(365,0,l),
(516,0,l),
(567,288,ls),
(577,347,o),
(615,397,o),
(680,397,cs),
(737,397,o),
(766,354,o),
(756,298,c),
(915,298,l),
(938,429,o),
(882,531,o),
(754,531,cs),
(687,531,o),
(634,504,o),
(597,461,c),
(624,609,l),
(970,609,l),
(993,740,l),
(64,740,l),
(41,609,l),
(473,609,l),
(446,461,l),
(425,504,o),
(380,531,o),
(309,531,cs),
(176,531,o),
(80,436,o),
(56,298,cs),
(32,161,o),
(93,64,o),
(220,64,cs),
(293,64,o),
(352,93,o),
(390,139,c)
);
},
{
closed = 1;
nodes = (
(208,-175,o),
(255,-136,o),
(264,-86,cs),
(273,-34,o),
(240,7,o),
(188,7,cs),
(137,7,o),
(90,-34,o),
(81,-86,cs),
(72,-136,o),
(105,-175,o),
(156,-175,cs)
);
},
{
closed = 1;
nodes = (
(238,196,o),
(204,236,o),
(215,297,cs),
(225,358,o),
(276,398,o),
(334,398,cs),
(400,398,o),
(427,350,o),
(418,298,cs),
(409,247,o),
(364,196,o),
(298,196,cs)
);
}
);
width = 701;
}
);
note = dvKx;
},
{
glyphname = dvGx;
lastChange = "2022-10-20 15:43:06 +0000";
layers = (
{
layerId = m01;
shapes = (
{
closed = 1;
nodes = (
(31,609,l),
(341,609,l),
(300,377,ls),
(294,342,o),
(279,303,o),
(236,303,cs),
(195,303,o),
(189,336,o),
(196,376,cs),
(202,407,l),
(50,407,l),
(47,397,o),
(45,386,o),
(43,375,cs),
(20,242,o),
(84,169,o),
(217,169,cs),
(361,169,o),
(438,263,o),
(460,383,cs),
(499,609,l),
(611,609,l),
(635,740,l),
(55,740,l)
);
},
{
closed = 1;
nodes = (
(227,-71,o),
(274,-32,o),
(283,18,cs),
(292,70,o),
(260,111,o),
(208,111,cs),
(157,111,o),
(109,70,o),
(100,18,cs),
(91,-32,o),
(124,-71,o),
(175,-71,cs)
);
}
);
width = 546;
}
);
note = dvGx;
},
{
glyphname = dvJx;
lastChange = "2022-10-20 15:43:06 +0000";
layers = (
{
layerId = m01;
shapes = (
{
closed = 1;
nodes = (
(386,100,o),
(488,193,o),
(511,324,cs),
(516,354,l),
(714,354,l),
(738,488,l),
(386,488,l),
(358,328,ls),
(348,272,o),
(317,237,o),
(271,237,cs),
(224,237,o),
(205,272,o),
(215,328,cs),
(243,488,l),
(85,488,l),
(56,324,ls),
(33,193,o),
(95,100,o),
(246,100,cs)
);
},
{
closed = 1;
nodes = (
(37,609,l),
(759,609,l),
(782,740,l),
(60,740,l)
);
},
{
closed = 1;
nodes = (
(257,-139,o),
(303,-100,o),
(312,-50,cs),
(321,2,o),
(289,43,o),
(237,43,cs),
(186,43,o),
(138,2,o),
(129,-50,cs),
(120,-100,o),
(154,-139,o),
(205,-139,cs)
);
}
);
width = 550;
}
);
note = dvJx;
},
{
glyphname = rupee;
lastChange = "2022-10-20 15:43:06 +0000";
layers = (
{
layerId = m01;
shapes = (
{
closed = 1;
nodes = (
(446,419,o),
(410,387,o),
(346,387,cs),
(240,387,l),
(271,562,l),
(377,562,ls),
(441,562,o),
(465,527,o),
(455,474,cs)
);
},
{
closed = 1;
nodes = (
(125,702,l),
(1,0,l),
(172,0,l),
(219,267,l),
(253,267,l),
(358,0,l),
(552,0,l),
(433,279,l),
(550,308,o),
(615,392,o),
(631,482,cs),
(652,604,o),
(584,702,o),
(412,702,cs)
);
},
{
closed = 1;
nodes = (
(622,188,o),
(964,263,o),
(947,167,cs),
(943,140,o),
(917,121,o),
(870,121,cs),
(824,121,o),
(791,140,o),
(794,182,c),
(624,182,l),
(618,59,o),
(702,-8,o),
(848,-8,cs),
(988,-8,o),
(1087,65,o),
(1105,164,cs),
(1141,369,o),
(798,298,o),
(815,391,cs),
(820,418,o),
(849,437,o),
(892,437,cs),
(938,437,o),
(967,416,o),
(966,376,c),
(1136,376,l),
(1141,488,o),
(1069,566,o),
(921,566,cs),
(771,566,o),
(675,486,o),
(658,393,cs)
);
}
);
width = 1190;
}
);
note = rupee;
unicode = 8360;
},
{
glyphname = indianrupee;
lastChange = "2022-10-20 15:43:06 +0000";
layers = (
{
layerId = m01;
shapes = (
{
closed = 1;
nodes = (
(80,587,l),
(364,587,l),
(354,527,l),
(70,527,l),
(52,423,l),
(331,423,l),
(303,359,o),
(247,353,o),
(58,353,c),
(35,224,ls),
(7,65,o),
(78,-10,o),
(225,-10,cs),
(367,-10,o),
(454,71,o),
(482,203,c),
(324,203,l),
(314,149,o),
(293,119,o),
(244,119,cs),
(192,119,o),
(183,154,o),
(191,201,cs),
(198,241,l),
(361,241,o),
(448,308,o),
(490,423,c),
(581,423,l),
(599,527,l),
(514,527,l),
(524,587,l),
(609,587,l),
(630,702,l),
(101,702,l)
);
}
);
width = 598;
}
);
note = indianrupee;
unicode = 8377;
},
{
glyphname = zerowidthnonjoiner;
lastChange = "2022-10-20 15:43:06 +0000";
layers = (
{
layerId = m01;
shapes = (
{
closed = 1;
nodes = (
(-68,-230,l),
(116,811,l),
(69,811,l),
(-115,-230,l)
);
}
);
width = 0;
}
);
note = zerowidthnonjoiner;
unicode = 8204;
},
{
glyphname = zerowidthjoiner;
lastChange = "2022-10-20 15:43:06 +0000";
layers = (
{
layerId = m01;
shapes = (
{
closed = 1;
nodes = (
(181,593,l),
(102,688,l),
(215,784,l),
(188,816,l),
(75,721,l),
(-3,816,l),
(-42,783,l),
(37,688,l),
(-73,595,l),
(-46,562,l),
(36,635,l),
(-116,-230,l),
(-69,-230,l),
(83,635,l),
(142,560,l)
);
}
);
width = 0;
}
);
note = zerowidthjoiner;
unicode = 8205;
},
{
glyphname = dottedcircle;
lastChange = "2022-10-20 15:43:06 +0000";
layers = (
{
layerId = m01;
shapes = (
{
closed = 1;
nodes = (
(587,434,o),
(572,451,o),
(547,451,cs),
(522,451,o),
(501,434,o),
(496,409,cs),
(492,384,o),
(507,367,o),
(532,367,cs),
(557,367,o),
(578,384,o),
(582,409,cs)
);
},
{
closed = 1;
nodes = (
(160,148,o),
(145,165,o),
(120,165,cs),
(95,165,o),
(74,148,o),
(70,123,cs),
(65,98,o),
(80,81,o),
(105,81,cs),
(130,81,o),
(151,98,o),
(156,123,cs)
);
},
{
closed = 1;
nodes = (
(245,72,o),
(230,89,o),
(205,89,cs),
(180,89,o),
(159,72,o),
(154,47,cs),
(150,22,o),
(165,5,o),
(190,5,cs),
(215,5,o),
(236,22,o),
(240,47,cs)
);
},
{
closed = 1;
nodes = (
(135,261,o),
(120,278,o),
(95,278,cs),
(70,278,o),
(49,261,o),
(45,236,cs),
(40,211,o),
(55,194,o),
(80,194,cs),
(105,194,o),
(126,211,o),
(131,236,cs)
);
},
{
closed = 1;
nodes = (
(366,58,o),
(351,75,o),
(326,75,cs),
(301,75,o),
(280,58,o),
(276,33,cs),
(272,8,o),
(287,-9,o),
(312,-9,cs),
(337,-9,o),
(358,8,o),
(362,33,cs)
);
},
{
closed = 1;
nodes = (
(172,382,o),
(157,399,o),
(132,399,cs),
(107,399,o),
(86,382,o),
(81,357,cs),
(77,332,o),
(92,315,o),
(117,315,cs),
(142,315,o),
(163,332,o),
(167,357,cs)
);
},
{
closed = 1;
nodes = (
(490,104,o),
(475,121,o),
(450,121,cs),
(425,121,o),
(404,104,o),
(399,79,cs),
(395,54,o),
(410,37,o),
(435,37,cs),
(460,37,o),
(481,54,o),
(485,79,cs)
);
},
{
closed = 1;
nodes = (
(265,481,o),
(250,498,o),
(225,498,cs),
(200,498,o),
(179,481,o),
(175,456,cs),
(170,431,o),
(185,414,o),
(210,414,cs),
(235,414,o),
(256,431,o),
(261,456,cs)
);
},
{
closed = 1;
nodes = (
(579,200,o),
(564,217,o),
(539,217,cs),
(514,217,o),
(493,200,o),
(489,175,cs),
(485,150,o),
(500,133,o),
(525,133,cs),
(550,133,o),
(571,150,o),
(575,175,cs)
);
},
{
closed = 1;
nodes = (
(389,523,o),
(374,540,o),
(349,540,cs),
(324,540,o),
(303,523,o),
(299,498,cs),
(295,473,o),
(310,456,o),
(335,456,cs),
(360,456,o),
(381,473,o),
(385,498,cs)
);
},
{
closed = 1;
nodes = (
(611,320,o),
(596,337,o),
(571,337,cs),
(546,337,o),
(525,320,o),
(520,295,cs),
(516,270,o),
(531,253,o),
(556,253,cs),
(581,253,o),
(602,270,o),
(606,295,cs)
);
},
{
closed = 1;
nodes = (
(508,508,o),
(493,525,o),
(468,525,cs),
(443,525,o),
(422,508,o),
(417,483,cs),
(413,458,o),
(428,441,o),
(453,441,cs),
(478,441,o),
(499,458,o),
(503,483,cs)
);
}
);
width = 651;
}
);
note = dottedcircle;
unicode = 9676;
},
{
glyphname = dvEyelash;
lastChange = "2022-10-20 15:43:06 +0000";
layers = (
{
layerId = m01;
shapes = (
{
closed = 1;
nodes = (
(372,431,l),
(350,421,o),
(322,411,o),
(282,411,cs),
(222,411,o),
(169,438,o),
(178,515,c),
(28,515,l),
(6,355,o),
(117,298,o),
(240,298,cs),
(306,298,o),
(373,318,o),
(418,345,c)
);
},
{
closed = 1;
nodes = (
(-1,609,l),
(458,609,l),
(481,740,l),
(22,740,l)
);
}
);
width = 353;
}
);
note = dvEyelash;
},
{
glyphname = dvRashtrasign;
lastChange = "2022-10-20 15:43:06 +0000";
layers = (
{
layerId = m01;
shapes = (
{
closed = 1;
nodes = (
(-578,-97,l),
(-420,-97,l),
(-307,22,l),
(-236,-97,l),
(-77,-97,l),
(-191,82,l),
(-401,82,l)
);
}
);
width = 0;
}
);
note = dvRashtrasign;
},
{
glyphname = dvKx_RA;
lastChange = "2022-10-20 15:43:06 +0000";
layers = (
{
layerId = m01;
shapes = (
{
closed = 1;
nodes = (
(431,0,l),
(582,0,l),
(633,288,l),
(646,345,o),
(682,397,o),
(746,397,cs),
(804,397,o),
(831,354,o),
(821,298,cs),
(811,237,o),
(766,202,o),
(715,202,cs),
(706,202,o),
(697,203,o),
(690,205,c),
(668,82,l),
(691,76,o),
(712,74,o),
(735,74,cs),
(854,74,o),
(956,157,o),
(982,302,cs),
(1004,429,o),
(948,531,o),
(819,531,cs),
(752,531,o),
(700,504,o),
(663,461,c),
(689,609,l),
(1106,609,l),
(1129,740,l),
(52,740,l),
(29,609,l),
(538,609,l),
(512,463,l),
(491,504,o),
(445,531,o),
(375,531,cs),
(242,531,o),
(147,436,o),
(122,298,cs),
(103,191,o),
(147,109,o),
(233,85,c),
(91,-46,l),
(260,-46,l),
(439,129,l),
(445,134,o),
(452,140,o),
(457,146,c)
);
},
{
closed = 1;
nodes = (
(60,-17,o),
(101,17,o),
(108,60,cs),
(116,105,o),
(88,141,o),
(43,141,cs),
(-1,141,o),
(-43,105,o),
(-51,60,cs),
(-58,17,o),
(-29,-17,o),
(15,-17,cs)
);
},
{
closed = 1;
nodes = (
(303,196,o),
(270,236,o),
(281,297,cs),
(292,358,o),
(341,398,o),
(400,398,cs),
(467,398,o),
(493,350,o),
(483,298,cs),
(474,247,o),
(430,196,o),
(364,196,cs)
);
}
);
width = 1043;
}
);
note = dvKx_RA;
},
{
glyphname = dvGx_RA;
lastChange = "2022-10-20 15:43:06 +0000";
layers = (
{
layerId = m01;
shapes = (
{
closed = 1;
nodes = (
(517,0,l),
(671,0,l),
(778,609,l),
(875,609,l),
(898,740,l),
(50,740,l),
(27,609,l),
(337,609,l),
(308,445,ls),
(302,411,o),
(287,372,o),
(244,372,cs),
(203,372,o),
(197,405,o),
(204,444,cs),
(209,476,l),
(57,476,l),
(55,465,o),
(53,454,o),
(51,444,cs),
(27,311,o),
(91,238,o),
(224,238,cs),
(368,238,o),
(446,332,o),
(467,452,cs),
(495,609,l),
(621,609,l),
(574,343,l),
(130,-20,l),
(311,-20,l),
(549,183,l)
);
},
{
closed = 1;
nodes = (
(87,16,o),
(128,50,o),
(136,93,cs),
(144,138,o),
(115,174,o),
(70,174,cs),
(26,174,o),
(-15,138,o),
(-23,93,cs),
(-31,50,o),
(-2,16,o),
(42,16,cs)
);
}
);
width = 814;
}
);
note = dvGx_RA;
},
{
glyphname = dvJx_RA;
lastChange = "2022-10-20 15:43:06 +0000";
layers = (
{
layerId = m01;
shapes = (
{
closed = 1;
nodes = (
(29,609,l),
(675,609,l),
(655,493,l),
(379,493,l),
(362,398,ls),
(352,341,o),
(320,307,o),
(274,307,cs),
(228,307,o),
(209,341,o),
(219,398,cs),
(236,493,l),
(78,493,l),
(61,394,ls),
(37,262,o),
(99,169,o),
(250,169,cs),
(380,169,o),
(471,249,o),
(503,366,c),
(633,366,l),
(625,320,l),
(205,-49,l),
(377,-49,l),
(600,161,l),
(572,0,l),
(718,0,l),
(825,609,l),
(923,609,l),
(947,740,l),
(53,740,l)
);
},
{
closed = 1;
nodes = (
(123,-42,o),
(164,-8,o),
(171,35,cs),
(179,80,o),
(151,116,o),
(106,116,cs),
(62,116,o),
(20,80,o),
(12,35,cs),
(5,-8,o),
(34,-42,o),
(78,-42,cs)
);
}
);
width = 860;
}
);
note = dvJx_RA;
},
{
glyphname = dvKx_R;
lastChange = "2022-10-20 15:43:06 +0000";
layers = (
{
layerId = m01;
shapes = (
{
closed = 1;
nodes = (
(431,0,l),
(582,0,l),
(633,288,l),
(646,345,o),
(682,397,o),
(746,397,cs),
(804,397,o),
(831,354,o),
(821,298,c),
(981,298,l),
(1004,429,o),
(948,531,o),
(819,531,cs),
(752,531,o),
(700,504,o),
(663,461,c),
(689,609,l),
(1036,609,l),
(1059,740,l),
(52,740,l),
(29,609,l),
(538,609,l),
(512,463,l),
(491,504,o),
(445,531,o),
(375,531,cs),
(242,531,o),
(147,436,o),
(122,298,cs),
(103,191,o),
(147,109,o),
(233,85,c),
(91,-46,l),
(260,-46,l),
(439,129,l),
(445,134,o),
(452,140,o),
(457,146,c)
);
},
{
closed = 1;
nodes = (
(60,-17,o),
(101,17,o),
(108,60,cs),
(116,105,o),
(88,141,o),
(43,141,cs),
(-1,141,o),
(-43,105,o),
(-51,60,cs),
(-58,17,o),
(-29,-17,o),
(15,-17,cs)
);
},
{
closed = 1;
nodes = (
(303,196,o),
(270,236,o),
(281,297,cs),
(292,358,o),
(341,398,o),
(400,398,cs),
(467,398,o),
(493,350,o),
(483,298,cs),
(474,247,o),
(430,196,o),
(364,196,cs)
);
}
);
width = 778;
}
);
note = dvKx_R;
},
{
glyphname = dvGx_R;
lastChange = "2022-10-20 15:43:06 +0000";
layers = (
{
layerId = m01;
shapes = (
{
closed = 1;
nodes = (
(584,213,l),
(612,374,l),
(130,-20,l),
(311,-20,l)
);
},
{
closed = 1;
nodes = (
(27,609,l),
(337,609,l),
(308,445,ls),
(302,411,o),
(287,372,o),
(244,372,cs),
(203,372,o),
(197,405,o),
(204,444,cs),
(209,476,l),
(57,476,l),
(55,465,o),
(53,454,o),
(51,444,cs),
(27,311,o),
(91,238,o),
(224,238,cs),
(368,238,o),
(446,332,o),
(467,452,cs),
(495,609,l),
(654,609,l),
(677,740,l),
(50,740,l)
);
},
{
closed = 1;
nodes = (
(87,16,o),
(128,50,o),
(136,93,cs),
(144,138,o),
(115,174,o),
(70,174,cs),
(26,174,o),
(-15,138,o),
(-23,93,cs),
(-31,50,o),
(-2,16,o),
(42,16,cs)
);
}
);
width = 546;
}
);
note = dvGx_R;
},
{
glyphname = dvJx_R;
lastChange = "2022-10-20 15:43:06 +0000";
layers = (
{
layerId = m01;
shapes = (
{
closed = 1;
nodes = (
(29,609,l),
(751,609,l),
(775,740,l),
(53,740,l)
);
},
{
closed = 1;
nodes = (
(377,-49,l),
(687,243,l),
(731,493,l),
(379,493,l),
(362,398,ls),
(352,341,o),
(320,307,o),
(274,307,cs),
(228,307,o),
(209,341,o),
(219,398,cs),
(236,493,l),
(78,493,l),
(61,394,ls),
(37,262,o),
(99,169,o),
(250,169,cs),
(377,169,o),
(467,246,o),
(500,359,c),
(668,359,l),
(205,-49,l)
);
},
{
closed = 1;
nodes = (
(123,-42,o),
(164,-8,o),
(171,35,cs),
(179,80,o),
(151,116,o),
(106,116,cs),
(62,116,o),
(20,80,o),
(12,35,cs),
(5,-8,o),
(34,-42,o),
(78,-42,cs)
);
}
);
width = 550;
}
);
note = dvJx_R;
},
{
glyphname = dvKx_KxA;
lastChange = "2022-10-20 15:43:06 +0000";
layers = (
{
layerId = m01;
shapes = (
{
closed = 1;
nodes = (
(208,-175,o),
(255,-136,o),
(264,-86,cs),
(273,-34,o),
(240,7,o),
(188,7,cs),
(137,7,o),
(90,-34,o),
(81,-86,cs),
(72,-136,o),
(105,-175,o),
(156,-175,cs)
);
},
{
closed = 1;
nodes = (
(903,-175,o),
(950,-136,o),
(959,-86,cs),
(968,-34,o),
(935,7,o),
(883,7,cs),
(832,7,o),
(785,-34,o),
(776,-86,cs),
(767,-136,o),
(800,-175,o),
(851,-175,cs)
);
},
{
closed = 1;
nodes = (
(238,196,o),
(204,236,o),
(215,297,cs),
(225,358,o),
(276,398,o),
(334,398,cs),
(400,398,o),
(427,350,o),
(418,298,cs),
(409,247,o),
(364,196,o),
(298,196,cs)
);
},
{
closed = 1;
nodes = (
(933,196,o),
(899,236,o),
(910,297,cs),
(920,358,o),
(971,398,o),
(1029,398,cs),
(1095,398,o),
(1122,350,o),
(1113,298,cs),
(1104,247,o),
(1059,196,o),
(993,196,cs)
);
},
{
closed = 1;
nodes = (
(1168,609,l),
(1141,461,l),
(1120,504,o),
(1075,531,o),
(1004,531,cs),
(948,531,o),
(898,514,o),
(858,484,c),
(835,514,o),
(800,531,o),
(751,531,cs),
(685,531,o),
(633,504,o),
(598,463,c),
(624,609,l)
);
},
{
closed = 1;
nodes = (
(1060,0,l),
(1211,0,l),
(1262,288,ls),
(1272,347,o),
(1310,397,o),
(1375,397,cs),
(1432,397,o),
(1461,354,o),
(1451,298,cs),
(1440,237,o),
(1396,202,o),
(1344,202,cs),
(1335,202,o),
(1326,203,o),
(1319,205,c),
(1298,82,l),
(1321,76,o),
(1340,74,o),
(1364,74,cs),
(1483,74,o),
(1585,157,o),
(1610,302,cs),
(1633,429,o),
(1577,531,o),
(1449,531,cs),
(1382,531,o),
(1329,504,o),
(1292,461,c),
(1319,609,l),
(1735,609,l),
(1758,740,l),
(64,740,l),
(41,609,l),
(473,609,l),
(446,461,l),
(425,504,o),
(380,531,o),
(309,531,cs),
(176,531,o),
(80,436,o),
(56,298,cs),
(32,161,o),
(93,64,o),
(220,64,cs),
(293,64,o),
(352,93,o),
(390,139,c),
(365,0,l),
(516,0,l),
(567,288,ls),
(577,347,o),
(613,397,o),
(677,397,cs),
(734,397,o),
(760,354,o),
(750,298,c),
(751,298,l),
(727,161,o),
(788,64,o),
(915,64,cs),
(988,64,o),
(1047,93,o),
(1085,139,c)
);
}
);
width = 1659;
}
);
note = dvKx_KxA;
},
{
glyphname = dvKx_TA;
lastChange = "2022-10-20 15:43:06 +0000";
layers = (
{
layerId = m01;
shapes = (
{
closed = 1;
nodes = (
(680,522,o),
(631,499,o),
(597,460,c),
(624,609,l),
(1209,609,l),
(1188,492,l),
(1055,492,ls),
(991,492,o),
(929,479,o),
(876,452,c),
(853,497,o),
(806,522,o),
(742,522,cs)
);
},
{
closed = 1;
nodes = (
(208,-175,o),
(255,-136,o),
(264,-86,cs),
(273,-34,o),
(240,7,o),
(188,7,cs),
(137,7,o),
(90,-34,o),
(81,-86,cs),
(72,-136,o),
(105,-175,o),
(156,-175,cs)
);
},
{
closed = 1;
nodes = (
(238,196,o),
(204,236,o),
(215,297,cs),
(225,358,o),
(276,398,o),
(334,398,cs),
(400,398,o),
(427,350,o),
(418,298,cs),
(409,247,o),
(364,196,o),
(298,196,cs)
);
},
{
closed = 1;
nodes = (
(567,288,ls),
(577,346,o),
(612,395,o),
(675,395,cs),
(721,395,o),
(751,358,o),
(738,286,c),
(733,273,o),
(730,259,o),
(727,245,cs),
(697,74,o),
(801,1,o),
(944,1,cs),
(987,1,l),
(1009,125,l),
(990,125,ls),
(906,125,o),
(873,171,o),
(886,242,cs),
(899,317,o),
(959,357,o),
(1039,357,cs),
(1164,357,l),
(1101,0,l),
(1258,0,l),
(1366,609,l),
(1464,609,l),
(1487,740,l),
(64,740,l),
(41,609,l),
(473,609,l),
(446,461,l),
(425,504,o),
(380,531,o),
(309,531,cs),
(176,531,o),
(80,436,o),
(56,298,cs),
(32,161,o),
(93,64,o),
(220,64,cs),
(293,64,o),
(352,93,o),
(390,139,c),
(365,0,l),
(516,0,l)
);
}
);
width = 1389;
}
);
note = dvKx_TA;
},
{
glyphname = dvKx_PHA;
lastChange = "2022-10-20 15:43:06 +0000";
layers = (
{
layerId = m01;
shapes = (
{
closed = 1;
nodes = (
(624,609,l),
(791,609,l),
(775,522,l),
(767,523,o),
(758,523,o),
(749,523,cs),
(683,523,o),
(632,499,o),
(597,460,c)
);
},
{
closed = 1;
nodes = (
(923,292,o),
(900,341,o),
(912,410,cs),
(948,609,l),
(1145,609,l),
(1108,401,ls),
(1097,342,o),
(1056,292,o),
(990,292,cs)
);
},
{
closed = 1;
nodes = (
(567,288,ls),
(577,347,o),
(613,397,o),
(677,397,cs),
(718,397,o),
(744,374,o),
(749,341,c),
(751,233,o),
(808,160,o),
(926,160,cs),
(988,160,o),
(1038,181,o),
(1075,216,c),
(1037,0,l),
(1194,0,l),
(1242,271,ls),
(1254,342,o),
(1297,397,o),
(1366,397,cs),
(1423,397,o),
(1452,354,o),
(1442,298,cs),
(1432,240,o),
(1390,201,o),
(1336,201,cs),
(1326,201,o),
(1314,202,o),
(1304,205,c),
(1283,84,l),
(1306,77,o),
(1330,74,o),
(1355,74,cs),
(1475,74,o),
(1576,159,o),
(1602,306,cs),
(1624,432,o),
(1567,531,o),
(1440,531,cs),
(1370,531,o),
(1313,503,o),
(1275,461,c),
(1302,609,l),
(1725,609,l),
(1748,740,l),
(64,740,l),
(41,609,l),
(473,609,l),
(446,461,l),
(425,504,o),
(380,531,o),
(309,531,cs),
(176,531,o),
(80,436,o),
(56,298,cs),
(32,161,o),
(93,64,o),
(220,64,cs),
(293,64,o),
(352,93,o),
(390,139,c),
(365,0,l),
(516,0,l)
);
},
{
closed = 1;
nodes = (
(208,-175,o),
(255,-136,o),
(264,-86,cs),
(273,-34,o),
(240,7,o),
(188,7,cs),
(137,7,o),
(90,-34,o),
(81,-86,cs),
(72,-136,o),
(105,-175,o),
(156,-175,cs)
);
},
{
closed = 1;
nodes = (
(238,196,o),
(204,236,o),
(215,297,cs),
(225,358,o),
(276,398,o),
(334,398,cs),
(400,398,o),
(427,350,o),
(418,298,cs),
(409,247,o),
(364,196,o),
(298,196,cs)
);
}
);
width = 1650;
}
);
note = dvKx_PHA;
},
{
glyphname = dvKx_PHxA;
lastChange = "2022-10-20 15:43:06 +0000";
layers = (
{
layerId = m01;
shapes = (
{
closed = 1;
nodes = (
(624,609,l),
(792,609,l),
(776,521,l),
(767,522,o),
(758,523,o),
(749,523,cs),
(683,523,o),
(632,499,o),
(597,460,c)
);
},
{
closed = 1;
nodes = (
(208,-175,o),
(255,-136,o),
(264,-86,cs),
(273,-34,o),
(240,7,o),
(188,7,cs),
(137,7,o),
(90,-34,o),
(81,-86,cs),
(72,-136,o),
(105,-175,o),
(156,-175,cs)
);
},
{
closed = 1;
nodes = (
(882,-74,o),
(929,-35,o),
(938,15,cs),
(947,67,o),
(914,108,o),
(862,108,cs),
(811,108,o),
(764,67,o),
(755,15,cs),
(746,-35,o),
(779,-74,o),
(830,-74,cs)
);
},
{
closed = 1;
nodes = (
(238,196,o),
(204,236,o),
(215,297,cs),
(225,358,o),
(276,398,o),
(334,398,cs),
(400,398,o),
(427,350,o),
(418,298,cs),
(409,247,o),
(364,196,o),
(298,196,cs)
);
},
{
closed = 1;
nodes = (
(924,292,o),
(901,341,o),
(913,410,cs),
(949,609,l),
(1146,609,l),
(1109,401,ls),
(1098,342,o),
(1057,292,o),
(991,292,cs)
);
},
{
closed = 1;
nodes = (
(567,288,ls),
(577,347,o),
(613,397,o),
(677,397,cs),
(722,397,o),
(748,370,o),
(751,331,c),
(751,331,l),
(756,229,o),
(813,160,o),
(927,160,cs),
(989,160,o),
(1039,181,o),
(1076,216,c),
(1038,0,l),
(1195,0,l),
(1243,271,ls),
(1255,342,o),
(1298,397,o),
(1367,397,cs),
(1424,397,o),
(1453,354,o),
(1443,298,cs),
(1433,240,o),
(1391,201,o),
(1337,201,cs),
(1327,201,o),
(1315,202,o),
(1305,205,c),
(1284,84,l),
(1307,77,o),
(1331,74,o),
(1356,74,cs),
(1476,74,o),
(1577,159,o),
(1603,306,cs),
(1625,432,o),
(1568,531,o),
(1441,531,cs),
(1371,531,o),
(1314,503,o),
(1276,461,c),
(1303,609,l),
(1726,609,l),
(1749,740,l),
(64,740,l),
(41,609,l),
(473,609,l),
(446,461,l),
(425,504,o),
(380,531,o),
(309,531,cs),
(176,531,o),
(80,436,o),
(56,298,cs),
(32,161,o),
(93,64,o),
(220,64,cs),
(293,64,o),
(352,93,o),
(390,139,c),
(365,0,l),
(516,0,l)
);
}
);
width = 1651;
}
);
note = dvKx_PHxA;
},
{
glyphname = dvKx_BA;
lastChange = "2022-10-20 15:43:06 +0000";
layers = (
{
layerId = m01;
shapes = (
{
closed = 1;
nodes = (
(624,609,l),
(1208,609,l),
(1185,480,l),
(1154,517,o),
(1104,541,o),
(1035,541,cs),
(970,541,o),
(908,520,o),
(859,483,c),
(837,513,o),
(801,531,o),
(751,531,cs),
(685,531,o),
(633,504,o),
(598,463,c)
);
},
{
closed = 1;
nodes = (
(1100,0,l),
(1251,0,l),
(1359,609,l),
(1457,609,l),
(1480,740,l),
(64,740,l),
(41,609,l),
(473,609,l),
(446,461,l),
(425,504,o),
(380,531,o),
(309,531,cs),
(176,531,o),
(80,436,o),
(56,298,cs),
(32,161,o),
(93,64,o),
(220,64,cs),
(293,64,o),
(352,93,o),
(390,139,c),
(365,0,l),
(516,0,l),
(567,288,ls),
(577,347,o),
(613,397,o),
(677,397,cs),
(734,397,o),
(760,354,o),
(750,298,c),
(750,298,l),
(728,156,o),
(814,59,o),
(951,59,cs),
(1022,59,o),
(1083,85,o),
(1122,126,c)
);
},
{
closed = 1;
nodes = (
(208,-175,o),
(255,-136,o),
(264,-86,cs),
(273,-34,o),
(240,7,o),
(188,7,cs),
(137,7,o),
(90,-34,o),
(81,-86,cs),
(72,-136,o),
(105,-175,o),
(156,-175,cs)
);
},
{
closed = 1;
nodes = (
(238,196,o),
(204,236,o),
(215,297,cs),
(225,358,o),
(276,398,o),
(334,398,cs),
(400,398,o),
(427,350,o),
(418,298,cs),
(409,247,o),
(364,196,o),
(298,196,cs)
);
},
{
closed = 1;
nodes = (
(1136,440,o),
(1176,377,o),
(1163,305,cs),
(1160,286,o),
(1152,267,o),
(1142,250,c),
(959,412,l),
(986,430,o),
(1018,440,o),
(1051,440,cs)
);
},
{
closed = 1;
nodes = (
(928,171,o),
(873,221,o),
(888,304,cs),
(891,324,o),
(899,343,o),
(909,360,c),
(1095,199,l),
(1070,181,o),
(1039,171,o),
(1003,171,cs)
);
}
);
width = 1382;
}
);
note = dvKx_BA;
},
{
glyphname = dvKx_MA;
lastChange = "2022-10-20 15:43:06 +0000";
layers = (
{
layerId = m01;
shapes = (
{
closed = 1;
nodes = (
(683,523,o),
(632,498,o),
(597,458,c),
(624,609,l),
(1089,609,l),
(1063,464,l),
(999,464,ls),
(959,464,o),
(921,457,o),
(886,444,c),
(865,493,o),
(821,523,o),
(749,523,cs)
);
},
{
closed = 1;
nodes = (
(208,-175,o),
(255,-136,o),
(264,-86,cs),
(273,-34,o),
(240,7,o),
(188,7,cs),
(137,7,o),
(90,-34,o),
(81,-86,cs),
(72,-136,o),
(105,-175,o),
(156,-175,cs)
);
},
{
closed = 1;
nodes = (
(238,196,o),
(204,236,o),
(215,297,cs),
(225,358,o),
(276,398,o),
(334,398,cs),
(400,398,o),
(427,350,o),
(418,298,cs),
(409,247,o),
(364,196,o),
(298,196,cs)
);
},
{
closed = 1;
nodes = (
(902,194,o),
(877,219,o),
(885,264,cs),
(893,311,o),
(932,336,o),
(980,336,cs),
(1040,336,l),
(1031,281,ls),
(1022,229,o),
(990,194,o),
(942,194,cs)
);
},
{
closed = 1;
nodes = (
(1338,464,l),
(1209,464,l),
(1235,609,l),
(1364,609,l)
);
},
{
closed = 1;
nodes = (
(567,288,ls),
(577,347,o),
(613,397,o),
(677,397,cs),
(730,397,o),
(756,360,o),
(751,311,c),
(746,296,o),
(742,281,o),
(739,264,cs),
(717,141,o),
(790,61,o),
(922,61,cs),
(1064,61,o),
(1153,148,o),
(1178,289,cs),
(1186,336,l),
(1315,336,l),
(1256,0,l),
(1414,0,l),
(1522,609,l),
(1620,609,l),
(1643,740,l),
(64,740,l),
(41,609,l),
(473,609,l),
(446,461,l),
(425,504,o),
(380,531,o),
(309,531,cs),
(176,531,o),
(80,436,o),
(56,298,cs),
(32,161,o),
(93,64,o),
(220,64,cs),
(293,64,o),
(352,93,o),
(390,139,c),
(365,0,l),
(516,0,l)
);
}
);
width = 1534;
}
);
note = dvKx_MA;
},
{
glyphname = dvJx_JxA;
lastChange = "2022-10-20 15:43:06 +0000";
layers = (
{
layerId = m01;
shapes = (
{
closed = 1;
nodes = (
(257,-139,o),
(303,-100,o),
(312,-50,cs),
(321,2,o),
(289,43,o),
(237,43,cs),
(186,43,o),
(138,2,o),
(129,-50,cs),
(120,-100,o),
(154,-139,o),
(205,-139,cs)
);
},
{
closed = 1;
nodes = (
(823,-139,o),
(869,-100,o),
(878,-50,cs),
(887,2,o),
(855,43,o),
(803,43,cs),
(752,43,o),
(704,2,o),
(695,-50,cs),
(686,-100,o),
(720,-139,o),
(771,-139,cs)
);
},
{
closed = 1;
nodes = (
(1292,0,l),
(1399,609,l),
(1497,609,l),
(1520,740,l),
(60,740,l),
(37,609,l),
(1242,609,l),
(1221,488,l),
(952,488,l),
(924,328,ls),
(914,272,o),
(883,237,o),
(837,237,cs),
(790,237,o),
(771,272,o),
(781,328,cs),
(809,488,l),
(386,488,l),
(358,328,ls),
(348,272,o),
(317,237,o),
(271,237,cs),
(224,237,o),
(205,272,o),
(215,328,cs),
(243,488,l),
(85,488,l),
(56,324,ls),
(33,193,o),
(95,100,o),
(246,100,cs),
(386,100,o),
(488,193,o),
(511,324,cs),
(516,354,l),
(627,354,l),
(622,324,ls),
(599,193,o),
(661,100,o),
(812,100,cs),
(952,100,o),
(1054,193,o),
(1077,324,cs),
(1082,354,l),
(1197,354,l),
(1135,0,l)
);
}
);
width = 1426;
}
);
note = dvJx_JxA;
},
{
glyphname = dvJx_YA;
lastChange = "2022-10-20 15:43:06 +0000";
layers = (
{
layerId = m01;
shapes = (
{
closed = 1;
nodes = (
(1181,0,l),
(1288,609,l),
(1385,609,l),
(1408,740,l),
(60,740,l),
(37,609,l),
(829,609,l),
(821,564,ls),
(809,493,o),
(766,450,o),
(653,450,cs),
(379,450,l),
(358,328,ls),
(348,272,o),
(317,237,o),
(271,237,cs),
(224,237,o),
(205,272,o),
(215,328,cs),
(236,450,l),
(78,450,l),
(56,324,ls),
(33,193,o),
(95,100,o),
(246,100,cs),
(384,100,o),
(486,190,o),
(510,319,c),
(548,319,ls),
(576,319,o),
(600,319,o),
(620,320,c),
(616,174,o),
(691,82,o),
(844,82,cs),
(931,82,o),
(1001,111,o),
(1049,155,c),
(1022,0,l)
);
},
{
closed = 1;
nodes = (
(257,-139,o),
(303,-100,o),
(312,-50,cs),
(321,2,o),
(289,43,o),
(237,43,cs),
(186,43,o),
(138,2,o),
(129,-50,cs),
(120,-100,o),
(154,-139,o),
(205,-139,cs)
);
},
{
closed = 1;
nodes = (
(810,213,o),
(766,268,o),
(776,345,c),
(886,363,o),
(954,438,o),
(971,535,cs),
(984,609,l),
(1129,609,l),
(1088,373,ls),
(1072,281,o),
(1001,213,o),
(902,213,cs)
);
}
);
width = 1314;
}
);
note = dvJx_YA;
},
{
glyphname = dvEyelash_YA;
lastChange = "2022-10-20 15:43:06 +0000";
layers = (
{
layerId = m01;
shapes = (
{
closed = 1;
nodes = (
(475,213,o),
(432,268,o),
(443,344,c),
(562,358,o),
(620,432,o),
(638,535,cs),
(651,609,l),
(797,609,l),
(756,373,ls),
(739,281,o),
(667,213,o),
(569,213,cs)
);
},
{
closed = 1;
nodes = (
(848,0,l),
(955,609,l),
(1053,609,l),
(1076,740,l),
(48,740,l),
(25,609,l),
(496,609,l),
(488,564,ls),
(474,481,o),
(433,429,o),
(332,424,c),
(332,425,l),
(273,423,o),
(202,450,o),
(216,527,c),
(67,527,l),
(44,369,o),
(156,308,o),
(284,304,c),
(281,168,o),
(359,82,o),
(512,82,cs),
(599,82,o),
(668,111,o),
(717,156,c),
(690,0,l)
);
}
);
width = 993;
}
);
note = dvEyelash_YA;
},
{
glyphname = dvEyelash_HA;
lastChange = "2022-10-20 15:43:06 +0000";
layers = (
{
layerId = m01;
shapes = (
{
closed = 1;
nodes = (
(581,77,l),
(567,46,o),
(531,17,o),
(484,17,cs),
(431,17,o),
(398,54,o),
(409,117,cs),
(420,178,o),
(466,216,o),
(519,216,cs),
(569,216,o),
(593,185,o),
(595,154,c),
(745,154,l),
(751,259,o),
(693,340,o),
(545,340,cs),
(530,340,o),
(514,339,o),
(500,337,c),
(485,346,o),
(477,361,o),
(481,380,cs),
(487,415,o),
(518,428,o),
(551,428,cs),
(725,428,l),
(757,609,l),
(885,609,l),
(908,740,l),
(58,740,l),
(35,609,l),
(607,609,l),
(595,539,l),
(515,539,ls),
(414,539,o),
(344,489,o),
(330,411,cs),
(329,406,o),
(328,401,o),
(329,397,c),
(320,396,o),
(312,395,o),
(303,395,cs),
(248,395,o),
(208,426,o),
(219,488,c),
(70,488,l),
(47,345,o),
(144,272,o),
(255,272,cs),
(312,272,o),
(348,285,o),
(374,298,c),
(375,298,o),
(376,297,o),
(377,296,c),
(314,259,o),
(270,198,o),
(256,120,cs),
(231,-20,o),
(310,-112,o),
(461,-112,cs),
(595,-112,o),
(701,-37,o),
(731,77,c)
);
}
);
width = 816;
}
);
note = dvEyelash_HA;
},
{
glyphname = dvmII.aLong;
lastChange = "2022-10-20 15:43:06 +0000";
layers = (
{
layerId = m01;
shapes = (
{
closed = 1;
nodes = (
(-517,705,l),
(-366,705,l),
(-359,748,ls),
(-346,820,o),
(-301,905,o),
(-89,905,cs),
(125,905,o),
(139,820,o),
(126,748,cs),
(125,740,l),
(22,740,l),
(-1,609,l),
(97,609,l),
(-10,0,l),
(147,0,l),
(254,609,l),
(352,609,l),
(375,740,l),
(277,740,l),
(281,760,ls),
(308,916,o),
(232,1037,o),
(-66,1037,cs),
(-354,1037,o),
(-479,919,o),
(-507,760,cs)
);
}
);
width = 319;
}
);
note = dvmII.aLong;
},
{
glyphname = dvmII_Anusvara;
lastChange = "2022-10-20 15:43:06 +0000";
layers = (
{
layerId = m01;
shapes = (
{
closed = 1;
nodes = (
(-205,705,l),
(-53,705,l),
(-40,778,ls),
(-31,829,o),
(-7,899,o),
(70,899,cs),
(143,899,o),
(141,829,o),
(132,778,cs),
(126,740,l),
(23,740,l),
(-1,609,l),
(97,609,l),
(-10,0,l),
(147,0,l),
(254,609,l),
(352,609,l),
(376,740,l),
(278,740,l),
(283,770,ls),
(309,917,o),
(272,1031,o),
(93,1031,cs),
(-84,1031,o),
(-166,921,o),
(-193,770,cs)
);
},
{
closed = 1;
nodes = (
(475,800,o),
(523,841,o),
(532,891,cs),
(541,942,o),
(507,982,o),
(456,982,cs),
(405,982,o),
(358,942,o),
(349,891,cs),
(340,841,o),
(373,800,o),
(424,800,cs)
);
}
);
width = 319;
}
);
note = dvmII_Anusvara;
},
{
glyphname = dvmII_Reph;
lastChange = "2022-10-20 15:43:06 +0000";
layers = (
{
layerId = m01;
shapes = (
{
closed = 1;
nodes = (
(-205,705,l),
(-53,705,l),
(-40,778,ls),
(-31,829,o),
(-7,899,o),
(70,899,cs),
(143,899,o),
(141,829,o),
(132,778,cs),
(126,740,l),
(23,740,l),
(-1,609,l),
(97,609,l),
(-10,0,l),
(147,0,l),
(254,609,l),
(352,609,l),
(376,740,l),
(278,740,l),
(292,822,ls),
(298,856,o),
(315,892,o),
(359,892,cs),
(396,892,o),
(408,865,o),
(398,819,c),
(538,819,l),
(569,949,o),
(515,1016,o),
(420,1016,cs),
(348,1016,o),
(301,984,o),
(272,942,c),
(246,997,o),
(191,1031,o),
(93,1031,cs),
(-84,1031,o),
(-166,921,o),
(-193,770,cs)
);
}
);
width = 319;
}
);
note = dvmII_Reph;
},
{
glyphname = dvmII_Reph_Anusvara;
lastChange = "2022-10-20 15:43:06 +0000";
layers = (
{
layerId = m01;
shapes = (
{
closed = 1;
nodes = (
(277,740,l),
(291,814,ls),
(301,872,o),
(339,910,o),
(390,910,cs),
(441,910,o),
(463,878,o),
(457,841,c),
(583,841,l),
(615,950,o),
(559,1032,o),
(445,1032,cs),
(363,1032,o),
(305,993,o),
(271,943,c),
(246,997,o),
(190,1031,o),
(93,1031,cs),
(-84,1031,o),
(-167,921,o),
(-193,770,cs),
(-205,705,l),
(-53,705,l),
(-40,778,ls),
(-31,829,o),
(-7,899,o),
(70,899,cs),
(143,899,o),
(141,829,o),
(132,778,cs),
(125,740,l),
(22,740,l),
(-1,609,l),
(97,609,l),
(-10,0,l),
(147,0,l),
(254,609,l),
(352,609,l),
(375,740,l)
);
},
{
closed = 1;
nodes = (
(393,772,o),
(421,796,o),
(426,825,cs),
(432,854,o),
(412,877,o),
(383,877,cs),
(353,877,o),
(326,854,o),
(320,825,cs),
(315,796,o),
(334,772,o),
(364,772,cs)
);
}
);
width = 319;
}
);
note = dvmII_Reph_Anusvara;
},
{
glyphname = dvmII_Anusvara.aLong;
lastChange = "2022-10-20 15:43:06 +0000";
layers = (
{
layerId = m01;
shapes = (
{
closed = 1;
nodes = (
(-517,705,l),
(-366,705,l),
(-359,748,ls),
(-346,820,o),
(-301,905,o),
(-89,905,cs),
(125,905,o),
(139,820,o),
(126,748,cs),
(125,740,l),
(22,740,l),
(-1,609,l),
(97,609,l),
(-10,0,l),
(147,0,l),
(254,609,l),
(352,609,l),
(375,740,l),
(277,740,l),
(281,760,ls),
(308,916,o),
(232,1037,o),
(-66,1037,cs),
(-354,1037,o),
(-479,919,o),
(-507,760,cs)
);
},
{
closed = 1;
nodes = (
(475,800,o),
(523,841,o),
(532,891,cs),
(541,942,o),
(507,982,o),
(456,982,cs),
(405,982,o),
(358,942,o),
(349,891,cs),
(340,841,o),
(373,800,o),
(424,800,cs)
);
}
);
width = 319;
}
);
note = dvmII_Anusvara.aLong;
},
{
glyphname = dvmII_Reph.aLong;
lastChange = "2022-10-20 15:43:06 +0000";
layers = (
{
layerId = m01;
shapes = (
{
closed = 1;
nodes = (
(-517,705,l),
(-366,705,l),
(-359,748,ls),
(-346,820,o),
(-301,905,o),
(-89,905,cs),
(125,905,o),
(139,820,o),
(126,748,cs),
(125,740,l),
(22,740,l),
(-1,609,l),
(97,609,l),
(-10,0,l),
(147,0,l),
(254,609,l),
(352,609,l),
(375,740,l),
(277,740,l),
(292,822,ls),
(298,856,o),
(315,892,o),
(359,892,cs),
(396,892,o),
(407,865,o),
(397,819,c),
(537,819,l),
(569,949,o),
(515,1016,o),
(420,1016,cs),
(336,1016,o),
(285,972,o),
(259,921,c),
(216,992,o),
(116,1037,o),
(-66,1037,cs),
(-354,1037,o),
(-479,919,o),
(-507,760,cs)
);
}
);
width = 319;
}
);
note = dvmII_Reph.aLong;
},
{
glyphname = dvmII_Reph_Anusvara.aLong;
lastChange = "2022-10-20 15:43:06 +0000";
layers = (
{
layerId = m01;
shapes = (
{
closed = 1;
nodes = (
(-517,705,l),
(-366,705,l),
(-359,748,ls),
(-346,820,o),
(-301,905,o),
(-89,905,cs),
(125,905,o),
(139,820,o),
(126,748,cs),
(125,740,l),
(22,740,l),
(-1,609,l),
(97,609,l),
(-10,0,l),
(147,0,l),
(254,609,l),
(352,609,l),
(375,740,l),
(277,740,l),
(290,814,ls),
(300,872,o),
(339,910,o),
(390,910,cs),
(441,910,o),
(462,878,o),
(457,841,c),
(583,841,l),
(614,950,o),
(559,1032,o),
(445,1032,cs),
(351,1032,o),
(290,981,o),
(259,922,c),
(215,992,o),
(116,1037,o),
(-66,1037,cs),
(-354,1037,o),
(-479,919,o),
(-507,760,cs)
);
},
{
closed = 1;
nodes = (
(393,772,o),
(421,796,o),
(426,825,cs),
(431,854,o),
(411,877,o),
(382,877,cs),
(352,877,o),
(325,854,o),
(320,825,cs),
(315,796,o),
(334,772,o),
(364,772,cs)
);
}
);
width = 319;
}
);
note = dvmII_Reph_Anusvara.aLong;
},
{
glyphname = dvmE_Anusvara;
lastChange = "2022-10-20 15:43:06 +0000";
layers = (
{
layerId = m01;
shapes = (
{
closed = 1;
nodes = (
(-106,735,l),
(-196,972,o),
(-245,999,o),
(-401,1000,cs),
(-450,1000,l),
(-472,874,l),
(-420,874,ls),
(-331,874,o),
(-310,857,o),
(-253,735,c)
);
},
{
closed = 1;
nodes = (
(40,804,o),
(88,845,o),
(97,895,cs),
(106,946,o),
(72,986,o),
(21,986,cs),
(-30,986,o),
(-77,946,o),
(-86,895,cs),
(-95,845,o),
(-62,804,o),
(-11,804,cs)
);
}
);
width = 0;
}
);
note = dvmE_Anusvara;
},
{
glyphname = dvmE_Reph;
lastChange = "2022-10-20 15:43:06 +0000";
layers = (
{
layerId = m01;
shapes = (
{
closed = 1;
nodes = (
(-106,735,l),
(-115,759,o),
(-118,786,o),
(-114,811,cs),
(-106,854,o),
(-82,881,o),
(-43,881,cs),
(-5,881,o),
(8,850,o),
(0,816,c),
(133,816,l),
(161,920,o),
(119,1001,o),
(12,1001,cs),
(-92,1001,o),
(-144,932,o),
(-163,865,c),
(-223,983,o),
(-280,999,o),
(-401,1000,cs),
(-450,1000,l),
(-472,874,l),
(-420,874,ls),
(-331,874,o),
(-310,857,o),
(-253,735,c)
);
}
);
width = 0;
}
);
note = dvmE_Reph;
},
{
glyphname = dvmE_Reph_Anusvara;
lastChange = "2022-10-20 15:43:06 +0000";
layers = (
{
layerId = m01;
shapes = (
{
closed = 1;
nodes = (
(-107,735,l),
(-117,762,o),
(-123,789,o),
(-117,822,cs),
(-108,876,o),
(-66,913,o),
(-14,913,cs),
(46,913,o),
(66,869,o),
(58,823,c),
(164,823,l),
(193,938,o),
(136,1012,o),
(24,1012,cs),
(-83,1012,o),
(-145,947,o),
(-169,877,c),
(-229,984,o),
(-285,999,o),
(-402,1000,cs),
(-451,1000,l),
(-473,874,l),
(-421,874,ls),
(-332,874,o),
(-311,857,o),
(-254,735,c)
);
},
{
closed = 1;
nodes = (
(-13,774,o),
(16,798,o),
(21,827,cs),
(26,856,o),
(6,879,o),
(-23,879,cs),
(-53,879,o),
(-80,856,o),
(-85,827,cs),
(-90,798,o),
(-72,774,o),
(-42,774,cs)
);
}
);
width = 0;
}
);
note = dvmE_Reph_Anusvara;
},
{
glyphname = dvmAI_Anusvara;
lastChange = "2022-10-20 15:43:06 +0000";
layers = (
{
layerId = m01;
shapes = (
{
closed = 1;
nodes = (
(-113,737,l),
(-222,1057,o),
(-249,1072,o),
(-402,1072,cs),
(-456,1072,l),
(-474,973,l),
(-417,973,ls),
(-347,973,o),
(-304,971,o),
(-253,849,c),
(-316,905,o),
(-341,906,o),
(-435,906,cs),
(-486,906,l),
(-503,808,l),
(-449,808,ls),
(-341,808,o),
(-345,806,o),
(-248,737,c)
);
},
{
closed = 1;
nodes = (
(38,801,o),
(86,842,o),
(95,892,cs),
(104,943,o),
(70,983,o),
(19,983,cs),
(-32,983,o),
(-79,943,o),
(-88,892,cs),
(-97,842,o),
(-64,801,o),
(-13,801,cs)
);
}
);
width = 0;
}
);
note = dvmAI_Anusvara;
},
{
glyphname = dvmAI_Reph;
lastChange = "2022-10-20 15:43:06 +0000";
layers = (
{
layerId = m01;
shapes = (
{
closed = 1;
nodes = (
(-113,737,l),
(-115,742,o),
(-117,748,o),
(-118,753,cs),
(-123,772,o),
(-124,792,o),
(-120,811,cs),
(-113,854,o),
(-88,881,o),
(-49,881,cs),
(-11,881,o),
(1,850,o),
(-7,816,c),
(112,816,l),
(139,920,o),
(102,1001,o),
(3,1001,cs),
(-91,1001,o),
(-142,942,o),
(-164,880,c),
(-235,1062,o),
(-276,1072,o),
(-402,1072,cs),
(-456,1072,l),
(-474,973,l),
(-417,973,ls),
(-347,973,o),
(-304,971,o),
(-253,849,c),
(-316,905,o),
(-341,906,o),
(-435,906,cs),
(-486,906,l),
(-503,808,l),
(-449,808,ls),
(-341,808,o),
(-345,806,o),
(-248,737,c)
);
}
);
width = 0;
}
);
note = dvmAI_Reph;
},
{
glyphname = dvmAI_Reph_Anusvara;
lastChange = "2022-10-20 15:43:06 +0000";
layers = (
{
layerId = m01;
shapes = (
{
closed = 1;
nodes = (
(-113,737,l),
(-122,764,o),
(-129,788,o),
(-123,818,cs),
(-113,875,o),
(-73,913,o),
(-20,913,cs),
(40,913,o),
(61,869,o),
(53,823,c),
(159,823,l),
(187,933,o),
(135,1012,o),
(19,1012,cs),
(-79,1012,o),
(-141,954,o),
(-168,888,c),
(-237,1062,o),
(-278,1072,o),
(-402,1072,cs),
(-456,1072,l),
(-474,973,l),
(-417,973,ls),
(-347,973,o),
(-304,971,o),
(-253,849,c),
(-316,905,o),
(-341,906,o),
(-435,906,cs),
(-486,906,l),
(-503,808,l),
(-449,808,ls),
(-341,808,o),
(-345,806,o),
(-248,737,c)
);
},
{
closed = 1;
nodes = (
(-19,774,o),
(9,798,o),
(14,827,cs),
(19,856,o),
(0,879,o),
(-29,879,cs),
(-59,879,o),
(-87,856,o),
(-92,827,cs),
(-97,798,o),
(-78,774,o),
(-48,774,cs)
);
}
);
width = 0;
}
);
note = dvmAI_Reph_Anusvara;
},
{
glyphname = dvmO_Anusvara;
lastChange = "2022-10-20 15:43:06 +0000";
layers = (
{
layerId = m01;
shapes = (
{
closed = 1;
nodes = (
(150,0,l),
(257,609,l),
(355,609,l),
(378,740,l),
(276,740,l),
(189,972,o),
(140,999,o),
(-16,1000,cs),
(-65,1000,l),
(-87,874,l),
(-35,874,ls),
(53,874,o),
(74,857,o),
(129,740,c),
(25,740,l),
(2,609,l),
(100,609,l),
(-7,0,l)
);
},
{
closed = 1;
nodes = (
(425,804,o),
(473,845,o),
(482,895,cs),
(491,946,o),
(457,986,o),
(406,986,cs),
(355,986,o),
(308,946,o),
(299,895,cs),
(290,845,o),
(323,804,o),
(374,804,cs)
);
}
);
width = 319;
}
);
note = dvmO_Anusvara;
},
{
glyphname = dvmO_Reph;
lastChange = "2022-10-20 15:43:06 +0000";
layers = (
{
layerId = m01;
shapes = (
{
closed = 1;
nodes = (
(150,0,l),
(257,609,l),
(355,609,l),
(378,740,l),
(276,740,l),
(269,763,o),
(267,788,o),
(271,811,cs),
(278,854,o),
(303,881,o),
(342,881,cs),
(380,881,o),
(393,850,o),
(385,816,c),
(518,816,l),
(546,920,o),
(504,1001,o),
(397,1001,cs),
(293,1001,o),
(241,932,o),
(222,865,c),
(162,983,o),
(105,999,o),
(-16,1000,cs),
(-65,1000,l),
(-87,874,l),
(-35,874,ls),
(53,874,o),
(74,857,o),
(129,740,c),
(25,740,l),
(2,609,l),
(100,609,l),
(-7,0,l)
);
}
);
width = 319;
}
);
note = dvmO_Reph;
},
{
glyphname = dvmO_Reph_Anusvara;
lastChange = "2022-10-20 15:43:06 +0000";
layers = (
{
layerId = m01;
shapes = (
{
closed = 1;
nodes = (
(149,0,l),
(256,609,l),
(354,609,l),
(377,740,l),
(275,740,l),
(268,765,o),
(262,791,o),
(268,822,cs),
(277,876,o),
(319,913,o),
(371,913,cs),
(431,913,o),
(451,869,o),
(443,823,c),
(549,823,l),
(578,938,o),
(521,1012,o),
(409,1012,cs),
(302,1012,o),
(240,947,o),
(215,877,c),
(156,984,o),
(100,999,o),
(-17,1000,cs),
(-66,1000,l),
(-88,874,l),
(-36,874,ls),
(52,874,o),
(73,857,o),
(128,740,c),
(24,740,l),
(1,609,l),
(99,609,l),
(-8,0,l)
);
},
{
closed = 1;
nodes = (
(372,774,o),
(400,798,o),
(406,827,cs),
(411,856,o),
(391,879,o),
(362,879,cs),
(332,879,o),
(305,856,o),
(300,827,cs),
(294,798,o),
(313,774,o),
(343,774,cs)
);
}
);
width = 319;
}
);
note = dvmO_Reph_Anusvara;
},
{
glyphname = dvmAU_Anusvara;
lastChange = "2022-10-20 15:43:06 +0000";
layers = (
{
layerId = m01;
shapes = (
{
closed = 1;
nodes = (
(143,0,l),
(251,609,l),
(349,609,l),
(372,740,l),
(265,740,l),
(157,1057,o),
(130,1072,o),
(-23,1072,cs),
(-77,1072,l),
(-95,973,l),
(-38,973,ls),
(32,973,o),
(75,971,o),
(126,849,c),
(63,905,o),
(38,906,o),
(-56,906,cs),
(-107,906,l),
(-124,808,l),
(-70,808,ls),
(36,808,o),
(34,806,o),
(127,740,c),
(19,740,l),
(-4,609,l),
(94,609,l),
(-14,0,l)
);
},
{
closed = 1;
nodes = (
(417,801,o),
(465,842,o),
(474,892,cs),
(483,943,o),
(449,983,o),
(398,983,cs),
(347,983,o),
(300,943,o),
(291,892,cs),
(282,842,o),
(315,801,o),
(366,801,cs)
);
}
);
width = 319;
}
);
note = dvmAU_Anusvara;
},
{
glyphname = dvmAU_Reph;
lastChange = "2022-10-20 15:43:06 +0000";
layers = (
{
layerId = m01;
shapes = (
{
closed = 1;
nodes = (
(143,0,l),
(251,609,l),
(349,609,l),
(372,740,l),
(265,740,l),
(264,742,o),
(262,748,o),
(261,753,cs),
(256,772,o),
(255,792,o),
(258,811,cs),
(266,854,o),
(291,881,o),
(330,881,cs),
(368,881,o),
(380,850,o),
(372,816,c),
(491,816,l),
(518,920,o),
(481,1001,o),
(382,1001,cs),
(288,1001,o),
(237,942,o),
(215,880,c),
(144,1062,o),
(103,1072,o),
(-23,1072,cs),
(-77,1072,l),
(-95,973,l),
(-38,973,ls),
(32,973,o),
(75,971,o),
(126,849,c),
(63,905,o),
(38,906,o),
(-56,906,cs),
(-107,906,l),
(-124,808,l),
(-70,808,ls),
(36,808,o),
(34,806,o),
(127,740,c),
(19,740,l),
(-4,609,l),
(94,609,l),
(-14,0,l)
);
}
);
width = 319;
}
);
note = dvmAU_Reph;
},
{
glyphname = dvmAU_Reph_Anusvara;
lastChange = "2022-10-20 15:43:06 +0000";
layers = (
{
layerId = m01;
shapes = (
{
closed = 1;
nodes = (
(143,0,l),
(251,609,l),
(349,609,l),
(372,740,l),
(265,740,l),
(257,764,o),
(250,788,o),
(256,818,cs),
(266,875,o),
(306,913,o),
(359,913,cs),
(419,913,o),
(440,869,o),
(432,823,c),
(538,823,l),
(566,933,o),
(514,1012,o),
(398,1012,cs),
(300,1012,o),
(238,954,o),
(211,888,c),
(142,1062,o),
(101,1072,o),
(-23,1072,cs),
(-77,1072,l),
(-95,973,l),
(-38,973,ls),
(32,973,o),
(75,971,o),
(126,849,c),
(63,905,o),
(38,906,o),
(-56,906,cs),
(-107,906,l),
(-124,808,l),
(-70,808,ls),
(36,808,o),
(34,806,o),
(127,740,c),
(19,740,l),
(-4,609,l),
(94,609,l),
(-14,0,l)
);
},
{
closed = 1;
nodes = (
(360,774,o),
(388,798,o),
(393,827,cs),
(398,856,o),
(378,879,o),
(349,879,cs),
(319,879,o),
(292,856,o),
(287,827,cs),
(282,798,o),
(301,774,o),
(331,774,cs)
);
}
);
width = 319;
}
);
note = dvmAU_Reph_Anusvara;
},
{
glyphname = dvmEcandra_Anusvara;
lastChange = "2022-10-20 15:43:06 +0000";
layers = (
{
layerId = m01;
shapes = (
{
closed = 1;
nodes = (
(-29,811,o),
(69,892,o),
(92,1022,c),
(-34,1022,l),
(-43,969,o),
(-91,923,o),
(-165,923,cs),
(-239,923,o),
(-271,969,o),
(-262,1022,c),
(-387,1022,l),
(-410,892,o),
(-340,811,o),
(-185,811,cs)
);
},
{
closed = 1;
nodes = (
(-119,986,o),
(-89,1013,o),
(-83,1047,cs),
(-77,1080,o),
(-98,1108,o),
(-134,1108,cs),
(-167,1108,o),
(-199,1080,o),
(-205,1047,cs),
(-211,1013,o),
(-188,986,o),
(-155,986,cs)
);
}
);
width = 0;
}
);
note = dvmEcandra_Anusvara;
},
{
glyphname = dvmOcandra_Anusvara;
lastChange = "2022-10-20 15:43:06 +0000";
layers = (
{
layerId = m01;
shapes = (
{
closed = 1;
nodes = (
(-17,0,l),
(140,0,l),
(248,609,l),
(346,609,l),
(369,740,l),
(16,740,l),
(-7,609,l),
(91,609,l)
);
},
{
closed = 1;
nodes = (
(361,811,o),
(460,892,o),
(483,1022,c),
(357,1022,l),
(347,969,o),
(299,923,o),
(225,923,cs),
(151,923,o),
(119,969,o),
(129,1022,c),
(4,1022,l),
(-19,892,o),
(50,811,o),
(205,811,cs)
);
},
{
closed = 1;
nodes = (
(271,986,o),
(302,1013,o),
(308,1047,cs),
(314,1080,o),
(293,1108,o),
(257,1108,cs),
(224,1108,o),
(192,1080,o),
(186,1047,cs),
(180,1013,o),
(202,986,o),
(235,986,cs)
);
}
);
width = 319;
}
);
note = dvmOcandra_Anusvara;
},
{
glyphname = dvRA_mU;
lastChange = "2022-10-20 15:43:06 +0000";
layers = (
{
layerId = m01;
shapes = (
{
closed = 1;
nodes = (
(26,609,l),
(349,609,l),
(340,559,ls),
(326,478,o),
(282,429,o),
(175,429,cs),
(74,429,l),
(35,208,ls),
(14,86,o),
(71,-9,o),
(216,-9,cs),
(348,-9,o),
(438,73,o),
(461,199,cs),
(463,215,l),
(312,215,l),
(309,194,ls),
(302,154,o),
(275,125,o),
(237,125,cs),
(194,125,o),
(181,157,o),
(189,200,cs),
(207,303,l),
(573,303,ls),
(616,303,o),
(638,281,o),
(632,244,cs),
(625,208,o),
(597,186,o),
(554,186,cs),
(541,186,o),
(529,188,o),
(518,190,c),
(496,65,l),
(509,63,o),
(529,60,o),
(546,60,cs),
(664,60,o),
(751,130,o),
(771,239,cs),
(792,360,o),
(732,429,o),
(582,429,cs),
(442,429,l),
(470,467,o),
(489,512,o),
(497,559,cs),
(506,609,l),
(893,609,l),
(916,740,l),
(49,740,l)
);
}
);
width = 824;
}
);
note = dvRA_mU;
},
{
glyphname = dvRA_mUU;
lastChange = "2022-10-20 15:43:06 +0000";
layers = (
{
layerId = m01;
shapes = (
{
closed = 1;
nodes = (
(26,609,l),
(349,609,l),
(340,559,ls),
(326,478,o),
(282,429,o),
(175,429,cs),
(74,429,l),
(35,208,ls),
(14,86,o),
(71,-9,o),
(216,-9,cs),
(348,-9,o),
(438,73,o),
(461,199,cs),
(463,215,l),
(312,215,l),
(309,194,ls),
(302,154,o),
(275,125,o),
(237,125,cs),
(194,125,o),
(181,157,o),
(189,200,cs),
(207,303,l),
(467,303,ls),
(536,303,o),
(565,265,o),
(555,205,cs),
(539,117,l),
(685,117,l),
(701,208,ls),
(725,342,o),
(662,429,o),
(505,429,cs),
(442,429,l),
(470,467,o),
(489,512,o),
(497,559,cs),
(506,609,l),
(828,609,l),
(851,740,l),
(49,740,l)
);
}
);
width = 768;
}
);
note = dvRA_mUU;
},
{
glyphname = dvmI.a01;
lastChange = "2022-10-20 15:43:06 +0000";
layers = (
{
layerId = m01;
shapes = (
{
closed = 1;
nodes = (
(254,609,l),
(352,609,l),
(376,740,l),
(277,740,l),
(304,855,o),
(404,903,o),
(500,903,cs),
(600,903,o),
(687,845,o),
(665,720,cs),
(662,705,l),
(815,705,l),
(819,723,ls),
(851,904,o),
(738,1031,o),
(523,1031,cs),
(313,1031,o),
(160,917,o),
(121,740,c),
(23,740,l),
(-1,609,l),
(97,609,l),
(-10,0,l),
(147,0,l)
);
}
);
width = 319;
}
);
note = dvmI.a01;
},
{
glyphname = dvmI.a02;
lastChange = "2022-10-20 15:43:06 +0000";
layers = (
{
layerId = m01;
shapes = (
{
closed = 1;
nodes = (
(254,609,l),
(352,609,l),
(375,740,l),
(276,740,l),
(304,855,o),
(405,904,o),
(527,904,cs),
(654,904,o),
(744,845,o),
(722,718,cs),
(719,704,l),
(872,704,l),
(875,722,ls),
(908,905,o),
(792,1032,o),
(550,1032,cs),
(316,1032,o),
(160,919,o),
(120,740,c),
(22,740,l),
(-1,609,l),
(97,609,l),
(-10,0,l),
(147,0,l)
);
}
);
width = 319;
}
);
note = dvmI.a02;
},
{
glyphname = dvmI.a03;
lastChange = "2022-10-20 15:43:06 +0000";
layers = (
{
layerId = m01;
shapes = (
{
closed = 1;
nodes = (
(254,609,l),
(352,609,l),
(375,740,l),
(276,740,l),
(305,856,o),
(408,905,o),
(555,905,cs),
(709,905,o),
(800,845,o),
(777,716,cs),
(775,702,l),
(929,702,l),
(932,720,ls),
(965,906,o),
(847,1033,o),
(578,1033,cs),
(317,1033,o),
(160,920,o),
(120,740,c),
(22,740,l),
(-1,609,l),
(97,609,l),
(-10,0,l),
(147,0,l)
);
}
);
width = 319;
}
);
note = dvmI.a03;
},
{
glyphname = dvmI.a04;
lastChange = "2022-10-20 15:43:06 +0000";
layers = (
{
layerId = m01;
shapes = (
{
closed = 1;
nodes = (
(254,609,l),
(352,609,l),
(375,740,l),
(276,740,l),
(305,856,o),
(409,906,o),
(581,906,cs),
(763,906,o),
(857,844,o),
(834,714,cs),
(831,701,l),
(985,701,l),
(988,718,ls),
(1022,906,o),
(901,1034,o),
(605,1034,cs),
(319,1034,o),
(161,922,o),
(120,740,c),
(22,740,l),
(-1,609,l),
(97,609,l),
(-10,0,l),
(147,0,l)
);
}
);
width = 319;
}
);
note = dvmI.a04;
},
{
glyphname = dvmI.a05;
lastChange = "2022-10-20 15:43:06 +0000";
layers = (
{
layerId = m01;
shapes = (
{
closed = 1;
nodes = (
(254,609,l),
(352,609,l),
(375,740,l),
(276,740,l),
(305,856,o),
(410,907,o),
(608,907,cs),
(817,907,o),
(914,844,o),
(890,713,cs),
(888,700,l),
(1042,700,l),
(1045,717,ls),
(1079,907,o),
(956,1035,o),
(632,1035,cs),
(321,1035,o),
(162,923,o),
(120,740,c),
(22,740,l),
(-1,609,l),
(97,609,l),
(-10,0,l),
(147,0,l)
);
}
);
width = 319;
}
);
note = dvmI.a05;
},
{
glyphname = dvmI.a06;
lastChange = "2022-10-20 15:43:06 +0000";
layers = (
{
layerId = m01;
shapes = (
{
closed = 1;
nodes = (
(254,609,l),
(352,609,l),
(375,740,l),
(277,740,l),
(306,856,o),
(412,908,o),
(635,908,cs),
(870,908,o),
(969,844,o),
(946,711,cs),
(944,698,l),
(1098,698,l),
(1101,715,ls),
(1135,908,o),
(1011,1036,o),
(660,1036,cs),
(324,1036,o),
(162,924,o),
(120,740,c),
(22,740,l),
(-1,609,l),
(97,609,l),
(-10,0,l),
(147,0,l)
);
}
);
width = 319;
}
);
note = dvmI.a06;
},
{
glyphname = dvmI.a07;
lastChange = "2022-10-20 15:43:06 +0000";
layers = (
{
layerId = m01;
shapes = (
{
closed = 1;
nodes = (
(254,609,l),
(352,609,l),
(375,740,l),
(277,740,l),
(306,857,o),
(414,908,o),
(662,908,cs),
(925,908,o),
(1027,845,o),
(1003,710,cs),
(1001,697,l),
(1154,697,l),
(1156,713,ls),
(1191,908,o),
(1065,1036,o),
(688,1036,cs),
(326,1036,o),
(162,926,o),
(120,740,c),
(22,740,l),
(-1,609,l),
(97,609,l),
(-10,0,l),
(147,0,l)
);
}
);
width = 319;
}
);
note = dvmI.a07;
},
{
glyphname = dvmI.a08;
lastChange = "2022-10-20 15:43:06 +0000";
layers = (
{
layerId = m01;
shapes = (
{
closed = 1;
nodes = (
(254,609,l),
(352,609,l),
(375,740,l),
(277,740,l),
(306,857,o),
(415,909,o),
(689,909,cs),
(978,909,o),
(1084,845,o),
(1059,708,cs),
(1057,697,l),
(1210,696,l),
(1213,712,ls),
(1248,909,o),
(1121,1037,o),
(715,1037,cs),
(328,1037,o),
(163,928,o),
(120,740,c),
(22,740,l),
(-1,609,l),
(97,609,l),
(-10,0,l),
(147,0,l)
);
}
);
width = 319;
}
);
note = dvmI.a08;
},
{
glyphname = dvmI.a09;
lastChange = "2022-10-20 15:43:06 +0000";
layers = (
{
layerId = m01;
shapes = (
{
closed = 1;
nodes = (
(254,609,l),
(352,609,l),
(375,740,l),
(277,740,l),
(306,857,o),
(417,910,o),
(714,910,cs),
(1031,910,o),
(1138,845,o),
(1114,706,cs),
(1112,695,l),
(1267,695,l),
(1270,710,ls),
(1305,909,o),
(1175,1038,o),
(742,1038,cs),
(330,1038,o),
(164,931,o),
(120,740,c),
(22,740,l),
(-1,609,l),
(97,609,l),
(-11,0,l),
(146,0,l)
);
}
);
width = 319;
}
);
note = dvmI.a09;
},
{
glyphname = dvmI.a10;
lastChange = "2022-10-20 15:43:06 +0000";
layers = (
{
layerId = m01;
shapes = (
{
closed = 1;
nodes = (
(254,609,l),
(352,609,l),
(375,740,l),
(277,740,l),
(306,857,o),
(418,911,o),
(741,911,cs),
(1086,911,o),
(1195,845,o),
(1171,704,cs),
(1169,694,l),
(1323,693,l),
(1325,708,ls),
(1361,910,o),
(1230,1039,o),
(769,1039,cs),
(332,1039,o),
(164,932,o),
(120,740,c),
(22,740,l),
(-1,609,l),
(97,609,l),
(-11,0,l),
(146,0,l)
);
}
);
width = 319;
}
);
note = dvmI.a10;
},
{
glyphname = dvmI.a11;
lastChange = "2022-10-20 15:43:06 +0000";
layers = (
{
layerId = m01;
shapes = (
{
closed = 1;
nodes = (
(254,609,l),
(352,609,l),
(375,740,l),
(277,740,l),
(307,858,o),
(420,912,o),
(768,912,cs),
(1140,912,o),
(1252,845,o),
(1227,703,cs),
(1225,692,l),
(1379,692,l),
(1382,707,ls),
(1418,910,o),
(1286,1040,o),
(797,1040,cs),
(334,1040,o),
(164,932,o),
(120,740,c),
(22,740,l),
(-1,609,l),
(97,609,l),
(-11,0,l),
(146,0,l)
);
}
);
width = 319;
}
);
note = dvmI.a11;
},
{
glyphname = dvmI.a12;
lastChange = "2022-10-20 15:43:06 +0000";
layers = (
{
layerId = m01;
shapes = (
{
closed = 1;
nodes = (
(254,609,l),
(352,609,l),
(375,740,l),
(277,740,l),
(307,858,o),
(423,913,o),
(795,913,cs),
(1193,913,o),
(1309,845,o),
(1284,701,cs),
(1282,691,l),
(1436,691,l),
(1439,705,ls),
(1475,911,o),
(1339,1041,o),
(825,1041,cs),
(336,1041,o),
(164,935,o),
(121,740,c),
(22,740,l),
(-1,609,l),
(97,609,l),
(-11,0,l),
(146,0,l)
);
}
);
width = 319;
}
);
note = dvmI.a12;
},
{
glyphname = dvmI.a13;
lastChange = "2022-10-20 15:43:06 +0000";
layers = (
{
layerId = m01;
shapes = (
{
closed = 1;
nodes = (
(254,609,l),
(352,609,l),
(375,740,l),
(277,740,l),
(306,858,o),
(423,914,o),
(821,914,cs),
(1247,914,o),
(1364,845,o),
(1339,700,cs),
(1337,690,l),
(1493,690,l),
(1495,703,ls),
(1532,912,o),
(1394,1042,o),
(852,1042,cs),
(339,1042,o),
(165,936,o),
(121,740,c),
(22,740,l),
(-1,609,l),
(97,609,l),
(-11,0,l),
(146,0,l)
);
}
);
width = 319;
}
);
note = dvmI.a13;
},
{
glyphname = dvmI.a14;
lastChange = "2022-10-20 15:43:06 +0000";
layers = (
{
layerId = m01;
shapes = (
{
closed = 1;
nodes = (
(253,609,l),
(351,609,l),
(375,740,l),
(277,740,l),
(307,858,o),
(426,915,o),
(848,915,cs),
(1300,915,o),
(1421,845,o),
(1395,698,cs),
(1394,689,l),
(1549,688,l),
(1552,701,ls),
(1589,913,o),
(1448,1043,o),
(880,1043,cs),
(342,1043,o),
(165,938,o),
(121,740,c),
(22,740,l),
(-2,609,l),
(96,609,l),
(-11,0,l),
(146,0,l)
);
}
);
width = 319;
}
);
note = dvmI.a14;
},
{
glyphname = dvmI.a15;
lastChange = "2022-10-20 15:43:06 +0000";
layers = (
{
layerId = m01;
shapes = (
{
closed = 1;
nodes = (
(253,609,l),
(351,609,l),
(374,740,l),
(276,740,l),
(307,859,o),
(427,916,o),
(876,916,cs),
(1354,916,o),
(1479,846,o),
(1453,696,cs),
(1451,688,l),
(1606,687,l),
(1608,700,ls),
(1646,913,o),
(1504,1044,o),
(907,1044,cs),
(342,1044,o),
(166,940,o),
(120,740,c),
(21,740,l),
(-2,609,l),
(96,609,l),
(-11,0,l),
(146,0,l)
);
}
);
width = 319;
}
);
note = dvmI.a15;
},
{
glyphname = dvmI.a16;
lastChange = "2022-10-20 15:43:06 +0000";
layers = (
{
layerId = m01;
shapes = (
{
closed = 1;
nodes = (
(253,609,l),
(351,609,l),
(374,740,l),
(276,740,l),
(307,859,o),
(432,917,o),
(903,917,cs),
(1410,917,o),
(1534,846,o),
(1507,695,cs),
(1506,687,l),
(1663,687,l),
(1665,699,ls),
(1703,914,o),
(1558,1045,o),
(934,1045,cs),
(344,1045,o),
(166,941,o),
(120,740,c),
(21,740,l),
(-2,609,l),
(96,609,l),
(-11,0,l),
(146,0,l)
);
}
);
width = 319;
}
);
note = dvmI.a16;
},
{
glyphname = dvmI.a17;
lastChange = "2022-10-20 15:43:06 +0000";
layers = (
{
layerId = m01;
shapes = (
{
closed = 1;
nodes = (
(253,609,l),
(351,609,l),
(374,740,l),
(276,740,l),
(307,860,o),
(433,918,o),
(930,918,cs),
(1463,918,o),
(1591,845,o),
(1564,693,cs),
(1563,685,l),
(1719,685,l),
(1721,697,ls),
(1759,915,o),
(1613,1046,o),
(961,1046,cs),
(347,1046,o),
(166,943,o),
(120,740,c),
(21,740,l),
(-2,609,l),
(96,609,l),
(-11,0,l),
(146,0,l)
);
}
);
width = 319;
}
);
note = dvmI.a17;
},
{
glyphname = dvmI.a18;
lastChange = "2022-10-20 15:43:06 +0000";
layers = (
{
layerId = m01;
shapes = (
{
closed = 1;
nodes = (
(253,609,l),
(351,609,l),
(374,740,l),
(276,740,l),
(308,860,o),
(436,919,o),
(957,919,cs),
(1517,919,o),
(1648,845,o),
(1621,691,cs),
(1619,684,l),
(1774,684,l),
(1776,695,ls),
(1815,915,o),
(1668,1047,o),
(988,1047,cs),
(350,1047,o),
(167,944,o),
(120,740,c),
(21,740,l),
(-2,609,l),
(96,609,l),
(-11,0,l),
(146,0,l)
);
}
);
width = 319;
}
);
note = dvmI.a18;
},
{
glyphname = dvmI.a19;
lastChange = "2022-10-20 15:43:06 +0000";
layers = (
{
layerId = m01;
shapes = (
{
closed = 1;
nodes = (
(253,609,l),
(351,609,l),
(374,740,l),
(276,740,l),
(308,860,o),
(437,920,o),
(983,920,cs),
(1570,920,o),
(1704,845,o),
(1676,690,cs),
(1675,682,l),
(1831,682,l),
(1833,694,ls),
(1872,916,o),
(1722,1048,o),
(1015,1048,cs),
(351,1048,o),
(167,945,o),
(120,740,c),
(21,740,l),
(-2,609,l),
(96,609,l),
(-11,0,l),
(146,0,l)
);
}
);
width = 319;
}
);
note = dvmI.a19;
},
{
glyphname = dvmI.a20;
lastChange = "2022-10-20 15:43:06 +0000";
layers = (
{
layerId = m01;
shapes = (
{
closed = 1;
nodes = (
(253,609,l),
(351,609,l),
(374,740,l),
(276,740,l),
(309,860,o),
(440,921,o),
(1009,921,cs),
(1624,921,o),
(1760,846,o),
(1732,687,cs),
(1731,682,l),
(1888,681,l),
(1889,691,ls),
(1929,917,o),
(1777,1049,o),
(1043,1049,cs),
(353,1049,o),
(167,947,o),
(120,740,c),
(21,740,l),
(-2,609,l),
(96,609,l),
(-11,0,l),
(146,0,l)
);
}
);
width = 319;
}
);
note = dvmI.a20;
},
{
glyphname = dvmI.a21;
lastChange = "2022-10-20 15:43:06 +0000";
layers = (
{
layerId = m01;
shapes = (
{
closed = 1;
nodes = (
(253,609,l),
(351,609,l),
(374,740,l),
(276,740,l),
(309,860,o),
(441,921,o),
(1036,921,cs),
(1678,921,o),
(1818,846,o),
(1789,686,cs),
(1788,680,l),
(1943,680,l),
(1945,690,ls),
(1985,917,o),
(1831,1049,o),
(1070,1049,cs),
(355,1049,o),
(168,948,o),
(120,740,c),
(21,740,l),
(-2,609,l),
(96,609,l),
(-11,0,l),
(146,0,l)
);
}
);
width = 319;
}
);
note = dvmI.a21;
},
{
glyphname = dvmI.a22;
lastChange = "2022-10-20 15:43:06 +0000";
layers = (
{
layerId = m01;
shapes = (
{
closed = 1;
nodes = (
(253,609,l),
(351,609,l),
(374,740,l),
(276,740,l),
(309,860,o),
(443,922,o),
(1063,922,cs),
(1731,922,o),
(1874,845,o),
(1846,684,cs),
(1845,679,l),
(2000,678,l),
(2002,688,ls),
(2042,918,o),
(1887,1050,o),
(1098,1050,cs),
(358,1050,o),
(168,950,o),
(120,740,c),
(21,740,l),
(-2,609,l),
(96,609,l),
(-12,0,l),
(145,0,l)
);
}
);
width = 319;
}
);
note = dvmI.a22;
},
{
glyphname = dvmI.a23;
lastChange = "2022-10-20 15:43:06 +0000";
layers = (
{
layerId = m01;
shapes = (
{
closed = 1;
nodes = (
(253,609,l),
(351,609,l),
(374,740,l),
(276,740,l),
(309,862,o),
(445,923,o),
(1089,923,cs),
(1786,923,o),
(1930,846,o),
(1901,683,cs),
(1900,677,l),
(2058,677,l),
(2059,686,ls),
(2100,919,o),
(1941,1051,o),
(1125,1051,cs),
(362,1051,o),
(169,951,o),
(120,740,c),
(21,740,l),
(-2,609,l),
(96,609,l),
(-12,0,l),
(145,0,l)
);
}
);
width = 319;
}
);
note = dvmI.a23;
},
{
glyphname = dvmI.a24;
lastChange = "2022-10-20 15:43:06 +0000";
layers = (
{
layerId = m01;
shapes = (
{
closed = 1;
nodes = (
(253,609,l),
(351,609,l),
(374,740,l),
(276,740,l),
(310,862,o),
(448,924,o),
(1116,924,cs),
(1839,924,o),
(1986,846,o),
(1957,681,cs),
(1956,676,l),
(2113,676,l),
(2115,685,ls),
(2156,920,o),
(1996,1052,o),
(1153,1052,cs),
(362,1052,o),
(169,953,o),
(120,740,c),
(21,740,l),
(-2,609,l),
(96,609,l),
(-12,0,l),
(145,0,l)
);
}
);
width = 319;
}
);
note = dvmI.a24;
},
{
glyphname = exclam;
lastChange = "2022-10-20 15:43:06 +0000";
layers = (
{
layerId = m01;
shapes = (
{
closed = 1;
nodes = (
(102,248,l),
(247,248,l),
(352,727,l),
(167,727,l)
);
},
{
closed = 1;
nodes = (
(259,137,o),
(225,178,o),
(165,178,cs),
(104,178,o),
(56,137,o),
(46,84,cs),
(37,33,o),
(71,-8,o),
(132,-8,cs),
(192,-8,o),
(240,33,o),
(249,84,cs)
);
}
);
width = 392;
}
);
note = exclam;
unicode = 33;
},
{
glyphname = quotedbl;
lastChange = "2022-10-20 15:43:06 +0000";
layers = (
{
layerId = m01;
shapes = (
{
closed = 1;
nodes = (
(34,579,l),
(149,579,l),
(200,800,l),
(59,800,l)
);
},
{
closed = 1;
nodes = (
(224,579,l),
(339,579,l),
(390,800,l),
(249,800,l)
);
}
);
width = 411;
}
);
note = quotedbl;
unicode = 34;
},
{
glyphname = numbersign;
lastChange = "2022-10-20 15:43:06 +0000";
layers = (
{
layerId = m01;
shapes = (
{
closed = 1;
nodes = (
(516,307,l),
(350,307,l),
(401,438,l),
(567,438,l)
);
},
{
closed = 1;
nodes = (
(396,0,l),
(556,0,l),
(616,153,l),
(769,153,l),
(796,307,l),
(676,307,l),
(727,438,l),
(883,438,l),
(910,592,l),
(786,592,l),
(844,740,l),
(684,740,l),
(626,592,l),
(460,592,l),
(518,740,l),
(358,740,l),
(300,592,l),
(123,592,l),
(96,438,l),
(241,438,l),
(190,307,l),
(9,307,l),
(-18,153,l),
(130,153,l),
(70,0,l),
(230,0,l),
(290,153,l),
(456,153,l)
);
}
);
width = 904;
}
);
note = numbersign;
unicode = 35;
},
{
glyphname = dollar;
lastChange = "2022-10-20 15:43:06 +0000";
layers = (
{
layerId = m01;
shapes = (
{
closed = 1;
nodes = (
(208,-87,l),
(272,-87,l),
(286,-6,l),
(445,1,o),
(548,96,o),
(567,204,cs),
(594,359,o),
(462,388,o),
(361,418,c),
(388,573,l),
(414,563,o),
(429,540,o),
(427,503,c),
(610,503,l),
(623,630,o),
(547,700,o),
(412,711,c),
(426,792,l),
(362,792,l),
(348,711,l),
(211,702,o),
(93,628,o),
(71,503,cs),
(43,346,o),
(172,316,o),
(274,288,c),
(246,130,l),
(214,141,o),
(198,166,o),
(201,207,c),
(19,207,l),
(2,78,o),
(88,7,o),
(222,-5,c)
);
},
{
closed = 1;
nodes = (
(380,161,o),
(350,134,o),
(309,127,c),
(334,269,l),
(371,254,o),
(393,234,o),
(387,198,cs)
);
},
{
closed = 1;
nodes = (
(260,550,o),
(287,572,o),
(325,578,c),
(300,439,l),
(267,455,o),
(247,476,o),
(253,511,cs)
);
}
);
width = 658;
}
);
note = dollar;
unicode = 36;
},
{
glyphname = percent;
lastChange = "2022-10-20 15:43:06 +0000";
layers = (
{
layerId = m01;
shapes = (
{
closed = 1;
nodes = (
(46,435,o),
(107,377,o),
(202,377,cs),
(297,377,o),
(379,435,o),
(398,546,cs),
(418,657,o),
(357,715,o),
(262,715,cs),
(167,715,o),
(85,657,o),
(65,546,cs)
);
},
{
closed = 1;
nodes = (
(273,615,o),
(289,594,o),
(280,546,cs),
(272,499,o),
(249,478,o),
(219,478,cs),
(189,478,o),
(175,499,o),
(183,546,cs),
(192,594,o),
(213,615,o),
(243,615,cs)
);
},
{
closed = 1;
nodes = (
(98,0,l),
(263,0,l),
(772,704,l),
(607,704,l)
);
},
{
closed = 1;
nodes = (
(453,47,o),
(514,-11,o),
(609,-11,cs),
(704,-11,o),
(785,47,o),
(805,158,cs),
(825,270,o),
(764,327,o),
(669,327,cs),
(574,327,o),
(493,270,o),
(473,158,cs)
);
},
{
closed = 1;
nodes = (
(680,227,o),
(695,205,o),
(687,158,cs),
(679,111,o),
(656,90,o),
(626,90,cs),
(596,90,o),
(582,111,o),
(590,158,cs),
(598,205,o),
(620,227,o),
(650,227,cs)
);
}
);
width = 870;
}
);
note = percent;
unicode = 37;
},
{
glyphname = ampersand;
lastChange = "2022-10-20 15:43:06 +0000";
layers = (
{
layerId = m01;
shapes = (
{
closed = 1;
nodes = (
(592,532,l),
(612,629,o),
(556,716,o),
(413,716,cs),
(273,716,o),
(180,636,o),
(163,537,cs),
(155,492,o),
(161,454,o),
(189,411,c),
(84,365,o),
(25,290,o),
(10,204,cs),
(-13,74,o),
(75,-11,o),
(238,-11,cs),
(330,-11,o),
(410,14,o),
(483,63,c),
(537,0,l),
(736,0,l),
(596,166,l),
(624,199,o),
(651,236,o),
(678,278,c),
(741,365,l),
(570,365,l),
(522,302,l),
(516,292,o),
(510,283,o),
(504,274,c),
(363,441,ls),
(332,480,o),
(319,509,o),
(324,538,cs),
(329,568,o),
(357,588,o),
(389,588,cs),
(419,588,o),
(438,570,o),
(431,532,c)
);
},
{
closed = 1;
nodes = (
(202,127,o),
(168,167,o),
(177,216,cs),
(184,256,o),
(214,291,o),
(267,316,c),
(396,165,l),
(358,140,o),
(316,127,o),
(270,127,cs)
);
}
);
width = 798;
}
);
note = ampersand;
unicode = 38;
},
{
glyphname = quotesingle;
lastChange = "2022-10-20 15:43:06 +0000";
layers = (
{
layerId = m01;
shapes = (
{
closed = 1;
nodes = (
(34,579,l),
(149,579,l),
(200,800,l),
(59,800,l)
);
}
);
width = 221;
}
);
note = quotesingle;
unicode = 39;
},
{
glyphname = parenleft;
lastChange = "2022-10-20 15:43:06 +0000";
layers = (
{
layerId = m01;
shapes = (
{
closed = 1;
nodes = (
(362,-209,l),
(365,-193,l),
(255,-54,o),
(215,145,o),
(250,348,cs),
(286,549,o),
(398,756,o),
(566,897,c),
(569,913,l),
(401,913,l),
(240,786,o),
(126,574,o),
(86,348,cs),
(46,122,o),
(86,-85,o),
(193,-209,c)
);
}
);
width = 477;
}
);
note = parenleft;
unicode = 40;
},
{
glyphname = parenright;
lastChange = "2022-10-20 15:43:06 +0000";
layers = (
{
layerId = m01;
shapes = (
{
closed = 1;
nodes = (
(-83,-209,l),
(-80,-193,l),
(78,-54,o),
(190,145,o),
(225,348,cs),
(261,549,o),
(221,756,o),
(103,897,c),
(106,913,l),
(274,913,l),
(391,786,o),
(429,574,o),
(389,348,cs),
(349,122,o),
(237,-85,o),
(86,-209,c)
);
}
);
width = 477;
}
);
note = parenright;
unicode = 41;
},
{
glyphname = asterisk;
lastChange = "2022-10-20 15:43:06 +0000";
layers = (
{
layerId = m01;
shapes = (
{
closed = 1;
nodes = (
(363,740,l),
(244,740,l),
(246,608,l),
(158,695,l),
(82,592,l),
(197,552,l),
(67,509,l),
(110,401,l),
(224,490,l),
(177,360,l),
(294,360,l),
(292,490,l),
(377,402,l),
(456,508,l),
(340,550,l),
(471,593,l),
(433,695,l),
(313,608,l)
);
}
);
width = 534;
}
);
note = asterisk;
unicode = 42;
},
{
glyphname = plus;
lastChange = "2022-10-20 15:43:06 +0000";
layers = (
{
layerId = m01;
shapes = (
{
closed = 1;
nodes = (
(278,605,l),
(246,426,l),
(72,426,l),
(45,273,l),
(219,273,l),
(188,95,l),
(350,95,l),
(381,273,l),
(555,273,l),
(582,426,l),
(408,426,l),
(440,605,l)
);
}
);
width = 628;
}
);
note = plus;
unicode = 43;
},
{
glyphname = comma;
lastChange = "2022-10-20 15:43:06 +0000";
layers = (
{
layerId = m01;
shapes = (
{
closed = 1;
nodes = (
(-10,-151,l),
(102,-151,l),
(287,173,l),
(112,173,l)
);
}
);
width = 290;
}
);
note = comma;
unicode = 44;
},
{
glyphname = hyphen;
lastChange = "2022-10-20 15:43:06 +0000";
layers = (
{
layerId = m01;
shapes = (
{
closed = 1;
nodes = (
(39,280,l),
(479,280,l),
(505,422,l),
(65,422,l)
);
}
);
width = 580;
}
);
note = hyphen;
unicode = 45;
},
{
glyphname = period;
lastChange = "2022-10-20 15:43:06 +0000";
layers = (
{
layerId = m01;
shapes = (
{
closed = 1;
nodes = (
(252,137,o),
(218,178,o),
(158,178,cs),
(97,178,o),
(49,137,o),
(40,84,cs),
(31,33,o),
(65,-8,o),
(126,-8,cs),
(186,-8,o),
(234,33,o),
(243,84,cs)
);
}
);
width = 282;
}
);
note = period;
unicode = 46;
},
{
glyphname = slash;
lastChange = "2022-10-20 15:43:06 +0000";
layers = (
{
layerId = m01;
shapes = (
{
closed = 1;
nodes = (
(-90,-187,l),
(75,-187,l),
(543,950,l),
(378,950,l)
);
}
);
width = 453;
}
);
note = slash;
unicode = 47;
},
{
glyphname = zero;
lastChange = "2022-10-20 15:43:06 +0000";
layers = (
{
layerId = m01;
shapes = (
{
closed = 1;
nodes = (
(7,159,o),
(53,3,o),
(261,3,cs),
(469,3,o),
(569,159,o),
(607,375,cs),
(645,589,o),
(599,745,o),
(391,745,cs),
(183,745,o),
(83,589,o),
(45,375,cs)
);
},
{
closed = 1;
nodes = (
(419,259,o),
(390,163,o),
(289,163,cs),
(188,163,o),
(193,259,o),
(213,375,cs),
(233,487,o),
(262,585,o),
(363,585,cs),
(464,585,o),
(459,487,o),
(439,375,cs)
);
}
);
width = 652;
}
);
note = zero;
unicode = 48;
},
{
glyphname = one;
lastChange = "2022-10-20 15:43:06 +0000";
layers = (
{
layerId = m01;
shapes = (
{
closed = 1;
nodes = (
(63,10,ls),
(62,4,o),
(66,0,o),
(72,0,cs),
(230,0,ls),
(236,0,o),
(240,4,o),
(241,10,cs),
(362,695,ls),
(366,717,o),
(355,730,o),
(333,730,cs),
(128,730,l),
(63,571,l),
(127,571,ls),
(149,571,o),
(160,558,o),
(156,536,cs)
);
}
);
width = 376;
}
);
note = one;
unicode = 49;
},
{
glyphname = two;
lastChange = "2022-10-20 15:43:06 +0000";
layers = (
{
layerId = m01;
shapes = (
{
closed = 1;
nodes = (
(-26,10,l),
(466,10,ls),
(472,10,o),
(477,14,o),
(478,20,cs),
(494,114,ls),
(498,136,o),
(488,149,o),
(466,149,cs),
(231,149,l),
(362,238,o),
(528,366,o),
(556,526,cs),
(578,649,o),
(521,746,o),
(355,746,cs),
(225,746,o),
(99,673,o),
(59,503,cs),
(58,497,o),
(61,493,o),
(67,493,cs),
(188,493,ls),
(210,493,o),
(223,505,o),
(231,527,cs),
(248,575,o),
(280,602,o),
(322,602,cs),
(374,602,o),
(393,568,o),
(383,515,cs),
(361,392,o),
(174,265,o),
(-3,137,c)
);
}
);
width = 571;
}
);
note = two;
unicode = 50;
},
{
glyphname = three;
lastChange = "2022-10-20 15:43:06 +0000";
layers = (
{
layerId = m01;
shapes = (
{
closed = 1;
nodes = (
(213,524,ls),
(234,524,o),
(246,535,o),
(257,555,cs),
(271,582,o),
(297,604,o),
(337,604,cs),
(383,604,o),
(407,577,o),
(399,528,cs),
(387,462,o),
(329,448,o),
(271,448,cs),
(250,448,o),
(236,435,o),
(232,413,cs),
(220,344,ls),
(216,322,o),
(226,309,o),
(246,309,cs),
(335,309,o),
(370,283,o),
(358,218,cs),
(350,170,o),
(315,136,o),
(262,136,cs),
(212,136,o),
(186,160,o),
(182,199,cs),
(180,220,o),
(171,231,o),
(150,231,cs),
(27,231,ls),
(21,231,o),
(17,227,o),
(16,221,cs),
(-2,63,o),
(94,-6,o),
(243,-6,cs),
(396,-6,o),
(499,82,o),
(521,205,cs),
(538,301,o),
(498,357,o),
(429,381,c),
(430,385,l),
(483,402,o),
(552,453,o),
(568,549,cs),
(588,659,o),
(520,747,o),
(366,747,cs),
(221,747,o),
(115,672,o),
(81,534,cs),
(79,528,o),
(82,524,o),
(88,524,cs)
);
}
);
width = 605;
}
);
note = three;
unicode = 51;
},
{
glyphname = four;
lastChange = "2022-10-20 15:43:06 +0000";
layers = (
{
layerId = m01;
shapes = (
{
closed = 1;
nodes = (
(323,10,ls),
(322,4,o),
(326,0,o),
(332,0,cs),
(483,0,ls),
(489,0,o),
(493,4,o),
(494,10,cs),
(515,130,l),
(587,130,ls),
(593,130,o),
(598,134,o),
(599,140,cs),
(622,268,ls),
(623,274,o),
(620,278,o),
(614,278,cs),
(577,278,ls),
(555,278,o),
(544,291,o),
(548,313,cs),
(618,710,ls),
(619,716,o),
(615,720,o),
(609,720,cs),
(428,720,l),
(33,268,l),
(8,130,l),
(344,130,l)
);
},
{
closed = 1;
nodes = (
(215,278,l),
(427,532,l),
(383,278,l)
);
}
);
width = 677;
}
);
note = four;
unicode = 52;
},
{
glyphname = five;
lastChange = "2022-10-20 15:43:06 +0000";
layers = (
{
layerId = m01;
shapes = (
{
closed = 1;
nodes = (
(166,731,ls),
(160,731,o),
(156,727,o),
(155,721,cs),
(80,296,l),
(245,296,l),
(260,330,o),
(292,356,o),
(340,356,cs),
(401,356,o),
(428,321,o),
(417,255,cs),
(405,192,o),
(369,145,o),
(304,145,cs),
(248,145,o),
(225,179,o),
(225,217,c),
(58,217,l),
(42,91,o),
(121,0,o),
(285,0,cs),
(447,0,o),
(554,100,o),
(581,254,cs),
(602,372,o),
(562,493,o),
(403,493,cs),
(345,493,o),
(292,472,o),
(261,443,c),
(285,581,l),
(562,581,ls),
(584,581,o),
(599,594,o),
(603,616,cs),
(622,721,ls),
(623,727,o),
(619,731,o),
(613,731,cs)
);
}
);
width = 650;
}
);
note = five;
unicode = 53;
},
{
glyphname = six;
lastChange = "2022-10-20 15:43:06 +0000";
layers = (
{
layerId = m01;
shapes = (
{
closed = 1;
nodes = (
(594,533,l),
(604,641,o),
(552,745,o),
(395,745,cs),
(206,745,o),
(106,620,o),
(62,370,cs),
(23,152,o),
(50,-4,o),
(270,-4,cs),
(427,-4,o),
(537,96,o),
(562,241,cs),
(589,393,o),
(514,476,o),
(387,476,cs),
(320,476,o),
(256,448,o),
(218,401,c),
(244,542,o),
(286,607,o),
(363,607,cs),
(414,607,o),
(433,581,o),
(435,533,c)
);
},
{
closed = 1;
nodes = (
(386,341,o),
(412,301,o),
(401,240,cs),
(390,178,o),
(347,141,o),
(289,141,cs),
(224,141,o),
(193,179,o),
(205,243,cs),
(216,309,o),
(268,341,o),
(322,341,cs)
);
}
);
width = 637;
}
);
note = six;
unicode = 54;
},
{
glyphname = seven;
lastChange = "2022-10-20 15:43:06 +0000";
layers = (
{
layerId = m01;
shapes = (
{
closed = 1;
nodes = (
(102,729,ls),
(96,729,o),
(92,725,o),
(91,719,cs),
(73,618,ls),
(69,596,o),
(80,583,o),
(102,583,cs),
(333,583,ls),
(359,583,o),
(367,566,o),
(352,542,cs),
(28,12,ls),
(24,5,o),
(27,0,o),
(34,0,cs),
(188,0,ls),
(193,0,o),
(197,2,o),
(200,8,cs),
(553,602,l),
(574,719,ls),
(575,725,o),
(571,729,o),
(565,729,cs)
);
}
);
width = 535;
}
);
note = seven;
unicode = 55;
},
{
glyphname = eight;
lastChange = "2022-10-20 15:43:06 +0000";
layers = (
{
layerId = m01;
shapes = (
{
closed = 1;
nodes = (
(94,359,o),
(42,297,o),
(27,214,cs),
(2,68,o),
(108,-14,o),
(257,-14,cs),
(406,-14,o),
(542,68,o),
(567,214,cs),
(582,297,o),
(552,358,o),
(487,392,c),
(547,421,o),
(595,474,o),
(608,549,cs),
(627,653,o),
(563,745,o),
(391,745,cs),
(219,745,o),
(122,653,o),
(103,549,cs),
(90,472,o),
(119,422,o),
(170,392,c)
);
},
{
closed = 1;
nodes = (
(288,438,o),
(256,469,o),
(266,522,cs),
(275,578,o),
(316,609,o),
(367,609,cs),
(418,609,o),
(447,578,o),
(438,523,cs),
(428,470,o),
(386,438,o),
(337,438,cs)
);
},
{
closed = 1;
nodes = (
(377,318,o),
(412,282,o),
(402,222,cs),
(392,168,o),
(347,126,o),
(282,126,cs),
(216,126,o),
(184,167,o),
(194,222,cs),
(205,284,o),
(255,318,o),
(316,318,cs)
);
}
);
width = 648;
}
);
note = eight;
unicode = 56;
},
{
glyphname = nine;
lastChange = "2022-10-20 15:43:06 +0000";
layers = (
{
layerId = m01;
shapes = (
{
closed = 1;
nodes = (
(53,214,ls),
(47,214,o),
(42,210,o),
(42,204,cs),
(35,96,o),
(95,-3,o),
(249,-3,cs),
(445,-3,o),
(527,135,o),
(571,384,cs),
(610,606,o),
(577,747,o),
(369,747,cs),
(214,747,o),
(101,651,o),
(75,503,cs),
(48,348,o),
(130,270,o),
(255,270,cs),
(317,270,o),
(375,294,o),
(411,335,c),
(387,196,o),
(351,135,o),
(279,135,cs),
(237,135,o),
(213,152,o),
(205,185,cs),
(200,204,o),
(190,214,o),
(170,214,cs)
);
},
{
closed = 1;
nodes = (
(251,405,o),
(226,446,o),
(236,501,cs),
(247,562,o),
(289,600,o),
(348,600,cs),
(406,600,o),
(438,565,o),
(427,500,cs),
(416,441,o),
(374,405,o),
(318,405,cs)
);
}
);
width = 615;
}
);
note = nine;
unicode = 57;
},
{
glyphname = colon;
lastChange = "2022-10-20 15:43:06 +0000";
layers = (
{
layerId = m01;
shapes = (
{
closed = 1;
nodes = (
(216,137,o),
(183,178,o),
(123,178,cs),
(62,178,o),
(13,137,o),
(4,84,cs),
(-5,33,o),
(29,-8,o),
(90,-8,cs),
(150,-8,o),
(198,33,o),
(207,84,cs)
);
},
{
closed = 1;
nodes = (
(288,544,o),
(254,585,o),
(194,585,cs),
(133,585,o),
(85,544,o),
(76,491,cs),
(67,440,o),
(100,399,o),
(161,399,cs),
(221,399,o),
(270,440,o),
(279,491,cs)
);
}
);
width = 284;
}
);
note = colon;
unicode = 58;
},
{
glyphname = semicolon;
lastChange = "2022-10-20 15:43:06 +0000";
layers = (
{
layerId = m01;
shapes = (
{
closed = 1;
nodes = (
(329,536,o),
(295,577,o),
(235,577,cs),
(174,577,o),
(126,536,o),
(117,483,cs),
(108,432,o),
(141,391,o),
(202,391,cs),
(262,391,o),
(311,432,o),
(320,483,cs)
);
},
{
closed = 1;
nodes = (
(-21,-151,l),
(91,-151,l),
(275,173,l),
(100,173,l)
);
}
);
width = 347;
}
);
note = semicolon;
unicode = 59;
},
{
glyphname = less;
lastChange = "2022-10-20 15:43:06 +0000";
layers = (
{
layerId = m01;
shapes = (
{
closed = 1;
nodes = (
(271,350,l),
(514,571,l),
(299,571,l),
(57,350,l),
(221,129,l),
(436,129,l)
);
}
);
width = 551;
}
);
note = less;
unicode = 60;
},
{
glyphname = equal;
lastChange = "2022-10-20 15:43:06 +0000";
layers = (
{
layerId = m01;
shapes = (
{
closed = 1;
nodes = (
(32,147,l),
(592,147,l),
(619,298,l),
(59,298,l)
);
},
{
closed = 1;
nodes = (
(77,402,l),
(637,402,l),
(664,553,l),
(104,553,l)
);
}
);
width = 696;
}
);
note = equal;
unicode = 61;
},
{
glyphname = greater;
lastChange = "2022-10-20 15:43:06 +0000";
layers = (
{
layerId = m01;
shapes = (
{
closed = 1;
nodes = (
(24,129,l),
(239,129,l),
(481,350,l),
(317,571,l),
(102,571,l),
(267,350,l)
);
}
);
width = 541;
}
);
note = greater;
unicode = 62;
},
{
glyphname = question;
lastChange = "2022-10-20 15:43:06 +0000";
layers = (
{
layerId = m01;
shapes = (
{
closed = 1;
nodes = (
(217,525,l),
(225,571,o),
(257,601,o),
(306,601,cs),
(350,601,o),
(373,573,o),
(365,528,cs),
(354,455,o),
(286,438,o),
(192,438,cs),
(132,438,l),
(104,252,l),
(254,252,l),
(272,327,l),
(403,328,o),
(509,398,o),
(531,527,cs),
(556,666,o),
(472,741,o),
(333,741,cs),
(175,741,o),
(74,645,o),
(56,525,c)
);
},
{
closed = 1;
nodes = (
(262,137,o),
(228,178,o),
(168,178,cs),
(107,178,o),
(59,137,o),
(49,84,cs),
(40,33,o),
(74,-8,o),
(135,-8,cs),
(195,-8,o),
(243,33,o),
(252,84,cs)
);
}
);
width = 538;
}
);
note = question;
unicode = 63;
},
{
glyphname = at;
lastChange = "2022-10-20 15:43:06 +0000";
layers = (
{
layerId = m01;
shapes = (
{
closed = 1;
nodes = (
(878,-5,o),
(994,146,o),
(1023,313,cs),
(1060,523,o),
(937,668,o),
(697,668,cs),
(385,668,o),
(112,440,o),
(57,133,cs),
(19,-85,o),
(145,-225,o),
(375,-225,cs),
(455,-225,o),
(532,-211,o),
(603,-182,c),
(595,-73,l),
(541,-96,o),
(476,-109,o),
(412,-109,cs),
(243,-109,o),
(160,-15,o),
(189,146,cs),
(229,373,o),
(430,553,o),
(659,553,cs),
(834,553,o),
(919,460,o),
(892,308,cs),
(876,214,o),
(826,105,o),
(757,105,cs),
(718,105,o),
(719,135,o),
(735,181,cs),
(823,432,l),
(685,432,l),
(667,379,l),
(654,417,o),
(620,439,o),
(563,439,cs),
(426,439,o),
(308,305,o),
(282,159,cs),
(264,56,o),
(313,-7,o),
(412,-7,cs),
(482,-7,o),
(548,23,o),
(594,75,c),
(601,25,o),
(643,-5,o),
(714,-5,cs)
);
},
{
closed = 1;
nodes = (
(605,172,o),
(546,116,o),
(489,116,cs),
(444,116,o),
(428,146,o),
(435,189,cs),
(447,257,o),
(500,317,o),
(560,317,cs),
(605,317,o),
(625,285,o),
(617,240,cs)
);
}
);
width = 1080;
}
);
note = at;
unicode = 64;
},
{
glyphname = A;
lastChange = "2022-10-20 15:43:06 +0000";
layers = (
{
layerId = m01;
shapes = (
{
closed = 1;
nodes = (
(474,29,ls),
(477,10,o),
(489,0,o),
(509,0,cs),
(648,0,ls),
(655,0,o),
(659,4,o),
(658,11,cs),
(535,674,ls),
(531,693,o),
(520,702,o),
(500,702,cs),
(362,702,ls),
(342,702,o),
(327,693,o),
(317,674,cs),
(-40,11,ls),
(-43,4,o),
(-41,0,o),
(-34,0,cs),
(103,0,ls),
(123,0,o),
(139,10,o),
(148,29,cs),
(193,116,ls),
(195,121,o),
(201,124,o),
(206,124,cs),
(450,124,ls),
(455,124,o),
(459,121,o),
(461,116,cs)
);
},
{
closed = 1;
nodes = (
(436,267,ls),
(437,260,o),
(433,256,o),
(426,256,cs),
(277,256,ls),
(270,256,o),
(268,260,o),
(271,267,cs),
(387,494,ls),
(392,503,o),
(399,503,o),
(400,494,cs)
);
}
);
width = 737;
}
);
note = A;
unicode = 65;
},
{
glyphname = B;
lastChange = "2022-10-20 15:43:06 +0000";
layers = (
{
layerId = m01;
shapes = (
{
closed = 1;
nodes = (
(416,164,o),
(378,138,o),
(321,138,cs),
(195,138,l),
(217,258,ls),
(220,280,o),
(236,293,o),
(258,293,cs),
(347,293,ls),
(404,293,o),
(434,264,o),
(425,214,cs)
);
},
{
closed = 1;
nodes = (
(448,443,o),
(413,418,o),
(357,418,cs),
(245,418,l),
(265,530,ls),
(268,552,o),
(284,565,o),
(306,565,cs),
(383,565,ls),
(439,565,o),
(465,539,o),
(457,491,cs)
);
},
{
closed = 1;
nodes = (
(608,271,o),
(568,343,o),
(489,360,c),
(560,380,o),
(621,435,o),
(636,520,cs),
(655,631,o),
(583,702,o),
(440,702,cs),
(134,702,ls),
(128,702,o),
(123,698,o),
(122,692,cs),
(2,10,ls),
(1,4,o),
(4,0,o),
(10,0,cs),
(327,0,ls),
(475,0,o),
(573,75,o),
(594,191,cs)
);
}
);
width = 659;
}
);
note = B;
unicode = 66;
},
{
glyphname = C;
lastChange = "2022-10-20 15:43:06 +0000";
layers = (
{
layerId = m01;
shapes = (
{
closed = 1;
nodes = (
(-4,142,o),
(116,-5,o),
(323,-5,cs),
(470,-5,o),
(598,67,o),
(672,188,cs),
(690,219,o),
(677,240,o),
(644,240,cs),
(519,240,ls),
(514,240,o),
(510,238,o),
(506,233,cs),
(467,178,o),
(410,150,o),
(348,150,cs),
(243,150,o),
(185,228,o),
(207,352,cs),
(229,476,o),
(315,554,o),
(420,554,cs),
(482,554,o),
(529,526,o),
(548,471,cs),
(550,466,o),
(554,464,o),
(559,464,cs),
(684,464,ls),
(717,464,o),
(737,485,o),
(730,516,cs),
(698,637,o),
(596,710,o),
(449,710,cs),
(242,710,o),
(70,562,o),
(33,352,cs)
);
}
);
width = 762;
}
);
note = C;
unicode = 67;
},
{
glyphname = D;
lastChange = "2022-10-20 15:43:06 +0000";
layers = (
{
layerId = m01;
shapes = (
{
closed = 1;
nodes = (
(139,702,ls),
(130,702,o),
(123,696,o),
(121,687,cs),
(3,15,ls),
(1,6,o),
(6,0,o),
(15,0,cs),
(263,0,ls),
(487,0,o),
(656,143,o),
(693,351,cs),
(730,560,o),
(611,702,o),
(387,702,cs)
);
},
{
closed = 1;
nodes = (
(197,148,l),
(263,521,ls),
(267,543,o),
(282,556,o),
(304,556,cs),
(350,556,ls),
(479,556,o),
(542,480,o),
(519,351,cs),
(496,222,o),
(407,148,o),
(278,148,cs)
);
}
);
width = 727;
}
);
note = D;
unicode = 68;
},
{
glyphname = E;
lastChange = "2022-10-20 15:43:06 +0000";
layers = (
{
layerId = m01;
shapes = (
{
closed = 1;
nodes = (
(551,687,ls),
(553,696,o),
(548,702,o),
(539,702,cs),
(139,702,ls),
(130,702,o),
(123,696,o),
(121,687,cs),
(3,15,ls),
(1,6,o),
(6,0,o),
(15,0,cs),
(415,0,ls),
(424,0,o),
(431,6,o),
(433,15,cs),
(448,102,ls),
(452,124,o),
(441,137,o),
(419,137,cs),
(230,137,ls),
(208,137,o),
(198,150,o),
(201,172,cs),
(220,276,ls),
(221,285,o),
(228,291,o),
(237,291,cs),
(436,291,ls),
(445,291,o),
(452,297,o),
(454,306,cs),
(472,408,ls),
(474,417,o),
(469,423,o),
(460,423,cs),
(261,423,ls),
(252,423,o),
(247,429,o),
(248,438,cs),
(265,530,ls),
(268,552,o),
(284,565,o),
(306,565,cs),
(495,565,ls),
(517,565,o),
(532,578,o),
(536,600,cs)
);
}
);
width = 541;
}
);
note = E;
unicode = 69;
},
{
glyphname = F;
lastChange = "2022-10-20 15:43:06 +0000";
layers = (
{
layerId = m01;
shapes = (
{
closed = 1;
nodes = (
(2,10,ls),
(1,4,o),
(4,0,o),
(10,0,cs),
(161,0,ls),
(167,0,o),
(172,4,o),
(173,10,cs),
(219,274,ls),
(220,280,o),
(225,284,o),
(231,284,cs),
(425,284,ls),
(431,284,o),
(436,288,o),
(437,294,cs),
(457,407,ls),
(458,413,o),
(455,417,o),
(449,417,cs),
(255,417,ls),
(249,417,o),
(245,421,o),
(246,427,cs),
(265,530,ls),
(268,552,o),
(284,565,o),
(306,565,cs),
(522,565,ls),
(544,565,o),
(559,578,o),
(563,600,cs),
(579,692,ls),
(580,698,o),
(577,702,o),
(571,702,cs),
(159,702,ls),
(137,702,o),
(122,689,o),
(118,667,cs)
);
}
);
width = 547;
}
);
note = F;
unicode = 70;
},
{
glyphname = G;
lastChange = "2022-10-20 15:43:06 +0000";
layers = (
{
layerId = m01;
shapes = (
{
closed = 1;
nodes = (
(243,710,o),
(70,562,o),
(33,352,cs),
(-4,142,o),
(118,-5,o),
(328,-5,cs),
(513,-5,o),
(651,116,o),
(709,237,c),
(735,386,ls),
(736,392,o),
(733,396,o),
(727,396,cs),
(400,396,ls),
(378,396,o),
(362,383,o),
(358,361,cs),
(344,280,ls),
(343,274,o),
(346,270,o),
(352,270,cs),
(559,270,l),
(520,191,o),
(453,146,o),
(368,146,cs),
(245,146,o),
(184,222,o),
(207,352,cs),
(228,474,o),
(315,552,o),
(425,552,cs),
(478,552,o),
(517,535,o),
(539,502,cs),
(549,487,o),
(558,480,o),
(577,480,cs),
(727,480,ls),
(734,480,o),
(739,484,o),
(738,491,cs),
(723,628,o),
(617,710,o),
(453,710,cs)
);
}
);
width = 762;
}
);
note = G;
unicode = 71;
},
{
glyphname = H;
lastChange = "2022-10-20 15:43:06 +0000";
layers = (
{
layerId = m01;
shapes = (
{
closed = 1;
nodes = (
(443,35,ls),
(439,13,o),
(450,0,o),
(472,0,cs),
(598,0,ls),
(604,0,o),
(609,4,o),
(610,10,cs),
(730,692,ls),
(731,698,o),
(728,702,o),
(722,702,cs),
(571,702,ls),
(565,702,o),
(560,698,o),
(559,692,cs),
(519,462,ls),
(515,440,o),
(499,427,o),
(477,427,cs),
(256,427,ls),
(250,427,o),
(247,431,o),
(248,437,cs),
(289,667,ls),
(293,689,o),
(282,702,o),
(260,702,cs),
(134,702,ls),
(128,702,o),
(123,698,o),
(122,692,cs),
(2,10,ls),
(1,4,o),
(4,0,o),
(10,0,cs),
(161,0,ls),
(167,0,o),
(172,4,o),
(173,10,cs),
(216,254,ls),
(220,276,o),
(235,289,o),
(257,289,cs),
(478,289,ls),
(484,289,o),
(487,285,o),
(486,279,cs)
);
}
);
width = 731;
}
);
note = H;
unicode = 72;
},
{
glyphname = I;
lastChange = "2022-10-20 15:43:06 +0000";
layers = (
{
layerId = m01;
shapes = (
{
closed = 1;
nodes = (
(2,10,ls),
(1,4,o),
(4,0,o),
(10,0,cs),
(161,0,ls),
(167,0,o),
(172,4,o),
(173,10,cs),
(289,667,ls),
(293,689,o),
(282,702,o),
(260,702,cs),
(134,702,ls),
(128,702,o),
(123,698,o),
(122,692,cs)
);
}
);
width = 295;
}
);
note = I;
unicode = 73;
},
{
glyphname = J;
lastChange = "2022-10-20 15:43:06 +0000";
layers = (
{
layerId = m01;
shapes = (
{
closed = 1;
nodes = (
(309,224,ls),
(300,172,o),
(271,146,o),
(230,146,cs),
(195,146,o),
(176,164,o),
(173,201,cs),
(172,223,o),
(165,235,o),
(143,235,cs),
(16,235,ls),
(10,235,o),
(5,231,o),
(4,225,cs),
(-18,73,o),
(67,-7,o),
(208,-7,cs),
(347,-7,o),
(454,73,o),
(480,224,cs),
(563,692,ls),
(564,698,o),
(561,702,o),
(555,702,cs),
(429,702,ls),
(407,702,o),
(391,689,o),
(387,667,cs)
);
}
);
width = 578;
}
);
note = J;
unicode = 74;
},
{
glyphname = K;
lastChange = "2022-10-20 15:43:06 +0000";
layers = (
{
layerId = m01;
shapes = (
{
closed = 1;
nodes = (
(403,6,l),
(405,1,o),
(410,0,o),
(415,0,cs),
(600,0,ls),
(608,0,o),
(612,5,o),
(608,12,cs),
(403,347,ls),
(400,354,o),
(401,362,o),
(407,369,cs),
(718,690,ls),
(724,697,o),
(722,702,o),
(714,702,cs),
(537,702,ls),
(532,702,o),
(527,701,o),
(523,696,c),
(263,418,ls),
(253,407,o),
(243,410,o),
(246,424,cs),
(289,667,ls),
(293,689,o),
(282,702,o),
(260,702,cs),
(134,702,ls),
(128,702,o),
(123,698,o),
(122,692,cs),
(6,35,ls),
(2,13,o),
(13,0,o),
(35,0,cs),
(161,0,ls),
(167,0,o),
(172,4,o),
(173,10,cs),
(220,280,ls),
(223,294,o),
(233,297,o),
(240,286,cs)
);
}
);
width = 697;
}
);
note = K;
unicode = 75;
},
{
glyphname = L;
lastChange = "2022-10-20 15:43:06 +0000";
layers = (
{
layerId = m01;
shapes = (
{
closed = 1;
nodes = (
(134,702,ls),
(128,702,o),
(123,698,o),
(122,692,cs),
(2,10,ls),
(1,4,o),
(4,0,o),
(10,0,cs),
(360,0,ls),
(382,0,o),
(397,13,o),
(401,35,cs),
(417,122,ls),
(418,128,o),
(414,132,o),
(408,132,cs),
(229,132,ls),
(207,132,o),
(197,145,o),
(201,167,cs),
(289,667,ls),
(293,689,o),
(282,702,o),
(260,702,cs)
);
}
);
width = 477;
}
);
note = L;
unicode = 76;
},
{
glyphname = M;
lastChange = "2022-10-20 15:43:06 +0000";
layers = (
{
layerId = m01;
shapes = (
{
closed = 1;
nodes = (
(2,10,ls),
(1,4,o),
(4,0,o),
(10,0,cs),
(136,0,ls),
(158,0,o),
(173,13,o),
(177,35,cs),
(240,389,ls),
(241,398,o),
(250,401,o),
(251,392,cs),
(324,28,ls),
(328,9,o),
(339,0,o),
(359,0,cs),
(437,0,ls),
(457,0,o),
(472,9,o),
(482,28,cs),
(682,390,ls),
(686,399,o),
(694,397,o),
(693,388,cs),
(630,35,ls),
(626,13,o),
(637,0,o),
(659,0,cs),
(785,0,ls),
(791,0,o),
(796,4,o),
(797,10,cs),
(917,692,ls),
(918,698,o),
(915,702,o),
(909,702,cs),
(747,702,ls),
(727,702,o),
(712,694,o),
(702,675,cs),
(447,232,ls),
(443,224,o),
(435,224,o),
(433,232,cs),
(332,675,ls),
(328,693,o),
(317,702,o),
(297,702,cs),
(134,702,ls),
(128,702,o),
(123,698,o),
(122,692,cs)
);
}
);
width = 918;
}
);
note = M;
unicode = 77;
},
{
glyphname = N;
lastChange = "2022-10-20 15:43:06 +0000";
layers = (
{
layerId = m01;
shapes = (
{
closed = 1;
nodes = (
(591,702,ls),
(585,702,o),
(580,698,o),
(579,692,cs),
(508,289,ls),
(506,280,o),
(499,278,o),
(496,286,cs),
(295,702,l),
(134,702,ls),
(128,702,o),
(123,698,o),
(122,692,cs),
(6,35,ls),
(2,13,o),
(13,0,o),
(35,0,cs),
(161,0,ls),
(167,0,o),
(172,4,o),
(173,10,cs),
(244,411,ls),
(245,420,o),
(253,423,o),
(256,415,cs),
(457,0,l),
(618,0,ls),
(624,0,o),
(629,4,o),
(630,10,cs),
(746,667,ls),
(750,689,o),
(739,702,o),
(717,702,cs)
);
}
);
width = 752;
}
);
note = N;
unicode = 78;
},
{
glyphname = O;
lastChange = "2022-10-20 15:43:06 +0000";
layers = (
{
layerId = m01;
shapes = (
{
closed = 1;
nodes = (
(790,564,o),
(657,712,o),
(457,712,cs),
(258,712,o),
(70,564,o),
(33,353,cs),
(-4,142,o),
(132,-7,o),
(331,-7,cs),
(530,-7,o),
(716,142,o),
(753,353,cs)
);
},
{
closed = 1;
nodes = (
(230,478,o),
(316,557,o),
(430,557,cs),
(542,557,o),
(601,478,o),
(579,353,cs),
(557,230,o),
(470,149,o),
(358,149,cs),
(244,149,o),
(186,230,o),
(208,353,cs)
);
}
);
width = 786;
}
);
note = O;
unicode = 79;
},
{
glyphname = P;
lastChange = "2022-10-20 15:43:06 +0000";
layers = (
{
layerId = m01;
shapes = (
{
closed = 1;
nodes = (
(240,388,l),
(264,529,ls),
(268,551,o),
(284,564,o),
(306,564,cs),
(364,564,ls),
(432,564,o),
(455,530,o),
(445,476,cs),
(436,422,o),
(401,388,o),
(333,388,cs)
);
},
{
closed = 1;
nodes = (
(642,605,o),
(573,702,o),
(401,702,cs),
(134,702,ls),
(128,702,o),
(123,698,o),
(122,692,cs),
(2,10,ls),
(1,4,o),
(4,0,o),
(10,0,cs),
(136,0,ls),
(158,0,o),
(173,13,o),
(177,35,cs),
(216,252,l),
(322,252,ls),
(501,252,o),
(599,360,o),
(619,476,cs)
);
}
);
width = 624;
}
);
note = P;
unicode = 80;
},
{
glyphname = Q;
lastChange = "2022-10-20 15:43:06 +0000";
layers = (
{
layerId = m01;
shapes = (
{
closed = 1;
nodes = (
(240,478,o),
(326,557,o),
(440,557,cs),
(552,557,o),
(611,478,o),
(589,353,cs),
(567,230,o),
(480,149,o),
(368,149,cs),
(254,149,o),
(196,230,o),
(218,353,cs)
);
},
{
closed = 1;
nodes = (
(800,564,o),
(667,712,o),
(467,712,cs),
(268,712,o),
(80,564,o),
(43,353,cs),
(6,142,o),
(142,-7,o),
(341,-7,cs),
(368,-7,o),
(394,-4,o),
(420,1,c),
(485,-114,ls),
(487,-119,o),
(492,-120,o),
(497,-120,cs),
(680,-120,ls),
(688,-120,o),
(692,-114,o),
(688,-108,cs),
(574,65,l),
(670,129,o),
(741,230,o),
(763,353,cs)
);
}
);
width = 788;
}
);
note = Q;
unicode = 81;
},
{
glyphname = R;
lastChange = "2022-10-20 15:43:06 +0000";
layers = (
{
layerId = m01;
shapes = (
{
closed = 1;
nodes = (
(445,419,o),
(409,386,o),
(345,386,cs),
(239,386,l),
(264,525,ls),
(268,547,o),
(283,560,o),
(305,560,cs),
(376,560,ls),
(440,560,o),
(464,526,o),
(455,474,cs)
);
},
{
closed = 1;
nodes = (
(159,702,ls),
(137,702,o),
(122,689,o),
(118,667,cs),
(2,10,ls),
(1,4,o),
(4,0,o),
(10,0,cs),
(161,0,ls),
(167,0,o),
(172,4,o),
(173,10,cs),
(218,265,l),
(259,265,l),
(349,25,ls),
(355,8,o),
(367,0,o),
(386,0,cs),
(537,0,ls),
(545,0,o),
(549,5,o),
(546,12,cs),
(438,278,l),
(552,310,o),
(614,393,o),
(630,481,cs),
(651,603,o),
(583,702,o),
(411,702,cs)
);
}
);
width = 652;
}
);
note = R;
unicode = 82;
},
{
glyphname = S;
lastChange = "2022-10-20 15:43:06 +0000";
layers = (
{
layerId = m01;
shapes = (
{
closed = 1;
nodes = (
(588,444,o),
(231,389,o),
(253,511,cs),
(261,555,o),
(295,576,o),
(336,575,cs),
(371,574,o),
(394,559,o),
(403,532,cs),
(407,513,o),
(414,502,o),
(435,502,cs),
(579,502,ls),
(585,502,o),
(590,506,o),
(590,512,cs),
(602,640,o),
(512,712,o),
(363,712,cs),
(216,712,o),
(94,638,o),
(71,505,cs),
(25,256,o),
(388,326,o),
(365,196,cs),
(358,155,o),
(322,130,o),
(272,130,cs),
(234,130,o),
(208,146,o),
(200,179,cs),
(196,199,o),
(189,210,o),
(168,210,cs),
(27,210,ls),
(21,210,o),
(16,206,o),
(16,200,cs),
(2,64,o),
(106,-7,o),
(253,-7,cs),
(417,-7,o),
(526,91,o),
(547,209,cs)
);
}
);
width = 615;
}
);
note = S;
unicode = 83;
},
{
glyphname = T;
lastChange = "2022-10-20 15:43:06 +0000";
layers = (
{
layerId = m01;
shapes = (
{
closed = 1;
nodes = (
(63,575,ls),
(62,569,o),
(66,565,o),
(72,565,cs),
(213,565,ls),
(235,565,o),
(245,552,o),
(242,530,cs),
(150,10,ls),
(149,4,o),
(152,0,o),
(158,0,cs),
(309,0,ls),
(315,0,o),
(320,4,o),
(321,10,cs),
(413,530,ls),
(416,552,o),
(432,565,o),
(454,565,cs),
(595,565,ls),
(601,565,o),
(605,569,o),
(606,575,cs),
(627,692,ls),
(628,698,o),
(625,702,o),
(619,702,cs),
(96,702,ls),
(90,702,o),
(85,698,o),
(84,692,cs)
);
}
);
width = 591;
}
);
note = T;
unicode = 84;
},
{
glyphname = U;
lastChange = "2022-10-20 15:43:06 +0000";
layers = (
{
layerId = m01;
shapes = (
{
closed = 1;
nodes = (
(48,283,ls),
(13,89,o),
(123,-7,o),
(286,-7,cs),
(448,-7,o),
(601,89,o),
(636,283,cs),
(708,692,ls),
(709,698,o),
(706,702,o),
(700,702,cs),
(574,702,ls),
(552,702,o),
(536,689,o),
(532,667,cs),
(464,282,ls),
(450,199,o),
(398,151,o),
(317,151,cs),
(236,151,o),
(204,199,o),
(218,282,cs),
(286,667,ls),
(290,689,o),
(280,702,o),
(258,702,cs),
(132,702,ls),
(126,702,o),
(121,698,o),
(120,692,cs)
);
}
);
width = 705;
}
);
note = U;
unicode = 85;
},
{
glyphname = V;
lastChange = "2022-10-20 15:43:06 +0000";
layers = (
{
layerId = m01;
shapes = (
{
closed = 1;
nodes = (
(343,192,ls),
(338,183,o),
(332,183,o),
(331,192,cs),
(257,673,ls),
(254,692,o),
(243,702,o),
(223,702,cs),
(83,702,ls),
(76,702,o),
(72,698,o),
(73,691,cs),
(191,28,ls),
(195,8,o),
(206,0,o),
(226,0,cs),
(380,0,ls),
(400,0,o),
(415,8,o),
(425,28,cs),
(777,691,ls),
(780,698,o),
(778,702,o),
(771,702,cs),
(632,702,ls),
(612,702,o),
(597,692,o),
(588,673,cs)
);
}
);
width = 730;
}
);
note = V;
unicode = 86;
},
{
glyphname = W;
lastChange = "2022-10-20 15:43:06 +0000";
layers = (
{
layerId = m01;
shapes = (
{
closed = 1;
nodes = (
(138,30,ls),
(140,9,o),
(151,0,o),
(172,0,cs),
(317,0,ls),
(338,0,o),
(353,9,o),
(361,30,cs),
(535,437,ls),
(539,447,o),
(547,446,o),
(547,437,cs),
(574,30,ls),
(576,9,o),
(586,0,o),
(607,0,cs),
(752,0,ls),
(773,0,o),
(788,9,o),
(796,30,cs),
(1085,691,ls),
(1088,698,o),
(1085,702,o),
(1078,702,cs),
(938,702,ls),
(917,702,o),
(902,691,o),
(894,671,cs),
(725,219,ls),
(721,210,o),
(713,210,o),
(713,219,cs),
(685,671,ls),
(684,691,o),
(674,702,o),
(653,702,cs),
(527,702,ls),
(506,702,o),
(492,693,o),
(484,672,cs),
(293,218,ls),
(289,209,o),
(281,209,o),
(281,218,cs),
(270,671,ls),
(270,692,o),
(259,702,o),
(238,702,cs),
(98,702,ls),
(91,702,o),
(87,698,o),
(88,691,cs)
);
}
);
width = 1052;
}
);
note = W;
unicode = 87;
},
{
glyphname = X;
lastChange = "2022-10-20 15:43:06 +0000";
layers = (
{
layerId = m01;
shapes = (
{
closed = 1;
nodes = (
(427,6,ls),
(429,2,o),
(433,0,o),
(438,0,cs),
(614,0,ls),
(622,0,o),
(626,6,o),
(623,12,cs),
(464,338,ls),
(460,345,o),
(462,351,o),
(467,358,cs),
(734,690,ls),
(739,697,o),
(738,702,o),
(730,702,cs),
(558,702,ls),
(553,702,o),
(548,699,o),
(545,695,cs),
(402,507,ls),
(394,497,o),
(385,496,o),
(380,506,cs),
(288,696,ls),
(286,700,o),
(282,702,o),
(277,702,cs),
(101,702,ls),
(93,702,o),
(89,696,o),
(92,690,cs),
(250,367,ls),
(254,360,o),
(252,354,o),
(246,347,cs),
(-23,12,ls),
(-28,5,o),
(-27,0,o),
(-19,0,cs),
(153,0,ls),
(158,0,o),
(163,3,o),
(166,7,cs),
(312,198,ls),
(320,208,o),
(329,209,o),
(333,199,cs)
);
}
);
width = 715;
}
);
note = X;
unicode = 88;
},
{
glyphname = Y;
lastChange = "2022-10-20 15:43:06 +0000";
layers = (
{
layerId = m01;
shapes = (
{
closed = 1;
nodes = (
(229,232,l),
(190,10,ls),
(189,4,o),
(192,0,o),
(198,0,cs),
(349,0,ls),
(355,0,o),
(360,4,o),
(361,10,cs),
(400,232,l),
(718,690,ls),
(722,697,o),
(720,702,o),
(713,702,cs),
(563,702,ls),
(544,702,o),
(528,694,o),
(517,676,cs),
(357,423,ls),
(352,415,o),
(344,416,o),
(343,423,cs),
(270,676,ls),
(265,694,o),
(253,702,o),
(234,702,cs),
(82,702,ls),
(75,702,o),
(71,697,o),
(73,690,cs)
);
}
);
width = 671;
}
);
note = Y;
unicode = 89;
},
{
glyphname = Z;
lastChange = "2022-10-20 15:43:06 +0000";
layers = (
{
layerId = m01;
shapes = (
{
closed = 1;
nodes = (
(606,692,ls),
(607,698,o),
(604,702,o),
(598,702,cs),
(122,702,ls),
(116,702,o),
(111,698,o),
(110,692,cs),
(93,597,ls),
(89,575,o),
(100,562,o),
(122,562,cs),
(372,562,ls),
(380,562,o),
(382,556,o),
(377,550,cs),
(11,130,l),
(-12,0,l),
(474,0,ls),
(480,0,o),
(485,4,o),
(486,10,cs),
(503,105,ls),
(507,127,o),
(496,140,o),
(474,140,cs),
(222,140,ls),
(214,140,o),
(211,146,o),
(217,152,cs),
(585,572,l)
);
}
);
width = 596;
}
);
note = Z;
unicode = 90;
},
{
glyphname = bracketleft;
lastChange = "2022-10-20 15:43:06 +0000";
layers = (
{
layerId = m01;
shapes = (
{
closed = 1;
nodes = (
(21,-209,l),
(321,-209,l),
(346,-70,l),
(206,-70,l),
(355,775,l),
(495,775,l),
(519,913,l),
(219,913,l)
);
}
);
width = 510;
}
);
note = bracketleft;
unicode = 91;
},
{
glyphname = backslash;
lastChange = "2022-10-20 15:43:06 +0000";
layers = (
{
layerId = m01;
shapes = (
{
closed = 1;
nodes = (
(448,950,l),
(283,950,l),
(351,-187,l),
(516,-187,l)
);
}
);
width = 802;
}
);
note = backslash;
unicode = 92;
},
{
glyphname = bracketright;
lastChange = "2022-10-20 15:43:06 +0000";
layers = (
{
layerId = m01;
shapes = (
{
closed = 1;
nodes = (
(291,-209,l),
(-9,-209,l),
(16,-70,l),
(156,-70,l),
(305,775,l),
(165,775,l),
(189,913,l),
(489,913,l)
);
}
);
width = 510;
}
);
note = bracketright;
unicode = 93;
},
{
glyphname = asciicircum;
lastChange = "2022-10-20 15:43:06 +0000";
layers = (
{
layerId = m01;
shapes = (
{
closed = 1;
nodes = (
(459,165,l),
(631,165,l),
(486,704,l),
(320,704,l),
(-18,165,l),
(154,165,l),
(368,506,l)
);
}
);
width = 709;
}
);
note = asciicircum;
unicode = 94;
},
{
glyphname = underscore;
lastChange = "2022-10-20 15:43:06 +0000";
layers = (
{
layerId = m01;
shapes = (
{
closed = 1;
nodes = (
(71,-205,l),
(691,-205,l),
(719,-41,l),
(99,-41,l)
);
}
);
width = 780;
}
);
note = underscore;
unicode = 95;
},
{
glyphname = grave;
lastChange = "2022-10-20 15:43:06 +0000";
layers = (
{
layerId = m01;
shapes = (
{
closed = 1;
nodes = (
(7,697,l),
(230,596,l),
(251,714,l),
(31,830,l)
);
}
);
width = 291;
}
);
note = grave;
unicode = 96;
},
{
glyphname = a;
lastChange = "2022-10-20 15:43:06 +0000";
layers = (
{
layerId = m01;
shapes = (
{
closed = 1;
nodes = (
(-3,104,o),
(86,-8,o),
(222,-8,cs),
(305,-8,o),
(371,30,o),
(411,79,c),
(403,35,ls),
(399,13,o),
(410,0,o),
(432,0,cs),
(558,0,ls),
(564,0,o),
(569,4,o),
(570,10,cs),
(660,523,ls),
(664,545,o),
(653,558,o),
(631,558,cs),
(505,558,ls),
(499,558,o),
(494,554,o),
(493,548,cs),
(481,479,l),
(460,528,o),
(408,566,o),
(325,566,cs),
(188,566,o),
(59,456,o),
(28,280,cs)
);
},
{
closed = 1;
nodes = (
(417,190,o),
(352,141,o),
(287,141,cs),
(223,141,o),
(173,191,o),
(189,280,cs),
(205,369,o),
(271,417,o),
(335,417,cs),
(400,417,o),
(449,368,o),
(433,279,cs)
);
}
);
width = 679;
}
);
note = a;
unicode = 97;
},
{
glyphname = b;
lastChange = "2022-10-20 15:43:06 +0000";
layers = (
{
layerId = m01;
shapes = (
{
closed = 1;
nodes = (
(297,730,ls),
(298,736,o),
(295,740,o),
(289,740,cs),
(163,740,ls),
(141,740,o),
(126,727,o),
(122,705,cs),
(-1,10,ls),
(-2,4,o),
(1,0,o),
(7,0,cs),
(133,0,ls),
(155,0,o),
(171,13,o),
(175,35,cs),
(182,78,l),
(205,29,o),
(257,-8,o),
(339,-8,cs),
(476,-8,o),
(605,104,o),
(636,280,cs),
(667,456,o),
(578,566,o),
(440,566,cs),
(360,566,o),
(293,529,o),
(253,479,c)
);
},
{
closed = 1;
nodes = (
(473,191,o),
(406,141,o),
(341,141,cs),
(277,141,o),
(228,190,o),
(244,279,cs),
(259,368,o),
(326,417,o),
(390,417,cs),
(455,417,o),
(505,369,o),
(489,280,cs)
);
}
);
width = 679;
}
);
note = b;
unicode = 98;
},
{
glyphname = c;
lastChange = "2022-10-20 15:43:06 +0000";
layers = (
{
layerId = m01;
shapes = (
{
closed = 1;
nodes = (
(-3,102,o),
(93,-8,o),
(257,-8,cs),
(382,-8,o),
(486,57,o),
(543,162,cs),
(557,186,o),
(546,202,o),
(521,202,cs),
(388,202,ls),
(383,202,o),
(379,200,o),
(376,194,cs),
(354,158,o),
(324,138,o),
(280,138,cs),
(219,138,o),
(186,186,o),
(202,279,cs),
(218,372,o),
(269,420,o),
(330,420,cs),
(374,420,o),
(397,398,o),
(406,364,cs),
(407,359,o),
(411,356,o),
(416,356,cs),
(549,356,ls),
(574,356,o),
(589,371,o),
(586,396,cs),
(566,504,o),
(484,566,o),
(359,566,cs),
(195,566,o),
(59,455,o),
(28,279,cs)
);
}
);
width = 605;
}
);
note = c;
unicode = 99;
},
{
glyphname = d;
lastChange = "2022-10-20 15:43:06 +0000";
layers = (
{
layerId = m01;
shapes = (
{
closed = 1;
nodes = (
(-18,104,o),
(71,-8,o),
(208,-8,cs),
(290,-8,o),
(356,29,o),
(396,80,c),
(388,35,ls),
(384,13,o),
(394,0,o),
(416,0,cs),
(542,0,ls),
(548,0,o),
(553,4,o),
(554,10,cs),
(677,705,ls),
(681,727,o),
(670,740,o),
(648,740,cs),
(522,740,ls),
(516,740,o),
(511,736,o),
(510,730,cs),
(466,481,l),
(441,532,o),
(383,566,o),
(309,566,cs),
(172,566,o),
(44,456,o),
(13,280,cs)
);
},
{
closed = 1;
nodes = (
(415,190,o),
(349,141,o),
(284,141,cs),
(220,141,o),
(171,191,o),
(187,280,cs),
(203,369,o),
(269,417,o),
(333,417,cs),
(398,417,o),
(446,368,o),
(431,279,cs)
);
}
);
width = 679;
}
);
note = d;
unicode = 100;
},
{
glyphname = e;
lastChange = "2022-10-20 15:43:06 +0000";
layers = (
{
layerId = m01;
shapes = (
{
closed = 1;
nodes = (
(386,429,o),
(425,400,o),
(424,349,cs),
(424,339,o),
(417,333,o),
(407,333,cs),
(226,333,ls),
(216,333,o),
(211,339,o),
(216,350,cs),
(239,401,o),
(283,429,o),
(334,429,cs)
);
},
{
closed = 1;
nodes = (
(384,185,ls),
(379,185,o),
(375,183,o),
(371,178,cs),
(351,151,o),
(322,131,o),
(278,131,cs),
(223,131,o),
(184,165,o),
(191,238,c),
(578,238,l),
(583,255,o),
(587,272,o),
(590,288,cs),
(620,458,o),
(524,566,o),
(361,566,cs),
(195,566,o),
(59,456,o),
(28,279,cs),
(-3,102,o),
(95,-8,o),
(259,-8,cs),
(380,-8,o),
(483,56,o),
(537,145,cs),
(553,169,o),
(541,185,o),
(516,185,cs)
);
}
);
width = 616;
}
);
note = e;
unicode = 101;
},
{
glyphname = f;
lastChange = "2022-10-20 15:43:06 +0000";
layers = (
{
layerId = m01;
shapes = (
{
closed = 1;
nodes = (
(12,10,ls),
(11,4,o),
(14,0,o),
(20,0,cs),
(171,0,ls),
(177,0,o),
(182,4,o),
(183,10,cs),
(253,406,ls),
(254,412,o),
(258,416,o),
(264,416,cs),
(336,416,ls),
(342,416,o),
(347,420,o),
(348,426,cs),
(370,548,ls),
(371,554,o),
(367,558,o),
(361,558,cs),
(289,558,ls),
(280,558,o),
(280,560,o),
(280,563,cs),
(288,610,o),
(307,632,o),
(347,637,cs),
(371,640,o),
(385,651,o),
(389,673,cs),
(406,773,ls),
(407,779,o),
(405,783,o),
(398,783,cs),
(235,789,o),
(136,717,o),
(111,574,cs),
(110,568,ls),
(109,562,o),
(104,558,o),
(98,558,cs),
(56,558,ls),
(50,558,o),
(46,554,o),
(45,548,cs),
(23,426,ls),
(22,420,o),
(25,416,o),
(31,416,cs),
(48,416,ls),
(70,416,o),
(81,403,o),
(77,381,cs)
);
}
);
width = 360;
}
);
note = f;
unicode = 102;
},
{
glyphname = g;
lastChange = "2022-10-20 15:43:06 +0000";
layers = (
{
layerId = m01;
shapes = (
{
closed = 1;
nodes = (
(21,104,o),
(110,-8,o),
(247,-8,cs),
(329,-8,o),
(395,31,o),
(434,80,c),
(421,1,ls),
(404,-93,o),
(347,-127,o),
(282,-127,cs),
(236,-127,o),
(204,-111,o),
(190,-84,cs),
(182,-67,o),
(172,-58,o),
(153,-58,cs),
(24,-58,ls),
(18,-58,o),
(12,-62,o),
(12,-69,cs),
(10,-195,o),
(102,-275,o),
(264,-275,cs),
(457,-275,o),
(565,-148,o),
(592,1,cs),
(688,548,ls),
(689,554,o),
(686,558,o),
(680,558,cs),
(554,558,ls),
(532,558,o),
(516,545,o),
(513,523,cs),
(505,479,l),
(484,529,o),
(430,566,o),
(348,566,cs),
(211,566,o),
(83,456,o),
(52,280,cs)
);
},
{
closed = 1;
nodes = (
(434,190,o),
(368,141,o),
(303,141,cs),
(239,141,o),
(190,191,o),
(206,280,cs),
(221,369,o),
(288,417,o),
(352,417,cs),
(417,417,o),
(465,368,o),
(450,279,cs)
);
}
);
width = 679;
}
);
note = g;
unicode = 103;
},
{
glyphname = h;
lastChange = "2022-10-20 15:43:06 +0000";
layers = (
{
layerId = m01;
shapes = (
{
closed = 1;
nodes = (
(-1,10,ls),
(-3,4,o),
(1,0,o),
(7,0,cs),
(158,0,ls),
(164,0,o),
(168,4,o),
(170,10,cs),
(221,303,ls),
(235,379,o),
(284,421,o),
(349,421,cs),
(414,421,o),
(449,379,o),
(435,303,cs),
(388,35,ls),
(384,13,o),
(395,0,o),
(417,0,cs),
(542,0,ls),
(548,0,o),
(552,4,o),
(554,10,cs),
(609,326,ls),
(636,476,o),
(566,564,o),
(439,564,cs),
(362,564,o),
(295,531,o),
(253,483,c),
(292,705,ls),
(296,727,o),
(285,740,o),
(263,740,cs),
(137,740,ls),
(131,740,o),
(127,736,o),
(125,730,cs)
);
}
);
width = 674;
}
);
note = h;
unicode = 104;
},
{
glyphname = i;
lastChange = "2022-10-20 15:43:06 +0000";
layers = (
{
layerId = m01;
shapes = (
{
closed = 1;
nodes = (
(-2,35,ls),
(-6,13,o),
(4,0,o),
(26,0,cs),
(152,0,ls),
(158,0,o),
(163,4,o),
(164,10,cs),
(255,523,ls),
(258,545,o),
(248,558,o),
(226,558,cs),
(100,558,ls),
(94,558,o),
(89,554,o),
(88,548,cs)
);
},
{
closed = 1;
nodes = (
(246,616,o),
(294,657,o),
(303,708,cs),
(312,760,o),
(279,801,o),
(219,801,cs),
(158,801,o),
(109,760,o),
(100,708,cs),
(91,657,o),
(125,616,o),
(186,616,cs)
);
}
);
width = 295;
}
);
note = i;
unicode = 105;
},
{
glyphname = j;
lastChange = "2022-10-20 15:43:06 +0000";
layers = (
{
layerId = m01;
shapes = (
{
closed = 1;
nodes = (
(268,616,o),
(317,657,o),
(326,708,cs),
(335,760,o),
(301,801,o),
(241,801,cs),
(180,801,o),
(132,760,o),
(123,708,cs),
(114,657,o),
(147,616,o),
(208,616,cs)
);
},
{
closed = 1;
nodes = (
(123,558,ls),
(117,558,o),
(113,554,o),
(111,548,cs),
(2,-74,ls),
(-4,-107,o),
(-21,-121,o),
(-59,-121,cs),
(-65,-121,ls),
(-87,-121,o),
(-102,-134,o),
(-106,-156,cs),
(-123,-256,ls),
(-124,-262,o),
(-121,-266,o),
(-115,-266,cs),
(-58,-266,ls),
(58,-266,o),
(148,-217,o),
(173,-72,cs),
(278,523,ls),
(282,545,o),
(271,558,o),
(249,558,cs)
);
}
);
width = 294;
}
);
note = j;
unicode = 106;
},
{
glyphname = k;
lastChange = "2022-10-20 15:43:06 +0000";
layers = (
{
layerId = m01;
shapes = (
{
closed = 1;
nodes = (
(3,35,ls),
(-1,13,o),
(10,0,o),
(32,0,cs),
(158,0,ls),
(164,0,o),
(168,4,o),
(170,10,cs),
(204,203,ls),
(206,217,o),
(217,221,o),
(223,209,cs),
(335,6,ls),
(337,1,o),
(341,0,o),
(346,0,cs),
(534,0,ls),
(542,0,o),
(546,6,o),
(542,12,cs),
(372,267,ls),
(367,274,o),
(368,282,o),
(376,289,cs),
(634,546,ls),
(640,553,o),
(638,558,o),
(630,558,cs),
(443,558,ls),
(438,558,o),
(433,557,o),
(429,552,cs),
(249,356,ls),
(239,345,o),
(229,348,o),
(232,362,cs),
(292,705,ls),
(296,727,o),
(285,740,o),
(263,740,cs),
(137,740,ls),
(131,740,o),
(127,736,o),
(125,730,cs)
);
}
);
width = 618;
}
);
note = k;
unicode = 107;
},
{
glyphname = l;
lastChange = "2022-10-20 15:43:06 +0000";
layers = (
{
layerId = m01;
shapes = (
{
closed = 1;
nodes = (
(3,35,ls),
(-1,13,o),
(10,0,o),
(32,0,cs),
(158,0,ls),
(164,0,o),
(168,4,o),
(170,10,cs),
(292,705,ls),
(296,727,o),
(285,740,o),
(263,740,cs),
(137,740,ls),
(131,740,o),
(127,736,o),
(125,730,cs)
);
}
);
width = 295;
}
);
note = l;
unicode = 108;
},
{
glyphname = m;
lastChange = "2022-10-20 15:43:06 +0000";
layers = (
{
layerId = m01;
shapes = (
{
closed = 1;
nodes = (
(787,35,ls),
(784,13,o),
(794,0,o),
(816,0,cs),
(941,0,ls),
(947,0,o),
(952,4,o),
(953,10,cs),
(1009,326,ls),
(1035,476,o),
(962,564,o),
(824,564,cs),
(743,564,o),
(665,519,o),
(617,460,c),
(591,527,o),
(530,564,o),
(446,564,cs),
(373,564,o),
(310,533,o),
(269,488,c),
(275,523,ls),
(279,545,o),
(269,558,o),
(247,558,cs),
(121,558,ls),
(115,558,o),
(110,554,o),
(109,548,cs),
(14,10,ls),
(13,4,o),
(16,0,o),
(22,0,cs),
(173,0,ls),
(179,0,o),
(184,4,o),
(185,10,cs),
(237,303,ls),
(250,376,o),
(299,416,o),
(364,416,cs),
(429,416,o),
(464,376,o),
(451,303,cs),
(403,35,ls),
(400,13,o),
(410,0,o),
(432,0,cs),
(557,0,ls),
(563,0,o),
(568,4,o),
(569,10,cs),
(621,303,ls),
(634,376,o),
(683,416,o),
(748,416,cs),
(813,416,o),
(848,376,o),
(835,303,cs)
);
}
);
width = 1059;
}
);
note = m;
unicode = 109;
},
{
glyphname = n;
lastChange = "2022-10-20 15:43:06 +0000";
layers = (
{
layerId = m01;
shapes = (
{
closed = 1;
nodes = (
(403,35,ls),
(400,13,o),
(410,0,o),
(432,0,cs),
(557,0,ls),
(563,0,o),
(568,4,o),
(569,10,cs),
(625,326,ls),
(651,476,o),
(581,564,o),
(452,564,cs),
(377,564,o),
(311,531,o),
(269,484,c),
(275,523,ls),
(279,545,o),
(269,558,o),
(247,558,cs),
(121,558,ls),
(115,558,o),
(110,554,o),
(109,548,cs),
(14,10,ls),
(13,4,o),
(16,0,o),
(22,0,cs),
(173,0,ls),
(179,0,o),
(184,4,o),
(185,10,cs),
(237,303,ls),
(250,379,o),
(300,421,o),
(365,421,cs),
(430,421,o),
(464,379,o),
(451,303,cs)
);
}
);
width = 674;
}
);
note = n;
unicode = 110;
},
{
glyphname = o;
lastChange = "2022-10-20 15:43:06 +0000";
layers = (
{
layerId = m01;
shapes = (
{
closed = 1;
nodes = (
(639,456,o),
(533,566,o),
(369,566,cs),
(206,566,o),
(59,456,o),
(28,279,cs),
(-3,102,o),
(101,-8,o),
(265,-8,cs),
(429,-8,o),
(577,102,o),
(608,279,cs)
);
},
{
closed = 1;
nodes = (
(219,374,o),
(281,418,o),
(343,418,cs),
(403,418,o),
(451,374,o),
(434,279,cs),
(417,185,o),
(352,140,o),
(291,140,cs),
(229,140,o),
(185,185,o),
(202,279,cs)
);
}
);
width = 637;
}
);
note = o;
unicode = 111;
},
{
glyphname = p;
lastChange = "2022-10-20 15:43:06 +0000";
layers = (
{
layerId = m01;
shapes = (
{
closed = 1;
nodes = (
(299,523,ls),
(303,545,o),
(292,558,o),
(270,558,cs),
(144,558,ls),
(138,558,o),
(133,554,o),
(132,548,cs),
(-5,-231,ls),
(-9,-253,o),
(2,-266,o),
(24,-266,cs),
(150,-266,ls),
(156,-266,o),
(160,-262,o),
(161,-256,cs),
(220,78,l),
(243,31,o),
(295,-8,o),
(377,-8,cs),
(514,-8,o),
(643,104,o),
(674,280,cs),
(705,456,o),
(615,566,o),
(478,566,cs),
(396,566,o),
(331,528,o),
(291,479,c)
);
},
{
closed = 1;
nodes = (
(514,191,o),
(447,141,o),
(382,141,cs),
(318,141,o),
(269,190,o),
(285,279,cs),
(300,368,o),
(367,417,o),
(431,417,cs),
(496,417,o),
(546,369,o),
(530,280,cs)
);
}
);
width = 679;
}
);
note = p;
unicode = 112;
},
{
glyphname = q;
lastChange = "2022-10-20 15:43:06 +0000";
layers = (
{
layerId = m01;
shapes = (
{
closed = 1;
nodes = (
(21,108,o),
(116,-7,o),
(253,-7,cs),
(327,-7,o),
(388,26,o),
(432,70,c),
(375,-256,ls),
(374,-262,o),
(377,-266,o),
(383,-266,cs),
(509,-266,ls),
(531,-266,o),
(546,-253,o),
(550,-231,cs),
(687,548,ls),
(688,554,o),
(685,558,o),
(679,558,cs),
(553,558,ls),
(531,558,o),
(516,545,o),
(512,523,cs),
(507,494,l),
(480,536,o),
(429,564,o),
(356,564,cs),
(217,564,o),
(81,448,o),
(51,278,cs)
);
},
{
closed = 1;
nodes = (
(452,185,o),
(381,141,o),
(323,141,cs),
(266,141,o),
(208,184,o),
(225,278,cs),
(241,372,o),
(314,416,o),
(371,416,cs),
(429,416,o),
(485,373,o),
(469,279,cs)
);
}
);
width = 679;
}
);
note = q;
unicode = 113;
},
{
glyphname = r;
lastChange = "2022-10-20 15:43:06 +0000";
layers = (
{
layerId = m01;
shapes = (
{
closed = 1;
nodes = (
(229,259,ls),
(246,355,o),
(298,383,o),
(379,383,cs),
(391,383,ls),
(413,383,o),
(428,396,o),
(432,418,cs),
(456,554,ls),
(457,560,o),
(454,564,o),
(448,564,cs),
(376,560,o),
(312,521,o),
(265,465,c),
(275,523,ls),
(279,545,o),
(269,558,o),
(247,558,cs),
(121,558,ls),
(115,558,o),
(110,554,o),
(109,548,cs),
(14,10,ls),
(13,4,o),
(16,0,o),
(22,0,cs),
(173,0,ls),
(179,0,o),
(184,4,o),
(185,10,cs)
);
}
);
width = 428;
}
);
note = r;
unicode = 114;
},
{
glyphname = s;
lastChange = "2022-10-20 15:43:06 +0000";
layers = (
{
layerId = m01;
shapes = (
{
closed = 1;
nodes = (
(528,370,o),
(215,307,o),
(231,396,cs),
(235,423,o),
(260,439,o),
(300,439,cs),
(335,439,o),
(358,426,o),
(367,404,cs),
(374,386,o),
(381,376,o),
(401,376,cs),
(518,376,ls),
(524,376,o),
(530,380,o),
(530,387,cs),
(533,491,o),
(467,566,o),
(328,566,cs),
(182,566,o),
(87,488,o),
(70,393,cs),
(34,188,o),
(349,253,o),
(334,163,cs),
(329,138,o),
(303,118,o),
(259,118,cs),
(224,118,o),
(198,132,o),
(188,155,cs),
(181,173,o),
(174,183,o),
(154,183,cs),
(26,183,ls),
(20,183,o),
(14,179,o),
(14,173,cs),
(10,70,o),
(94,-8,o),
(238,-8,cs),
(378,-8,o),
(477,65,o),
(494,162,cs)
);
}
);
width = 558;
}
);
note = s;
unicode = 115;
},
{
glyphname = t;
lastChange = "2022-10-20 15:43:06 +0000";
layers = (
{
layerId = m01;
shapes = (
{
closed = 1;
nodes = (
(62,194,ls),
(36,49,o),
(109,0,o),
(225,0,cs),
(302,0,ls),
(308,0,o),
(313,4,o),
(314,10,cs),
(331,110,ls),
(335,132,o),
(324,145,o),
(302,145,cs),
(276,145,ls),
(238,145,o),
(227,159,o),
(233,192,cs),
(270,406,ls),
(271,412,o),
(276,416,o),
(282,416,cs),
(374,416,ls),
(380,416,o),
(385,420,o),
(386,426,cs),
(407,548,ls),
(408,554,o),
(405,558,o),
(399,558,cs),
(307,558,ls),
(301,558,o),
(298,562,o),
(299,568,cs),
(319,684,ls),
(320,690,o),
(317,694,o),
(311,694,cs),
(160,694,ls),
(154,694,o),
(149,690,o),
(148,684,cs),
(132,593,ls),
(128,571,o),
(113,558,o),
(91,558,cs),
(58,558,l),
(35,426,ls),
(34,420,o),
(37,416,o),
(43,416,cs),
(91,416,ls),
(97,416,o),
(100,412,o),
(99,406,cs)
);
}
);
width = 406;
}
);
note = t;
unicode = 116;
},
{
glyphname = u;
lastChange = "2022-10-20 15:43:06 +0000";
layers = (
{
layerId = m01;
shapes = (
{
closed = 1;
nodes = (
(661,548,ls),
(662,554,o),
(659,558,o),
(653,558,cs),
(502,558,ls),
(496,558,o),
(491,554,o),
(490,548,cs),
(438,255,ls),
(425,179,o),
(375,137,o),
(309,137,cs),
(245,137,o),
(210,179,o),
(223,255,cs),
(271,523,ls),
(274,545,o),
(264,558,o),
(242,558,cs),
(117,558,ls),
(111,558,o),
(106,554,o),
(105,548,cs),
(49,232,ls),
(23,83,o),
(94,-6,o),
(223,-6,cs),
(298,-6,o),
(364,28,o),
(407,76,c),
(400,35,ls),
(396,13,o),
(406,0,o),
(428,0,cs),
(554,0,ls),
(560,0,o),
(565,4,o),
(566,10,cs)
);
}
);
width = 674;
}
);
note = u;
unicode = 117;
},
{
glyphname = v;
lastChange = "2022-10-20 15:43:06 +0000";
layers = (
{
layerId = m01;
shapes = (
{
closed = 1;
nodes = (
(70,558,ls),
(63,558,o),
(59,554,o),
(60,547,cs),
(153,28,ls),
(156,8,o),
(168,0,o),
(188,0,cs),
(339,0,ls),
(359,0,o),
(373,8,o),
(384,28,cs),
(659,547,ls),
(662,554,o),
(660,558,o),
(653,558,cs),
(513,558,ls),
(493,558,o),
(478,548,o),
(469,529,cs),
(302,181,ls),
(297,171,o),
(291,171,o),
(290,181,cs),
(245,529,ls),
(242,548,o),
(231,558,o),
(211,558,cs)
);
}
);
width = 626;
}
);
note = v;
unicode = 118;
},
{
glyphname = w;
lastChange = "2022-10-20 15:43:06 +0000";
layers = (
{
layerId = m01;
shapes = (
{
closed = 1;
nodes = (
(104,30,ls),
(106,10,o),
(118,0,o),
(138,0,cs),
(264,0,ls),
(285,0,o),
(299,9,o),
(308,30,cs),
(439,337,ls),
(443,347,o),
(451,346,o),
(451,337,cs),
(472,30,ls),
(473,9,o),
(484,0,o),
(505,0,cs),
(632,0,ls),
(652,0,o),
(668,10,o),
(676,30,cs),
(907,547,ls),
(910,554,o),
(907,558,o),
(900,558,cs),
(783,558,ls),
(762,558,o),
(747,548,o),
(740,527,cs),
(613,189,ls),
(610,180,o),
(601,179,o),
(601,188,cs),
(580,528,ls),
(579,549,o),
(568,558,o),
(547,558,cs),
(428,558,ls),
(407,558,o),
(393,547,o),
(385,527,cs),
(245,187,ls),
(241,178,o),
(232,178,o),
(232,187,cs),
(225,527,ls),
(224,548,o),
(213,558,o),
(192,558,cs),
(65,558,ls),
(58,558,o),
(53,554,o),
(54,547,cs)
);
}
);
width = 866;
}
);
note = w;
unicode = 119;
},
{
glyphname = x;
lastChange = "2022-10-20 15:43:06 +0000";
layers = (
{
layerId = m01;
shapes = (
{
closed = 1;
nodes = (
(340,6,ls),
(342,1,o),
(346,0,o),
(351,0,cs),
(520,0,ls),
(528,0,o),
(532,6,o),
(529,12,cs),
(404,253,ls),
(396,270,o),
(398,286,o),
(412,302,cs),
(618,546,ls),
(623,552,o),
(621,558,o),
(613,558,cs),
(451,558,ls),
(446,558,o),
(442,555,o),
(438,551,cs),
(356,443,ls),
(339,420,o),
(318,419,o),
(307,441,cs),
(249,552,ls),
(247,557,o),
(243,558,o),
(238,558,cs),
(69,558,ls),
(61,558,o),
(57,552,o),
(60,546,cs),
(182,309,ls),
(190,293,o),
(189,277,o),
(175,260,cs),
(-29,12,ls),
(-34,5,o),
(-33,0,o),
(-25,0,cs),
(138,0,ls),
(143,0,o),
(147,3,o),
(151,7,cs),
(233,116,ls),
(250,139,o),
(271,140,o),
(283,118,cs)
);
}
);
width = 588;
}
);
note = x;
unicode = 120;
},
{
glyphname = y;
lastChange = "2022-10-20 15:43:06 +0000";
layers = (
{
layerId = m01;
shapes = (
{
closed = 1;
nodes = (
(330,209,l),
(264,550,ls),
(263,556,o),
(260,558,o),
(255,558,cs),
(85,558,ls),
(78,558,o),
(73,553,o),
(74,546,cs),
(204,19,l),
(33,-253,ls),
(28,-260,o),
(31,-265,o),
(38,-265,cs),
(201,-265,ls),
(206,-265,o),
(211,-263,o),
(214,-257,cs),
(697,546,ls),
(702,553,o),
(699,558,o),
(692,558,cs),
(550,558,ls),
(530,558,o),
(515,549,o),
(505,530,cs)
);
}
);
width = 632;
}
);
note = y;
unicode = 121;
},
{
glyphname = z;
lastChange = "2022-10-20 15:43:06 +0000";
layers = (
{
layerId = m01;
shapes = (
{
closed = 1;
nodes = (
(506,548,ls),
(507,554,o),
(504,558,o),
(498,558,cs),
(92,558,ls),
(86,558,o),
(81,554,o),
(80,548,cs),
(64,452,ls),
(60,430,o),
(70,417,o),
(92,417,cs),
(287,417,l),
(6,136,l),
(-16,10,ls),
(-17,4,o),
(-14,0,o),
(-8,0,cs),
(405,0,ls),
(411,0,o),
(416,4,o),
(417,10,cs),
(433,106,ls),
(437,128,o),
(427,141,o),
(405,141,cs),
(198,141,l),
(484,422,l)
);
}
);
width = 496;
}
);
note = z;
unicode = 122;
},
{
glyphname = braceleft;
lastChange = "2022-10-20 15:43:06 +0000";
layers = (
{
layerId = m01;
shapes = (
{
closed = 1;
nodes = (
(150,145,o),
(111,46,o),
(98,-30,cs),
(77,-147,o),
(143,-211,o),
(257,-211,cs),
(329,-211,l),
(354,-71,l),
(315,-71,ls),
(272,-71,o),
(258,-51,o),
(265,-13,cs),
(274,41,o),
(309,143,o),
(322,213,cs),
(334,285,o),
(310,336,o),
(239,351,c),
(239,353,l),
(316,367,o),
(358,419,o),
(370,490,cs),
(383,560,o),
(384,663,o),
(393,717,cs),
(400,755,o),
(420,774,o),
(463,774,cs),
(502,774,l),
(527,914,l),
(455,914,ls),
(341,914,o),
(253,850,o),
(232,734,cs),
(219,658,o),
(223,559,o),
(212,497,cs),
(203,450,o),
(171,423,o),
(103,420,c),
(79,284,l),
(146,281,o),
(168,251,o),
(161,207,cs)
);
}
);
width = 499;
}
);
note = braceleft;
unicode = 123;
},
{
glyphname = bar;
lastChange = "2022-10-20 15:43:06 +0000";
layers = (
{
layerId = m01;
shapes = (
{
closed = 1;
nodes = (
(143,815,l),
(-23,-129,l),
(148,-129,l),
(314,815,l)
);
}
);
width = 291;
}
);
note = bar;
unicode = 124;
},
{
glyphname = braceright;
lastChange = "2022-10-20 15:43:06 +0000";
layers = (
{
layerId = m01;
shapes = (
{
closed = 1;
nodes = (
(277,145,o),
(280,46,o),
(267,-30,cs),
(246,-147,o),
(158,-211,o),
(44,-211,cs),
(-28,-211,l),
(-3,-71,l),
(36,-71,ls),
(79,-71,o),
(99,-51,o),
(106,-13,cs),
(115,41,o),
(116,143,o),
(129,213,cs),
(141,285,o),
(183,336,o),
(260,351,c),
(260,353,l),
(189,367,o),
(165,419,o),
(177,490,cs),
(190,560,o),
(225,663,o),
(234,717,cs),
(241,755,o),
(227,774,o),
(184,774,cs),
(145,774,l),
(170,914,l),
(242,914,ls),
(356,914,o),
(422,850,o),
(401,734,cs),
(388,658,o),
(350,559,o),
(339,497,cs),
(330,450,o),
(354,423,o),
(420,420,c),
(396,284,l),
(329,281,o),
(295,251,o),
(288,207,cs)
);
}
);
width = 499;
}
);
note = braceright;
unicode = 125;
},
{
glyphname = asciitilde;
lastChange = "2022-10-20 15:43:06 +0000";
layers = (
{
layerId = m01;
shapes = (
{
closed = 1;
nodes = (
(134,208,l),
(149,253,o),
(176,274,o),
(210,274,cs),
(269,274,o),
(302,208,o),
(390,208,cs),
(489,208,o),
(576,271,o),
(628,425,c),
(501,425,l),
(487,379,o),
(460,359,o),
(426,359,cs),
(368,359,o),
(334,425,o),
(246,425,cs),
(147,425,o),
(61,362,o),
(9,208,c)
);
}
);
width = 636;
}
);
note = asciitilde;
unicode = 126;
},
{
glyphname = exclamdown;
lastChange = "2022-10-20 15:43:06 +0000";
layers = (
{
layerId = m01;
shapes = (
{
closed = 1;
nodes = (
(142,316,l),
(287,316,l),
(222,-163,l),
(37,-163,l)
);
},
{
closed = 1;
nodes = (
(337,427,o),
(289,386,o),
(229,386,cs),
(168,386,o),
(134,427,o),
(144,480,cs),
(153,531,o),
(201,572,o),
(262,572,cs),
(322,572,o),
(356,531,o),
(347,480,cs)
);
}
);
width = 392;
}
);
note = exclamdown;
unicode = 161;
},
{
glyphname = cent;
lastChange = "2022-10-20 15:43:06 +0000";
layers = (
{
layerId = m01;
shapes = (
{
closed = 1;
nodes = (
(393,190,l),
(376,154,o),
(338,133,o),
(292,133,cs),
(224,133,o),
(191,179,o),
(205,256,cs),
(219,333,o),
(268,379,o),
(336,379,cs),
(382,379,o),
(410,360,o),
(417,322,c),
(574,322,l),
(585,435,o),
(504,506,o),
(389,516,c),
(403,597,l),
(339,597,l),
(325,515,l),
(172,502,o),
(68,403,o),
(42,256,cs),
(16,109,o),
(86,10,o),
(233,-3,c),
(219,-85,l),
(283,-85,l),
(297,-4,l),
(416,6,o),
(521,77,o),
(550,190,c)
);
}
);
width = 631;
}
);
note = cent;
unicode = 162;
},
{
glyphname = sterling;
lastChange = "2022-10-20 15:43:06 +0000";
layers = (
{
layerId = m01;
shapes = (
{
closed = 1;
nodes = (
(117,479,o),
(119,438,o),
(122,402,c),
(41,402,l),
(21,287,l),
(130,287,l),
(130,285,ls),
(113,190,o),
(73,134,o),
(3,80,c),
(12,-4,l),
(522,-4,l),
(545,130,l),
(198,130,l),
(256,175,o),
(284,239,o),
(292,284,cs),
(292,287,l),
(448,287,l),
(468,402,l),
(287,402,l),
(283,439,o),
(278,476,o),
(284,510,cs),
(296,576,o),
(334,607,o),
(386,607,cs),
(444,607,o),
(460,570,o),
(453,520,c),
(610,520,l),
(628,647,o),
(567,747,o),
(406,747,cs),
(264,747,o),
(150,666,o),
(125,527,cs)
);
}
);
width = 663;
}
);
note = sterling;
unicode = 163;
},
{
glyphname = currency;
lastChange = "2022-10-20 15:43:06 +0000";
layers = (
{
layerId = m01;
shapes = (
{
closed = 1;
nodes = (
(353,321,o),
(312,296,o),
(274,296,cs),
(235,296,o),
(206,321,o),
(216,377,cs),
(226,434,o),
(265,459,o),
(303,459,cs),
(342,459,o),
(373,434,o),
(363,377,cs)
);
},
{
closed = 1;
nodes = (
(411,150,l),
(488,217,l),
(444,271,l),
(471,300,o),
(490,336,o),
(498,378,cs),
(505,421,o),
(499,458,o),
(482,487,c),
(546,541,l),
(491,608,l),
(414,542,l),
(388,552,o),
(357,558,o),
(322,558,cs),
(286,558,o),
(253,552,o),
(222,541,c),
(166,608,l),
(89,541,l),
(135,485,l),
(108,456,o),
(89,420,o),
(82,378,cs),
(75,337,o),
(80,301,o),
(96,272,c),
(31,217,l),
(86,150,l),
(161,214,l),
(188,202,o),
(220,196,o),
(257,196,cs),
(293,196,o),
(327,202,o),
(358,214,c)
);
}
);
width = 577;
}
);
note = currency;
unicode = 164;
},
{
glyphname = yen;
lastChange = "2022-10-20 15:43:06 +0000";
layers = (
{
layerId = m01;
shapes = (
{
closed = 1;
nodes = (
(583,134,l),
(603,248,l),
(411,248,l),
(454,309,l),
(614,310,l),
(634,425,l),
(534,425,l),
(726,702,l),
(534,702,l),
(344,391,l),
(263,702,l),
(69,702,l),
(163,425,l),
(63,425,l),
(43,310,l),
(203,309,l),
(224,248,l),
(32,248,l),
(12,134,l),
(212,134,l),
(188,0,l),
(359,0,l),
(383,134,l)
);
}
);
width = 671;
}
);
note = yen;
unicode = 165;
},
{
glyphname = brokenbar;
lastChange = "2022-10-20 15:43:06 +0000";
layers = (
{
layerId = m01;
shapes = (
{
closed = 1;
nodes = (
(94,281,l),
(22,-129,l),
(193,-129,l),
(265,281,l)
);
},
{
closed = 1;
nodes = (
(287,405,l),
(359,815,l),
(188,815,l),
(116,405,l)
);
}
);
width = 381;
}
);
note = brokenbar;
unicode = 166;
},
{
glyphname = section;
lastChange = "2022-10-20 15:43:06 +0000";
layers = (
{
layerId = m01;
shapes = (
{
closed = 1;
nodes = (
(107,479,o),
(123,433,o),
(163,394,c),
(80,364,o),
(41,307,o),
(30,244,cs),
(15,160,o),
(67,104,o),
(163,59,cs),
(272,8,o),
(304,-14,o),
(296,-55,cs),
(290,-89,o),
(267,-104,o),
(232,-104,cs),
(197,-104,o),
(180,-83,o),
(186,-35,c),
(17,-35,l),
(2,-149,o),
(72,-224,o),
(208,-224,cs),
(354,-224,o),
(452,-147,o),
(470,-45,cs),
(480,9,o),
(463,56,o),
(424,94,c),
(508,130,o),
(546,181,o),
(557,244,cs),
(572,328,o),
(520,384,o),
(424,429,cs),
(315,480,o),
(283,502,o),
(291,543,cs),
(297,577,o),
(320,592,o),
(355,592,cs),
(390,592,o),
(407,571,o),
(401,523,c),
(570,523,l),
(585,637,o),
(515,712,o),
(379,712,cs),
(233,712,o),
(135,635,o),
(117,533,cs)
);
},
{
closed = 1;
nodes = (
(369,201,o),
(332,166,o),
(280,166,cs),
(228,166,o),
(203,201,o),
(211,244,cs),
(219,287,o),
(256,322,o),
(308,322,cs),
(360,322,o),
(385,287,o),
(377,244,cs)
);
}
);
width = 587;
}
);
note = section;
unicode = 167;
},
{
glyphname = dieresis;
lastChange = "2022-10-20 15:43:06 +0000";
layers = (
{
layerId = m01;
shapes = (
{
closed = 1;
nodes = (
(112,620,o),
(150,652,o),
(157,693,cs),
(164,735,o),
(138,767,o),
(96,767,cs),
(55,767,o),
(17,735,o),
(10,693,cs),
(3,652,o),
(29,620,o),
(70,620,cs)
);
},
{
closed = 1;
nodes = (
(312,620,o),
(350,652,o),
(357,693,cs),
(364,735,o),
(338,767,o),
(296,767,cs),
(255,767,o),
(217,735,o),
(210,693,cs),
(203,652,o),
(229,620,o),
(270,620,cs)
);
}
);
width = 367;
}
);
note = dieresis;
unicode = 168;
},
{
glyphname = copyright;
lastChange = "2022-10-20 15:43:06 +0000";
layers = (
{
layerId = m01;
shapes = (
{
closed = 1;
nodes = (
(1,142,o),
(118,-7,o),
(327,-7,cs),
(536,-7,o),
(705,142,o),
(742,353,cs),
(779,564,o),
(662,712,o),
(453,712,cs),
(244,712,o),
(75,564,o),
(38,353,cs)
);
},
{
closed = 1;
nodes = (
(650,170,o),
(516,49,o),
(336,49,cs),
(156,49,o),
(66,170,o),
(98,353,cs),
(131,538,o),
(264,656,o),
(444,656,cs),
(624,656,o),
(715,538,o),
(682,353,cs)
);
},
{
closed = 1;
nodes = (
(464,414,l),
(460,443,o),
(440,463,o),
(405,463,cs),
(357,463,o),
(320,427,o),
(307,353,cs),
(294,280,o),
(319,243,o),
(367,243,cs),
(405,243,o),
(427,264,o),
(442,292,c),
(589,292,l),
(551,193,o),
(457,128,o),
(351,128,cs),
(222,128,o),
(145,215,o),
(169,353,cs),
(193,491,o),
(302,578,o),
(431,578,cs),
(537,578,o),
(608,516,o),
(611,414,c)
);
}
);
width = 779;
}
);
note = copyright;
unicode = 169;
},
{
glyphname = ordfeminine;
lastChange = "2022-10-20 15:43:06 +0000";
layers = (
{
layerId = m01;
shapes = (
{
closed = 1;
nodes = (
(218,349,o),
(258,368,o),
(286,396,c),
(279,354,l),
(408,354,l),
(470,706,l),
(341,706,l),
(333,662,l),
(314,691,o),
(281,711,o),
(223,711,cs),
(131,711,o),
(45,642,o),
(25,530,cs),
(5,418,o),
(67,349,o),
(162,349,cs)
);
},
{
closed = 1;
nodes = (
(288,609,o),
(319,582,o),
(310,530,cs),
(301,478,o),
(260,450,o),
(220,450,cs),
(180,450,o),
(149,477,o),
(158,529,cs),
(167,581,o),
(208,609,o),
(248,609,cs)
);
}
);
width = 469;
}
);
note = ordfeminine;
unicode = 170;
},
{
glyphname = guillemotleft;
lastChange = "2022-10-20 15:43:06 +0000";
layers = (
{
layerId = m01;
shapes = (
{
closed = 1;
nodes = (
(200,295,l),
(318,470,l),
(160,470,l),
(45,295,l),
(98,120,l),
(256,120,l)
);
},
{
closed = 1;
nodes = (
(425,295,l),
(543,470,l),
(385,470,l),
(270,295,l),
(323,120,l),
(481,120,l)
);
}
);
width = 557;
}
);
note = guillemotleft;
unicode = 171;
},
{
glyphname = logicalnot;
lastChange = "2022-10-20 15:43:06 +0000";
layers = (
{
layerId = m01;
shapes = (
{
closed = 1;
nodes = (
(47,312,l),
(491,312,l),
(468,180,l),
(639,180,l),
(685,442,l),
(70,442,l)
);
}
);
width = 717;
}
);
note = logicalnot;
unicode = 172;
},
{
glyphname = uni00AD;
lastChange = "2022-10-20 15:43:06 +0000";
layers = (
{
layerId = m01;
shapes = (
{
closed = 1;
nodes = (
(39,280,l),
(479,280,l),
(505,422,l),
(65,422,l)
);
}
);
width = 580;
}
);
note = uni00AD;
unicode = 173;
},
{
glyphname = registered;
lastChange = "2022-10-20 15:43:06 +0000";
layers = (
{
layerId = m01;
shapes = (
{
closed = 1;
nodes = (
(381,657,o),
(432,593,o),
(415,497,cs),
(398,402,o),
(325,337,o),
(229,337,cs),
(132,337,o),
(82,402,o),
(99,497,cs),
(116,593,o),
(188,657,o),
(285,657,cs)
);
},
{
closed = 1;
nodes = (
(346,281,o),
(452,371,o),
(474,497,cs),
(496,624,o),
(422,713,o),
(295,713,cs),
(168,713,o),
(61,624,o),
(39,497,cs),
(17,371,o),
(92,281,o),
(219,281,cs)
);
},
{
closed = 1;
nodes = (
(368,579,o),
(342,606,o),
(296,606,cs),
(185,606,l),
(148,394,l),
(220,394,l),
(233,468,l),
(239,468,l),
(266,394,l),
(348,394,l),
(311,476,l),
(337,487,o),
(356,509,o),
(361,537,cs)
);
},
{
closed = 1;
nodes = (
(274,546,ls),
(283,546,o),
(289,542,o),
(287,532,cs),
(285,521,o),
(278,517,o),
(269,517,cs),
(241,517,l),
(246,546,l)
);
}
);
width = 514;
}
);
note = registered;
unicode = 174;
},
{
glyphname = macron;
lastChange = "2022-10-20 15:43:06 +0000";
layers = (
{
layerId = m01;
shapes = (
{
closed = 1;
nodes = (
(0,628,l),
(400,628,l),
(420,746,l),
(20,746,l)
);
}
);
width = 420;
}
);
note = macron;
unicode = 175;
},
{
glyphname = degree;
lastChange = "2022-10-20 15:43:06 +0000";
layers = (
{
layerId = m01;
shapes = (
{
closed = 1;
nodes = (
(6,418,o),
(79,347,o),
(201,347,cs),
(323,347,o),
(419,418,o),
(438,529,cs),
(458,641,o),
(386,709,o),
(264,709,cs),
(142,709,o),
(45,641,o),
(25,529,cs)
);
},
{
closed = 1;
nodes = (
(295,467,o),
(253,440,o),
(217,440,cs),
(180,440,o),
(146,467,o),
(157,528,cs),
(168,590,o),
(211,617,o),
(248,617,cs),
(284,617,o),
(317,590,o),
(306,528,cs)
);
}
);
width = 463;
}
);
note = degree;
unicode = 176;
},
{
glyphname = plusminus;
lastChange = "2022-10-20 15:43:06 +0000";
layers = (
{
layerId = m01;
shapes = (
{
closed = 1;
nodes = (
(279,626,l),
(259,509,l),
(85,509,l),
(58,357,l),
(232,357,l),
(215,262,l),
(41,262,l),
(15,111,l),
(525,111,l),
(551,262,l),
(377,262,l),
(394,357,l),
(568,357,l),
(595,509,l),
(421,509,l),
(441,626,l)
);
}
);
width = 629;
}
);
note = plusminus;
unicode = 177;
},
{
glyphname = twosuperior;
lastChange = "2022-10-20 15:43:06 +0000";
layers = (
{
layerId = m01;
shapes = (
{
closed = 1;
nodes = (
(171,586,l),
(177,609,o),
(190,622,o),
(208,622,cs),
(223,622,o),
(231,611,o),
(228,594,cs),
(223,568,o),
(200,545,o),
(159,522,cs),
(24,448,l),
(7,352,l),
(316,352,l),
(334,452,l),
(160,452,l),
(226,482,ls),
(316,522,o),
(357,554,o),
(365,603,cs),
(375,657,o),
(340,714,o),
(237,714,cs),
(132,714,o),
(61,661,o),
(43,586,c)
);
}
);
width = 383;
}
);
note = twosuperior;
unicode = 178;
},
{
glyphname = threesuperior;
lastChange = "2022-10-20 15:43:06 +0000";
layers = (
{
layerId = m01;
shapes = (
{
closed = 1;
nodes = (
(154,592,l),
(160,613,o),
(172,623,o),
(191,623,cs),
(211,623,o),
(220,612,o),
(217,594,cs),
(213,571,o),
(197,561,o),
(172,561,cs),
(144,561,l),
(134,505,l),
(168,505,ls),
(192,505,o),
(205,494,o),
(201,471,cs),
(198,449,o),
(183,439,o),
(165,439,cs),
(146,439,o),
(135,448,o),
(137,470,c),
(4,470,l),
(-4,396,o),
(39,348,o),
(157,348,cs),
(253,348,o),
(324,387,o),
(335,449,cs),
(342,491,o),
(321,517,o),
(275,530,c),
(275,533,l),
(319,542,o),
(349,567,o),
(357,609,cs),
(367,669,o),
(314,714,o),
(221,714,cs),
(105,714,o),
(45,656,o),
(32,592,c)
);
}
);
width = 374;
}
);
note = threesuperior;
unicode = 179;
},
{
glyphname = acute;
lastChange = "2022-10-20 15:43:06 +0000";
layers = (
{
layerId = m01;
shapes = (
{
closed = 1;
nodes = (
(10,714,l),
(-11,596,l),
(248,697,l),
(272,830,l)
);
}
);
width = 261;
}
);
note = acute;
unicode = 180;
},
{
glyphname = uni00B5;
lastChange = "2022-10-20 15:43:06 +0000";
layers = (
{
layerId = m01;
shapes = (
{
closed = 1;
nodes = (
(703,558,l),
(532,558,l),
(478,255,ls),
(465,182,o),
(416,142,o),
(351,142,cs),
(286,142,o),
(251,182,o),
(264,255,cs),
(318,558,l),
(148,558,l),
(2,-266,l),
(172,-266,l),
(220,2,l),
(233,-3,o),
(247,-6,o),
(263,-6,cs),
(341,-6,o),
(406,29,o),
(448,82,c),
(433,0,l),
(604,0,l)
);
}
);
width = 705;
}
);
note = uni00B5;
unicode = 181;
},
{
glyphname = paragraph;
lastChange = "2022-10-20 15:43:06 +0000";
layers = (
{
layerId = m01;
shapes = (
{
closed = 1;
nodes = (
(328,702,ls),
(159,702,o),
(72,598,o),
(52,487,cs),
(32,376,o),
(83,273,o),
(252,273,cs),
(275,273,l),
(227,0,l),
(368,0,l),
(469,572,l),
(531,572,l),
(430,0,l),
(571,0,l),
(695,702,l)
);
}
);
width = 708;
}
);
note = paragraph;
unicode = 182;
},
{
glyphname = periodcentered;
lastChange = "2022-10-20 15:43:06 +0000";
layers = (
{
layerId = m01;
shapes = (
{
closed = 1;
nodes = (
(262,367,o),
(228,408,o),
(168,408,cs),
(107,408,o),
(59,367,o),
(50,314,cs),
(41,263,o),
(75,222,o),
(136,222,cs),
(196,222,o),
(244,263,o),
(253,314,cs)
);
}
);
width = 299;
}
);
note = periodcentered;
unicode = 183;
},
{
glyphname = cedilla;
lastChange = "2022-10-20 15:43:06 +0000";
layers = (
{
layerId = m01;
shapes = (
{
closed = 1;
nodes = (
(197,7,l),
(94,7,l),
(71,-122,l),
(142,-122,ls),
(167,-122,o),
(181,-128,o),
(178,-147,cs),
(174,-167,o),
(158,-173,o),
(133,-173,cs),
(2,-173,l),
(-14,-267,l),
(140,-267,ls),
(209,-267,o),
(285,-233,o),
(299,-151,cs),
(314,-68,o),
(249,-37,o),
(189,-37,c)
);
}
);
width = 313;
}
);
note = cedilla;
unicode = 184;
},
{
glyphname = onesuperior;
lastChange = "2022-10-20 15:43:06 +0000";
layers = (
{
layerId = m01;
shapes = (
{
closed = 1;
nodes = (
(49,352,l),
(178,352,l),
(240,704,l),
(51,704,l),
(34,605,l),
(94,605,l)
);
}
);
width = 249;
}
);
note = onesuperior;
unicode = 185;
},
{
glyphname = ordmasculine;
lastChange = "2022-10-20 15:43:06 +0000";
layers = (
{
layerId = m01;
shapes = (
{
closed = 1;
nodes = (
(6,423,o),
(74,347,o),
(196,347,cs),
(318,347,o),
(414,423,o),
(433,529,cs),
(452,635,o),
(383,709,o),
(261,709,cs),
(139,709,o),
(44,635,o),
(25,529,cs)
);
},
{
closed = 1;
nodes = (
(291,474,o),
(252,447,o),
(214,447,cs),
(175,447,o),
(147,474,o),
(157,528,cs),
(167,584,o),
(204,610,o),
(242,610,cs),
(281,610,o),
(311,584,o),
(301,528,cs)
);
}
);
width = 458;
}
);
note = ordmasculine;
unicode = 186;
},
{
glyphname = guillemotright;
lastChange = "2022-10-20 15:43:06 +0000";
layers = (
{
layerId = m01;
shapes = (
{
closed = 1;
nodes = (
(402,120,l),
(517,295,l),
(464,470,l),
(306,470,l),
(362,295,l),
(244,120,l)
);
},
{
closed = 1;
nodes = (
(177,120,l),
(292,295,l),
(239,470,l),
(81,470,l),
(137,295,l),
(19,120,l)
);
}
);
width = 557;
}
);
note = guillemotright;
unicode = 187;
},
{
glyphname = onequarter;
lastChange = "2022-10-20 15:43:06 +0000";
layers = (
{
layerId = m01;
shapes = (
{
closed = 1;
nodes = (
(26,0,l),
(191,0,l),
(700,702,l),
(535,702,l)
);
},
{
closed = 1;
nodes = (
(678,135,l),
(716,352,l),
(538,352,l),
(353,130,l),
(341,62,l),
(536,62,l),
(525,0,l),
(654,0,l),
(665,62,l),
(705,62,l),
(718,135,l)
);
},
{
closed = 1;
nodes = (
(477,138,l),
(578,267,l),
(555,138,l)
);
},
{
closed = 1;
nodes = (
(100,352,l),
(229,352,l),
(291,704,l),
(102,704,l),
(85,605,l),
(145,605,l)
);
}
);
width = 786;
}
);
note = onequarter;
unicode = 188;
},
{
glyphname = onehalf;
lastChange = "2022-10-20 15:43:06 +0000";
layers = (
{
layerId = m01;
shapes = (
{
closed = 1;
nodes = (
(26,0,l),
(191,0,l),
(700,704,l),
(535,704,l)
);
},
{
closed = 1;
nodes = (
(100,352,l),
(229,352,l),
(291,704,l),
(102,704,l),
(85,605,l),
(145,605,l)
);
},
{
closed = 1;
nodes = (
(550,233,l),
(556,256,o),
(568,269,o),
(586,269,cs),
(601,269,o),
(610,258,o),
(607,241,cs),
(602,215,o),
(579,192,o),
(538,169,cs),
(403,95,l),
(386,-1,l),
(695,-1,l),
(712,99,l),
(538,99,l),
(605,129,ls),
(695,169,o),
(735,201,o),
(744,250,cs),
(754,304,o),
(719,361,o),
(616,361,cs),
(511,361,o),
(439,308,o),
(422,233,c)
);
}
);
width = 821;
}
);
note = onehalf;
unicode = 189;
},
{
glyphname = threequarters;
lastChange = "2022-10-20 15:43:06 +0000";
layers = (
{
layerId = m01;
shapes = (
{
closed = 1;
nodes = (
(140,0,l),
(305,0,l),
(814,704,l),
(649,704,l)
);
},
{
closed = 1;
nodes = (
(792,135,l),
(830,352,l),
(641,352,l),
(467,130,l),
(455,62,l),
(650,62,l),
(639,0,l),
(768,0,l),
(779,62,l),
(819,62,l),
(832,135,l)
);
},
{
closed = 1;
nodes = (
(591,135,l),
(694,277,l),
(669,135,l)
);
},
{
closed = 1;
nodes = (
(219,592,l),
(226,613,o),
(238,623,o),
(257,623,cs),
(277,623,o),
(286,612,o),
(283,594,cs),
(279,571,o),
(263,561,o),
(238,561,cs),
(210,561,l),
(200,505,l),
(234,505,ls),
(258,505,o),
(271,494,o),
(267,471,cs),
(263,449,o),
(248,439,o),
(230,439,cs),
(211,439,o),
(201,448,o),
(203,470,c),
(70,470,l),
(62,396,o),
(104,348,o),
(222,348,cs),
(318,348,o),
(389,387,o),
(400,449,cs),
(408,491,o),
(386,517,o),
(341,530,c),
(341,533,l),
(385,542,o),
(415,567,o),
(422,609,cs),
(433,669,o),
(380,714,o),
(287,714,cs),
(171,714,o),
(111,656,o),
(97,592,c)
);
}
);
width = 891;
}
);
note = threequarters;
unicode = 190;
},
{
glyphname = questiondown;
lastChange = "2022-10-20 15:43:06 +0000";
layers = (
{
layerId = m01;
shapes = (
{
closed = 1;
nodes = (
(320,39,l),
(312,-7,o),
(280,-37,o),
(231,-37,cs),
(187,-37,o),
(164,-9,o),
(172,36,cs),
(183,109,o),
(251,126,o),
(345,126,cs),
(405,126,l),
(433,312,l),
(283,312,l),
(265,237,l),
(134,236,o),
(28,166,o),
(6,37,cs),
(-19,-102,o),
(65,-177,o),
(204,-177,cs),
(362,-177,o),
(463,-81,o),
(481,39,c)
);
},
{
closed = 1;
nodes = (
(275,427,o),
(309,386,o),
(369,386,cs),
(430,386,o),
(478,427,o),
(488,480,cs),
(497,531,o),
(463,572,o),
(402,572,cs),
(342,572,o),
(294,531,o),
(285,480,cs)
);
}
);
width = 538;
}
);
note = questiondown;
unicode = 191;
},
{
glyphname = Agrave;
lastChange = "2022-10-20 15:43:06 +0000";
layers = (
{
layerId = m01;
shapes = (
{
closed = 1;
nodes = (
(455,0,l),
(636,0,l),
(506,702,l),
(308,702,l),
(-70,0,l),
(109,0,l),
(173,124,l),
(435,124,l)
);
},
{
closed = 1;
nodes = (
(307,843,l),
(530,742,l),
(551,860,l),
(330,976,l)
);
},
{
closed = 1;
nodes = (
(414,256,l),
(241,256,l),
(372,513,l)
);
}
);
width = 737;
}
);
note = Agrave;
unicode = 192;
},
{
glyphname = Aacute;
lastChange = "2022-10-20 15:43:06 +0000";
layers = (
{
layerId = m01;
shapes = (
{
closed = 1;
nodes = (
(455,0,l),
(636,0,l),
(506,702,l),
(308,702,l),
(-70,0,l),
(109,0,l),
(173,124,l),
(435,124,l)
);
},
{
closed = 1;
nodes = (
(310,860,l),
(289,742,l),
(548,843,l),
(571,976,l)
);
},
{
closed = 1;
nodes = (
(414,256,l),
(241,256,l),
(372,513,l)
);
}
);
width = 737;
}
);
note = Aacute;
unicode = 193;
},
{
glyphname = Acircumflex;
lastChange = "2022-10-20 15:43:06 +0000";
layers = (
{
layerId = m01;
shapes = (
{
closed = 1;
nodes = (
(458,0,l),
(639,0,l),
(509,702,l),
(311,702,l),
(-67,0,l),
(112,0,l),
(176,124,l),
(438,124,l)
);
},
{
closed = 1;
nodes = (
(593,860,l),
(452,939,l),
(283,860,l),
(262,742,l),
(432,824,l),
(572,742,l)
);
},
{
closed = 1;
nodes = (
(417,256,l),
(244,256,l),
(376,513,l)
);
}
);
width = 737;
}
);
note = Acircumflex;
unicode = 194;
},
{
glyphname = Atilde;
lastChange = "2022-10-20 15:43:06 +0000";
layers = (
{
layerId = m01;
shapes = (
{
closed = 1;
nodes = (
(462,0,l),
(643,0,l),
(513,702,l),
(315,702,l),
(-63,0,l),
(116,0,l),
(180,124,l),
(442,124,l)
);
},
{
closed = 1;
nodes = (
(309,751,l),
(320,782,o),
(338,796,o),
(361,796,cs),
(401,796,o),
(424,751,o),
(484,751,cs),
(554,751,o),
(613,794,o),
(648,899,c),
(560,899,l),
(551,868,o),
(532,854,o),
(509,854,cs),
(469,854,o),
(446,899,o),
(386,899,cs),
(315,899,o),
(258,856,o),
(222,751,c)
);
},
{
closed = 1;
nodes = (
(421,256,l),
(248,256,l),
(379,513,l)
);
}
);
width = 737;
}
);
note = Atilde;
unicode = 195;
},
{
glyphname = Adieresis;
lastChange = "2022-10-20 15:43:06 +0000";
layers = (
{
layerId = m01;
shapes = (
{
closed = 1;
nodes = (
(461,0,l),
(642,0,l),
(511,702,l),
(313,702,l),
(-64,0,l),
(115,0,l),
(178,124,l),
(440,124,l)
);
},
{
closed = 1;
nodes = (
(365,766,o),
(402,798,o),
(409,839,cs),
(417,881,o),
(390,913,o),
(348,913,cs),
(307,913,o),
(270,881,o),
(262,839,cs),
(255,798,o),
(282,766,o),
(323,766,cs)
);
},
{
closed = 1;
nodes = (
(565,766,o),
(602,798,o),
(609,839,cs),
(617,881,o),
(590,913,o),
(548,913,cs),
(507,913,o),
(470,881,o),
(462,839,cs),
(455,798,o),
(482,766,o),
(523,766,cs)
);
},
{
closed = 1;
nodes = (
(420,256,l),
(247,256,l),
(378,513,l)
);
}
);
width = 737;
}
);
note = Adieresis;
unicode = 196;
},
{
glyphname = Aring;
lastChange = "2022-10-20 15:43:06 +0000";
layers = (
{
layerId = m01;
shapes = (
{
closed = 1;
nodes = (
(454,0,l),
(635,0,l),
(505,702,l),
(307,702,l),
(-71,0,l),
(108,0,l),
(172,124,l),
(434,124,l)
);
},
{
closed = 1;
nodes = (
(400,817,o),
(383,837,o),
(388,866,cs),
(393,896,o),
(417,915,o),
(443,915,cs),
(470,915,o),
(488,896,o),
(483,866,cs),
(478,837,o),
(453,817,o),
(426,817,cs)
);
},
{
closed = 1;
nodes = (
(389,987,o),
(326,941,o),
(313,866,cs),
(299,791,o),
(346,745,o),
(413,745,cs),
(481,745,o),
(544,791,o),
(558,866,cs),
(571,941,o),
(524,987,o),
(456,987,cs)
);
},
{
closed = 1;
nodes = (
(413,256,l),
(240,256,l),
(371,513,l)
);
}
);
width = 737;
}
);
note = Aring;
unicode = 197;
},
{
glyphname = AE;
lastChange = "2022-10-20 15:43:06 +0000";
layers = (
{
layerId = m01;
shapes = (
{
closed = 1;
nodes = (
(521,575,l),
(464,248,l),
(299,248,l)
);
},
{
closed = 1;
nodes = (
(944,567,l),
(968,702,l),
(427,702,l),
(-56,0,l),
(129,0,l),
(210,118,l),
(441,118,l),
(420,0,l),
(844,0,l),
(868,135,l),
(615,135,l),
(643,293,l),
(866,293,l),
(889,423,l),
(666,423,l),
(691,567,l)
);
}
);
width = 955;
}
);
note = AE;
unicode = 198;
},
{
glyphname = Ccedilla;
lastChange = "2022-10-20 15:43:06 +0000";
layers = (
{
layerId = m01;
shapes = (
{
closed = 1;
nodes = (
(22,159,o),
(121,19,o),
(298,-2,c),
(276,-126,l),
(347,-126,ls),
(372,-126,o),
(386,-132,o),
(383,-151,cs),
(379,-171,o),
(363,-177,o),
(338,-177,cs),
(207,-177,l),
(191,-271,l),
(345,-271,ls),
(414,-271,o),
(490,-237,o),
(504,-155,cs),
(519,-72,o),
(454,-41,o),
(394,-41,c),
(401,-2,l),
(544,16,o),
(663,105,o),
(723,240,c),
(535,240,l),
(495,180,o),
(437,150,o),
(372,150,cs),
(267,150,o),
(208,228,o),
(230,352,cs),
(252,476,o),
(338,554,o),
(443,554,cs),
(508,554,o),
(556,524,o),
(574,464,c),
(762,464,l),
(749,616,o),
(639,710,o),
(472,710,cs),
(265,710,o),
(93,562,o),
(56,352,cs)
);
}
);
width = 762;
}
);
note = Ccedilla;
unicode = 199;
},
{
glyphname = Egrave;
lastChange = "2022-10-20 15:43:06 +0000";
layers = (
{
layerId = m01;
shapes = (
{
closed = 1;
nodes = (
(530,702,l),
(100,702,l),
(-24,0,l),
(406,0,l),
(430,137,l),
(171,137,l),
(198,291,l),
(427,291,l),
(451,423,l),
(222,423,l),
(247,565,l),
(506,565,l)
);
},
{
closed = 1;
nodes = (
(211,843,l),
(434,742,l),
(455,860,l),
(234,976,l)
);
}
);
width = 541;
}
);
note = Egrave;
unicode = 200;
},
{
glyphname = Eacute;
lastChange = "2022-10-20 15:43:06 +0000";
layers = (
{
layerId = m01;
shapes = (
{
closed = 1;
nodes = (
(530,702,l),
(100,702,l),
(-24,0,l),
(406,0,l),
(430,137,l),
(171,137,l),
(198,291,l),
(427,291,l),
(451,423,l),
(222,423,l),
(247,565,l),
(506,565,l)
);
},
{
closed = 1;
nodes = (
(214,860,l),
(193,742,l),
(452,843,l),
(475,976,l)
);
}
);
width = 541;
}
);
note = Eacute;
unicode = 201;
},
{
glyphname = Ecircumflex;
lastChange = "2022-10-20 15:43:06 +0000";
layers = (
{
layerId = m01;
shapes = (
{
closed = 1;
nodes = (
(533,702,l),
(103,702,l),
(-21,0,l),
(409,0,l),
(433,137,l),
(174,137,l),
(202,291,l),
(431,291,l),
(454,423,l),
(225,423,l),
(250,565,l),
(509,565,l)
);
},
{
closed = 1;
nodes = (
(496,860,l),
(355,939,l),
(186,860,l),
(165,742,l),
(335,824,l),
(475,742,l)
);
}
);
width = 541;
}
);
note = Ecircumflex;
unicode = 202;
},
{
glyphname = Edieresis;
lastChange = "2022-10-20 15:43:06 +0000";
layers = (
{
layerId = m01;
shapes = (
{
closed = 1;
nodes = (
(535,702,l),
(105,702,l),
(-18,0,l),
(412,0,l),
(436,137,l),
(177,137,l),
(204,291,l),
(433,291,l),
(456,423,l),
(227,423,l),
(252,565,l),
(511,565,l)
);
},
{
closed = 1;
nodes = (
(269,766,o),
(306,798,o),
(313,839,cs),
(321,881,o),
(294,913,o),
(252,913,cs),
(211,913,o),
(174,881,o),
(166,839,cs),
(159,798,o),
(186,766,o),
(227,766,cs)
);
},
{
closed = 1;
nodes = (
(469,766,o),
(506,798,o),
(513,839,cs),
(521,881,o),
(494,913,o),
(452,913,cs),
(411,913,o),
(374,881,o),
(366,839,cs),
(359,798,o),
(386,766,o),
(427,766,cs)
);
}
);
width = 541;
}
);
note = Edieresis;
unicode = 203;
},
{
glyphname = Igrave;
lastChange = "2022-10-20 15:43:06 +0000";
layers = (
{
layerId = m01;
shapes = (
{
closed = 1;
nodes = (
(-24,0,l),
(147,0,l),
(271,702,l),
(100,702,l)
);
},
{
closed = 1;
nodes = (
(86,843,l),
(309,742,l),
(330,860,l),
(109,976,l)
);
}
);
width = 295;
}
);
note = Igrave;
unicode = 204;
},
{
glyphname = Iacute;
lastChange = "2022-10-20 15:43:06 +0000";
layers = (
{
layerId = m01;
shapes = (
{
closed = 1;
nodes = (
(-24,0,l),
(147,0,l),
(271,702,l),
(100,702,l)
);
},
{
closed = 1;
nodes = (
(89,860,l),
(68,742,l),
(327,843,l),
(350,976,l)
);
}
);
width = 295;
}
);
note = Iacute;
unicode = 205;
},
{
glyphname = Icircumflex;
lastChange = "2022-10-20 15:43:06 +0000";
layers = (
{
layerId = m01;
shapes = (
{
closed = 1;
nodes = (
(-21,0,l),
(150,0,l),
(274,702,l),
(103,702,l)
);
},
{
closed = 1;
nodes = (
(372,860,l),
(231,939,l),
(62,860,l),
(41,742,l),
(211,824,l),
(351,742,l)
);
}
);
width = 295;
}
);
note = Icircumflex;
unicode = 206;
},
{
glyphname = Idieresis;
lastChange = "2022-10-20 15:43:06 +0000";
layers = (
{
layerId = m01;
shapes = (
{
closed = 1;
nodes = (
(-18,0,l),
(153,0,l),
(276,702,l),
(105,702,l)
);
},
{
closed = 1;
nodes = (
(144,766,o),
(181,798,o),
(188,839,cs),
(196,881,o),
(169,913,o),
(127,913,cs),
(86,913,o),
(49,881,o),
(41,839,cs),
(34,798,o),
(61,766,o),
(102,766,cs)
);
},
{
closed = 1;
nodes = (
(344,766,o),
(381,798,o),
(388,839,cs),
(396,881,o),
(369,913,o),
(327,913,cs),
(286,913,o),
(249,881,o),
(241,839,cs),
(234,798,o),
(261,766,o),
(302,766,cs)
);
}
);
width = 295;
}
);
note = Idieresis;
unicode = 207;
},
{
glyphname = Eth;
lastChange = "2022-10-20 15:43:06 +0000";
layers = (
{
layerId = m01;
shapes = (
{
closed = 1;
nodes = (
(129,702,l),
(80,422,l),
(17,422,l),
(-9,280,l),
(54,280,l),
(5,0,l),
(268,0,ls),
(493,0,o),
(661,143,o),
(698,351,cs),
(735,560,o),
(617,702,o),
(392,702,cs)
);
},
{
closed = 1;
nodes = (
(203,146,l),
(226,280,l),
(378,280,l),
(404,422,l),
(252,422,l),
(275,556,l),
(356,556,ls),
(484,556,o),
(547,480,o),
(524,351,cs),
(501,222,o),
(412,146,o),
(284,146,cs)
);
}
);
width = 732;
}
);
note = Eth;
unicode = 208;
},
{
glyphname = Ntilde;
lastChange = "2022-10-20 15:43:06 +0000";
layers = (
{
layerId = m01;
shapes = (
{
closed = 1;
nodes = (
(564,702,l),
(487,267,l),
(278,702,l),
(107,702,l),
(-17,0,l),
(154,0,l),
(230,433,l),
(440,0,l),
(611,0,l),
(735,702,l)
);
},
{
closed = 1;
nodes = (
(316,751,l),
(327,782,o),
(345,796,o),
(368,796,cs),
(408,796,o),
(431,751,o),
(491,751,cs),
(561,751,o),
(620,794,o),
(655,899,c),
(567,899,l),
(558,868,o),
(539,854,o),
(516,854,cs),
(476,854,o),
(453,899,o),
(393,899,cs),
(322,899,o),
(265,856,o),
(229,751,c)
);
}
);
width = 752;
}
);
note = Ntilde;
unicode = 209;
},
{
glyphname = Ograve;
lastChange = "2022-10-20 15:43:06 +0000";
layers = (
{
layerId = m01;
shapes = (
{
closed = 1;
nodes = (
(767,564,o),
(634,712,o),
(434,712,cs),
(235,712,o),
(47,564,o),
(10,353,cs),
(-27,142,o),
(108,-7,o),
(307,-7,cs),
(506,-7,o),
(693,142,o),
(730,353,cs)
);
},
{
closed = 1;
nodes = (
(207,478,o),
(293,557,o),
(407,557,cs),
(519,557,o),
(578,478,o),
(556,353,cs),
(534,230,o),
(447,149,o),
(335,149,cs),
(221,149,o),
(163,230,o),
(185,353,cs)
);
},
{
closed = 1;
nodes = (
(332,843,l),
(555,742,l),
(576,860,l),
(356,976,l)
);
}
);
width = 786;
}
);
note = Ograve;
unicode = 210;
},
{
glyphname = Oacute;
lastChange = "2022-10-20 15:43:06 +0000";
layers = (
{
layerId = m01;
shapes = (
{
closed = 1;
nodes = (
(767,564,o),
(634,712,o),
(434,712,cs),
(235,712,o),
(47,564,o),
(10,353,cs),
(-27,142,o),
(108,-7,o),
(307,-7,cs),
(506,-7,o),
(693,142,o),
(730,353,cs)
);
},
{
closed = 1;
nodes = (
(207,478,o),
(293,557,o),
(407,557,cs),
(519,557,o),
(578,478,o),
(556,353,cs),
(534,230,o),
(447,149,o),
(335,149,cs),
(221,149,o),
(163,230,o),
(185,353,cs)
);
},
{
closed = 1;
nodes = (
(335,860,l),
(314,742,l),
(573,843,l),
(597,976,l)
);
}
);
width = 786;
}
);
note = Oacute;
unicode = 211;
},
{
glyphname = Ocircumflex;
lastChange = "2022-10-20 15:43:06 +0000";
layers = (
{
layerId = m01;
shapes = (
{
closed = 1;
nodes = (
(770,564,o),
(637,712,o),
(437,712,cs),
(238,712,o),
(50,564,o),
(13,353,cs),
(-24,142,o),
(112,-7,o),
(311,-7,cs),
(510,-7,o),
(696,142,o),
(733,353,cs)
);
},
{
closed = 1;
nodes = (
(210,478,o),
(296,557,o),
(410,557,cs),
(522,557,o),
(581,478,o),
(559,353,cs),
(537,230,o),
(450,149,o),
(338,149,cs),
(224,149,o),
(166,230,o),
(188,353,cs)
);
},
{
closed = 1;
nodes = (
(617,860,l),
(476,939,l),
(307,860,l),
(287,742,l),
(456,824,l),
(597,742,l)
);
}
);
width = 786;
}
);
note = Ocircumflex;
unicode = 212;
},
{
glyphname = Otilde;
lastChange = "2022-10-20 15:43:06 +0000";
layers = (
{
layerId = m01;
shapes = (
{
closed = 1;
nodes = (
(774,564,o),
(641,712,o),
(441,712,cs),
(242,712,o),
(54,564,o),
(17,353,cs),
(-21,142,o),
(115,-7,o),
(314,-7,cs),
(513,-7,o),
(699,142,o),
(737,353,cs)
);
},
{
closed = 1;
nodes = (
(214,478,o),
(300,557,o),
(414,557,cs),
(526,557,o),
(585,478,o),
(563,353,cs),
(541,230,o),
(454,149,o),
(342,149,cs),
(228,149,o),
(170,230,o),
(192,353,cs)
);
},
{
closed = 1;
nodes = (
(334,751,l),
(344,782,o),
(363,796,o),
(386,796,cs),
(426,796,o),
(449,751,o),
(509,751,cs),
(579,751,o),
(637,794,o),
(673,899,c),
(585,899,l),
(575,868,o),
(557,854,o),
(534,854,cs),
(494,854,o),
(471,899,o),
(411,899,cs),
(340,899,o),
(282,856,o),
(247,751,c)
);
}
);
width = 786;
}
);
note = Otilde;
unicode = 213;
},
{
glyphname = Odieresis;
lastChange = "2022-10-20 15:43:06 +0000";
layers = (
{
layerId = m01;
shapes = (
{
closed = 1;
nodes = (
(773,564,o),
(640,712,o),
(440,712,cs),
(241,712,o),
(53,564,o),
(15,353,cs),
(-22,142,o),
(114,-7,o),
(313,-7,cs),
(512,-7,o),
(698,142,o),
(735,353,cs)
);
},
{
closed = 1;
nodes = (
(212,478,o),
(298,557,o),
(412,557,cs),
(524,557,o),
(583,478,o),
(561,353,cs),
(540,230,o),
(452,149,o),
(340,149,cs),
(226,149,o),
(169,230,o),
(190,353,cs)
);
},
{
closed = 1;
nodes = (
(390,766,o),
(428,798,o),
(435,839,cs),
(442,881,o),
(416,913,o),
(374,913,cs),
(333,913,o),
(295,881,o),
(288,839,cs),
(281,798,o),
(307,766,o),
(348,766,cs)
);
},
{
closed = 1;
nodes = (
(590,766,o),
(628,798,o),
(635,839,cs),
(642,881,o),
(616,913,o),
(574,913,cs),
(533,913,o),
(495,881,o),
(488,839,cs),
(481,798,o),
(507,766,o),
(548,766,cs)
);
}
);
width = 786;
}
);
note = Odieresis;
unicode = 214;
},
{
glyphname = multiply;
lastChange = "2022-10-20 15:43:06 +0000";
layers = (
{
layerId = m01;
shapes = (
{
closed = 1;
nodes = (
(137,107,l),
(298,245,l),
(412,106,l),
(544,217,l),
(429,357,l),
(585,490,l),
(493,600,l),
(338,467,l),
(229,600,l),
(97,489,l),
(207,356,l),
(45,217,l)
);
}
);
width = 637;
}
);
note = multiply;
unicode = 215;
},
{
glyphname = Oslash;
lastChange = "2022-10-20 15:43:06 +0000";
layers = (
{
layerId = m01;
shapes = (
{
closed = 1;
nodes = (
(769,449,o),
(751,532,o),
(707,594,c),
(826,704,l),
(722,704,l),
(659,646,l),
(606,688,o),
(537,712,o),
(456,712,cs),
(257,712,o),
(69,564,o),
(32,353,cs),
(15,257,o),
(34,173,o),
(79,111,c),
(-40,1,l),
(64,1,l),
(127,60,l),
(180,17,o),
(250,-7,o),
(330,-7,cs),
(529,-7,o),
(715,142,o),
(752,353,cs)
);
},
{
closed = 1;
nodes = (
(229,478,o),
(315,557,o),
(429,557,cs),
(470,557,o),
(504,546,o),
(530,527,c),
(214,236,l),
(202,268,o),
(199,308,o),
(207,353,cs)
);
},
{
closed = 1;
nodes = (
(316,149,o),
(282,160,o),
(256,179,c),
(572,469,l),
(583,438,o),
(586,398,o),
(578,353,cs),
(556,230,o),
(469,149,o),
(357,149,cs)
);
}
);
width = 786;
}
);
note = Oslash;
unicode = 216;
},
{
glyphname = Ugrave;
lastChange = "2022-10-20 15:43:06 +0000";
layers = (
{
layerId = m01;
shapes = (
{
closed = 1;
nodes = (
(23,283,ls),
(-11,89,o),
(99,-7,o),
(262,-7,cs),
(424,-7,o),
(577,89,o),
(611,283,cs),
(685,702,l),
(514,702,l),
(440,282,ls),
(426,199,o),
(374,151,o),
(293,151,cs),
(212,151,o),
(180,199,o),
(194,282,cs),
(268,702,l),
(97,702,l)
);
},
{
closed = 1;
nodes = (
(291,843,l),
(514,742,l),
(535,860,l),
(315,976,l)
);
}
);
width = 705;
}
);
note = Ugrave;
unicode = 217;
},
{
glyphname = Uacute;
lastChange = "2022-10-20 15:43:06 +0000";
layers = (
{
layerId = m01;
shapes = (
{
closed = 1;
nodes = (
(23,283,ls),
(-11,89,o),
(99,-7,o),
(262,-7,cs),
(424,-7,o),
(577,89,o),
(611,283,cs),
(685,702,l),
(514,702,l),
(440,282,ls),
(426,199,o),
(374,151,o),
(293,151,cs),
(212,151,o),
(180,199,o),
(194,282,cs),
(268,702,l),
(97,702,l)
);
},
{
closed = 1;
nodes = (
(294,860,l),
(273,742,l),
(532,843,l),
(556,976,l)
);
}
);
width = 705;
}
);
note = Uacute;
unicode = 218;
},
{
glyphname = Ucircumflex;
lastChange = "2022-10-20 15:43:06 +0000";
layers = (
{
layerId = m01;
shapes = (
{
closed = 1;
nodes = (
(27,283,ls),
(-7,89,o),
(103,-7,o),
(266,-7,cs),
(428,-7,o),
(581,89,o),
(615,283,cs),
(689,702,l),
(518,702,l),
(444,282,ls),
(429,199,o),
(377,151,o),
(296,151,cs),
(215,151,o),
(183,199,o),
(198,282,cs),
(272,702,l),
(101,702,l)
);
},
{
closed = 1;
nodes = (
(577,860,l),
(436,939,l),
(267,860,l),
(247,742,l),
(416,824,l),
(557,742,l)
);
}
);
width = 705;
}
);
note = Ucircumflex;
unicode = 219;
},
{
glyphname = Udieresis;
lastChange = "2022-10-20 15:43:06 +0000";
layers = (
{
layerId = m01;
shapes = (
{
closed = 1;
nodes = (
(29,283,ls),
(-5,89,o),
(105,-7,o),
(268,-7,cs),
(430,-7,o),
(583,89,o),
(617,283,cs),
(691,702,l),
(520,702,l),
(446,282,ls),
(431,199,o),
(380,151,o),
(299,151,cs),
(218,151,o),
(185,199,o),
(200,282,cs),
(274,702,l),
(103,702,l)
);
},
{
closed = 1;
nodes = (
(349,766,o),
(387,798,o),
(394,839,cs),
(401,881,o),
(375,913,o),
(333,913,cs),
(292,913,o),
(254,881,o),
(247,839,cs),
(240,798,o),
(266,766,o),
(307,766,cs)
);
},
{
closed = 1;
nodes = (
(549,766,o),
(587,798,o),
(594,839,cs),
(601,881,o),
(575,913,o),
(533,913,cs),
(492,913,o),
(454,881,o),
(447,839,cs),
(440,798,o),
(466,766,o),
(507,766,cs)
);
}
);
width = 705;
}
);
note = Udieresis;
unicode = 220;
},
{
glyphname = Yacute;
lastChange = "2022-10-20 15:43:06 +0000";
layers = (
{
layerId = m01;
shapes = (
{
closed = 1;
nodes = (
(205,232,l),
(164,0,l),
(335,0,l),
(376,232,l),
(702,702,l),
(510,702,l),
(323,408,l),
(239,702,l),
(45,702,l)
);
},
{
closed = 1;
nodes = (
(277,860,l),
(256,742,l),
(515,843,l),
(538,976,l)
);
}
);
width = 671;
}
);
note = Yacute;
unicode = 221;
},
{
glyphname = Thorn;
lastChange = "2022-10-20 15:43:06 +0000";
layers = (
{
layerId = m01;
shapes = (
{
closed = 1;
nodes = (
(217,262,l),
(249,442,l),
(342,442,ls),
(410,442,o),
(433,406,o),
(423,352,cs),
(414,298,o),
(378,262,o),
(310,262,cs)
);
},
{
closed = 1;
nodes = (
(619,477,o),
(550,572,o),
(378,572,cs),
(270,572,l),
(293,702,l),
(124,702,l),
(0,0,l),
(171,0,l),
(195,133,l),
(301,133,ls),
(480,133,o),
(577,238,o),
(597,352,cs)
);
}
);
width = 624;
}
);
note = Thorn;
unicode = 222;
},
{
glyphname = germandbls;
lastChange = "2022-10-20 15:43:06 +0000";
layers = (
{
layerId = m01;
shapes = (
{
closed = 1;
nodes = (
(-18,0,l),
(152,0,l),
(244,522,ls),
(256,587,o),
(296,626,o),
(368,626,cs),
(424,626,o),
(455,601,o),
(448,560,cs),
(437,496,o),
(318,452,o),
(303,366,cs),
(292,304,o),
(333,269,o),
(438,229,cs),
(501,205,o),
(513,187,o),
(508,158,cs),
(503,129,o),
(480,114,o),
(444,114,cs),
(403,114,o),
(381,140,o),
(383,181,c),
(226,181,l),
(220,58,o),
(293,-10,o),
(425,-10,cs),
(557,-10,o),
(656,62,o),
(675,168,cs),
(689,248,o),
(656,296,o),
(560,335,cs),
(485,364,o),
(475,376,o),
(479,394,cs),
(486,434,o),
(603,476,o),
(622,586,cs),
(640,684,o),
(556,768,o),
(402,768,cs),
(226,768,o),
(101,673,o),
(76,534,cs)
);
}
);
width = 760;
}
);
note = germandbls;
unicode = 223;
},
{
glyphname = agrave;
lastChange = "2022-10-20 15:43:06 +0000";
layers = (
{
layerId = m01;
shapes = (
{
closed = 1;
nodes = (
(-26,104,o),
(63,-8,o),
(199,-8,cs),
(282,-8,o),
(348,30,o),
(387,79,c),
(374,0,l),
(545,0,l),
(643,558,l),
(472,558,l),
(458,479,l),
(437,528,o),
(384,566,o),
(301,566,cs),
(164,566,o),
(36,456,o),
(5,280,cs)
);
},
{
closed = 1;
nodes = (
(407,190,o),
(341,141,o),
(276,141,cs),
(212,141,o),
(163,191,o),
(179,280,cs),
(195,369,o),
(261,417,o),
(325,417,cs),
(390,417,o),
(438,368,o),
(423,279,cs)
);
},
{
closed = 1;
nodes = (
(268,697,l),
(492,596,l),
(512,714,l),
(292,830,l)
);
}
);
width = 679;
}
);
note = agrave;
unicode = 224;
},
{
glyphname = aacute;
lastChange = "2022-10-20 15:43:06 +0000";
layers = (
{
layerId = m01;
shapes = (
{
closed = 1;
nodes = (
(-26,104,o),
(63,-8,o),
(199,-8,cs),
(282,-8,o),
(348,30,o),
(387,79,c),
(374,0,l),
(545,0,l),
(643,558,l),
(472,558,l),
(458,479,l),
(437,528,o),
(384,566,o),
(301,566,cs),
(164,566,o),
(36,456,o),
(5,280,cs)
);
},
{
closed = 1;
nodes = (
(407,190,o),
(341,141,o),
(276,141,cs),
(212,141,o),
(163,191,o),
(179,280,cs),
(195,369,o),
(261,417,o),
(325,417,cs),
(390,417,o),
(438,368,o),
(423,279,cs)
);
},
{
closed = 1;
nodes = (
(271,714,l),
(251,596,l),
(509,697,l),
(533,830,l)
);
}
);
width = 679;
}
);
note = aacute;
unicode = 225;
},
{
glyphname = acircumflex;
lastChange = "2022-10-20 15:43:06 +0000";
layers = (
{
layerId = m01;
shapes = (
{
closed = 1;
nodes = (
(-23,104,o),
(66,-8,o),
(202,-8,cs),
(285,-8,o),
(351,30,o),
(391,79,c),
(377,0,l),
(548,0,l),
(646,558,l),
(475,558,l),
(461,479,l),
(440,528,o),
(388,566,o),
(305,566,cs),
(168,566,o),
(39,456,o),
(8,280,cs)
);
},
{
closed = 1;
nodes = (
(410,190,o),
(345,141,o),
(280,141,cs),
(216,141,o),
(166,191,o),
(182,280,cs),
(198,369,o),
(264,417,o),
(328,417,cs),
(393,417,o),
(442,368,o),
(426,279,cs)
);
},
{
closed = 1;
nodes = (
(555,714,l),
(414,793,l),
(245,714,l),
(224,596,l),
(393,678,l),
(534,596,l)
);
}
);
width = 679;
}
);
note = acircumflex;
unicode = 226;
},
{
glyphname = atilde;
lastChange = "2022-10-20 15:43:06 +0000";
layers = (
{
layerId = m01;
shapes = (
{
closed = 1;
nodes = (
(-19,104,o),
(70,-8,o),
(206,-8,cs),
(289,-8,o),
(355,30,o),
(394,79,c),
(380,0,l),
(551,0,l),
(650,558,l),
(479,558,l),
(465,479,l),
(443,528,o),
(391,566,o),
(308,566,cs),
(171,566,o),
(43,456,o),
(12,280,cs)
);
},
{
closed = 1;
nodes = (
(414,190,o),
(348,141,o),
(283,141,cs),
(219,141,o),
(170,191,o),
(186,280,cs),
(201,369,o),
(268,417,o),
(332,417,cs),
(397,417,o),
(445,368,o),
(430,279,cs)
);
},
{
closed = 1;
nodes = (
(271,605,l),
(281,636,o),
(300,650,o),
(323,650,cs),
(363,650,o),
(386,605,o),
(446,605,cs),
(516,605,o),
(575,648,o),
(610,753,c),
(522,753,l),
(513,722,o),
(494,708,o),
(471,708,cs),
(431,708,o),
(408,753,o),
(348,753,cs),
(277,753,o),
(220,710,o),
(184,605,c)
);
}
);
width = 679;
}
);
note = atilde;
unicode = 227;
},
{
glyphname = adieresis;
lastChange = "2022-10-20 15:43:06 +0000";
layers = (
{
layerId = m01;
shapes = (
{
closed = 1;
nodes = (
(-21,104,o),
(69,-8,o),
(205,-8,cs),
(288,-8,o),
(353,30,o),
(393,79,c),
(379,0,l),
(550,0,l),
(648,558,l),
(477,558,l),
(464,479,l),
(442,528,o),
(390,566,o),
(307,566,cs),
(170,566,o),
(41,456,o),
(10,280,cs)
);
},
{
closed = 1;
nodes = (
(413,190,o),
(347,141,o),
(282,141,cs),
(218,141,o),
(169,191,o),
(184,280,cs),
(200,369,o),
(267,417,o),
(331,417,cs),
(396,417,o),
(444,368,o),
(428,279,cs)
);
},
{
closed = 1;
nodes = (
(326,620,o),
(364,652,o),
(371,693,cs),
(379,735,o),
(352,767,o),
(310,767,cs),
(269,767,o),
(232,735,o),
(224,693,cs),
(217,652,o),
(243,620,o),
(284,620,cs)
);
},
{
closed = 1;
nodes = (
(526,620,o),
(564,652,o),
(571,693,cs),
(579,735,o),
(552,767,o),
(510,767,cs),
(469,767,o),
(432,735,o),
(424,693,cs),
(417,652,o),
(443,620,o),
(484,620,cs)
);
}
);
width = 679;
}
);
note = adieresis;
unicode = 228;
},
{
glyphname = aring;
lastChange = "2022-10-20 15:43:06 +0000";
layers = (
{
layerId = m01;
shapes = (
{
closed = 1;
nodes = (
(-27,104,o),
(62,-8,o),
(198,-8,cs),
(281,-8,o),
(347,30,o),
(386,79,c),
(373,0,l),
(544,0,l),
(642,558,l),
(471,558,l),
(457,479,l),
(436,528,o),
(383,566,o),
(300,566,cs),
(163,566,o),
(35,456,o),
(4,280,cs)
);
},
{
closed = 1;
nodes = (
(406,190,o),
(340,141,o),
(275,141,cs),
(211,141,o),
(162,191,o),
(178,280,cs),
(194,369,o),
(260,417,o),
(324,417,cs),
(389,417,o),
(437,368,o),
(422,279,cs)
);
},
{
closed = 1;
nodes = (
(351,841,o),
(288,795,o),
(275,720,cs),
(261,645,o),
(308,599,o),
(375,599,cs),
(443,599,o),
(506,645,o),
(520,720,cs),
(533,795,o),
(486,841,o),
(418,841,cs)
);
},
{
closed = 1;
nodes = (
(362,671,o),
(344,691,o),
(350,720,cs),
(355,750,o),
(379,769,o),
(405,769,cs),
(432,769,o),
(450,750,o),
(445,720,cs),
(439,691,o),
(415,671,o),
(388,671,cs)
);
}
);
width = 679;
}
);
note = aring;
unicode = 229;
},
{
glyphname = ae;
lastChange = "2022-10-20 15:43:06 +0000";
layers = (
{
layerId = m01;
shapes = (
{
closed = 1;
nodes = (
(838,429,o),
(885,392,o),
(874,327,c),
(630,327,l),
(655,396,o),
(712,429,o),
(772,429,cs)
);
},
{
closed = 1;
nodes = (
(828,185,l),
(809,152,o),
(772,129,o),
(716,129,cs),
(660,129,o),
(611,162,o),
(615,240,c),
(1029,240,l),
(1035,257,o),
(1040,273,o),
(1043,289,cs),
(1072,456,o),
(989,566,o),
(844,566,cs),
(764,566,o),
(698,538,o),
(646,480,c),
(660,558,l),
(499,558,l),
(485,480,l),
(457,535,o),
(404,566,o),
(328,566,cs),
(188,566,o),
(59,456,o),
(28,280,cs),
(-3,104,o),
(86,-8,o),
(223,-8,cs),
(302,-8,o),
(370,29,o),
(413,80,c),
(399,0,l),
(562,0,l),
(576,80,l),
(602,27,o),
(660,-8,o),
(742,-8,cs),
(864,-8,o),
(964,76,o),
(1010,185,c)
);
},
{
closed = 1;
nodes = (
(218,369,o),
(284,417,o),
(348,417,cs),
(413,417,o),
(462,368,o),
(446,279,cs),
(430,190,o),
(365,141,o),
(300,141,cs),
(236,141,o),
(186,191,o),
(202,280,cs)
);
}
);
width = 1069;
}
);
note = ae;
unicode = 230;
},
{
glyphname = ccedilla;
lastChange = "2022-10-20 15:43:06 +0000";
layers = (
{
layerId = m01;
shapes = (
{
closed = 1;
nodes = (
(24,122,o),
(97,17,o),
(228,-4,c),
(207,-126,l),
(278,-126,ls),
(303,-126,o),
(317,-132,o),
(313,-151,cs),
(310,-171,o),
(294,-177,o),
(269,-177,cs),
(138,-177,l),
(121,-271,l),
(275,-271,ls),
(344,-271,o),
(420,-237,o),
(435,-155,cs),
(449,-72,o),
(385,-41,o),
(325,-41,c),
(331,-4,l),
(447,13,o),
(541,89,o),
(586,202,c),
(404,202,l),
(381,161,o),
(350,138,o),
(303,138,cs),
(242,138,o),
(209,186,o),
(225,279,cs),
(242,372,o),
(292,420,o),
(353,420,cs),
(400,420,o),
(424,395,o),
(431,356,c),
(613,356,l),
(607,489,o),
(522,566,o),
(382,566,cs),
(218,566,o),
(82,455,o),
(51,279,cs)
);
}
);
width = 605;
}
);
note = ccedilla;
unicode = 231;
},
{
glyphname = egrave;
lastChange = "2022-10-20 15:43:06 +0000";
layers = (
{
layerId = m01;
shapes = (
{
closed = 1;
nodes = (
(368,429,o),
(410,394,o),
(399,333,c),
(185,333,l),
(206,395,o),
(255,429,o),
(311,429,cs)
);
},
{
closed = 1;
nodes = (
(353,185,l),
(334,155,o),
(302,131,o),
(254,131,cs),
(199,131,o),
(160,165,o),
(167,238,c),
(554,238,l),
(559,255,o),
(563,272,o),
(566,288,cs),
(596,458,o),
(500,566,o),
(337,566,cs),
(171,566,o),
(36,456,o),
(4,279,cs),
(-27,102,o),
(72,-8,o),
(236,-8,cs),
(375,-8,o),
(489,76,o),
(535,185,c)
);
},
{
closed = 1;
nodes = (
(235,701,l),
(458,600,l),
(479,718,l),
(258,834,l)
);
}
);
width = 616;
}
);
note = egrave;
unicode = 232;
},
{
glyphname = eacute;
lastChange = "2022-10-20 15:43:06 +0000";
layers = (
{
layerId = m01;
shapes = (
{
closed = 1;
nodes = (
(368,429,o),
(410,394,o),
(399,333,c),
(185,333,l),
(206,395,o),
(255,429,o),
(311,429,cs)
);
},
{
closed = 1;
nodes = (
(353,185,l),
(334,155,o),
(302,131,o),
(254,131,cs),
(199,131,o),
(160,165,o),
(167,238,c),
(554,238,l),
(559,255,o),
(563,272,o),
(566,288,cs),
(596,458,o),
(500,566,o),
(337,566,cs),
(171,566,o),
(36,456,o),
(4,279,cs),
(-27,102,o),
(72,-8,o),
(236,-8,cs),
(375,-8,o),
(489,76,o),
(535,185,c)
);
},
{
closed = 1;
nodes = (
(238,718,l),
(217,600,l),
(476,701,l),
(499,834,l)
);
}
);
width = 616;
}
);
note = eacute;
unicode = 233;
},
{
glyphname = ecircumflex;
lastChange = "2022-10-20 15:43:06 +0000";
layers = (
{
layerId = m01;
shapes = (
{
closed = 1;
nodes = (
(371,429,o),
(413,394,o),
(402,333,c),
(188,333,l),
(209,395,o),
(258,429,o),
(314,429,cs)
);
},
{
closed = 1;
nodes = (
(356,185,l),
(337,155,o),
(306,131,o),
(258,131,cs),
(203,131,o),
(164,165,o),
(170,238,c),
(557,238,l),
(562,255,o),
(566,272,o),
(569,288,cs),
(599,458,o),
(503,566,o),
(340,566,cs),
(174,566,o),
(39,456,o),
(8,279,cs),
(-24,102,o),
(75,-8,o),
(239,-8,cs),
(378,-8,o),
(492,76,o),
(538,185,c)
);
},
{
closed = 1;
nodes = (
(520,718,l),
(379,797,l),
(210,718,l),
(189,600,l),
(359,682,l),
(499,600,l)
);
}
);
width = 616;
}
);
note = ecircumflex;
unicode = 234;
},
{
glyphname = edieresis;
lastChange = "2022-10-20 15:43:06 +0000";
layers = (
{
layerId = m01;
shapes = (
{
closed = 1;
nodes = (
(373,429,o),
(415,394,o),
(404,333,c),
(190,333,l),
(211,395,o),
(260,429,o),
(316,429,cs)
);
},
{
closed = 1;
nodes = (
(358,185,l),
(339,155,o),
(308,131,o),
(260,131,cs),
(205,131,o),
(166,165,o),
(173,238,c),
(560,238,l),
(565,255,o),
(569,272,o),
(572,288,cs),
(601,458,o),
(506,566,o),
(343,566,cs),
(177,566,o),
(41,456,o),
(10,279,cs),
(-21,102,o),
(77,-8,o),
(241,-8,cs),
(380,-8,o),
(494,76,o),
(540,185,c)
);
},
{
closed = 1;
nodes = (
(292,624,o),
(329,656,o),
(337,697,cs),
(344,739,o),
(318,771,o),
(276,771,cs),
(235,771,o),
(197,739,o),
(190,697,cs),
(182,656,o),
(209,624,o),
(250,624,cs)
);
},
{
closed = 1;
nodes = (
(492,624,o),
(529,656,o),
(537,697,cs),
(544,739,o),
(518,771,o),
(476,771,cs),
(435,771,o),
(397,739,o),
(390,697,cs),
(382,656,o),
(409,624,o),
(450,624,cs)
);
}
);
width = 616;
}
);
note = edieresis;
unicode = 235;
},
{
glyphname = igrave;
lastChange = "2022-10-20 15:43:06 +0000";
layers = (
{
layerId = m01;
shapes = (
{
closed = 1;
nodes = (
(2,0,l),
(173,0,l),
(271,558,l),
(100,558,l)
);
},
{
closed = 1;
nodes = (
(86,697,l),
(309,596,l),
(330,714,l),
(109,830,l)
);
}
);
width = 321;
}
);
note = igrave;
unicode = 236;
},
{
glyphname = iacute;
lastChange = "2022-10-20 15:43:06 +0000";
layers = (
{
layerId = m01;
shapes = (
{
closed = 1;
nodes = (
(2,0,l),
(173,0,l),
(271,558,l),
(100,558,l)
);
},
{
closed = 1;
nodes = (
(89,714,l),
(68,596,l),
(327,697,l),
(350,830,l)
);
}
);
width = 321;
}
);
note = iacute;
unicode = 237;
},
{
glyphname = icircumflex;
lastChange = "2022-10-20 15:43:06 +0000";
layers = (
{
layerId = m01;
shapes = (
{
closed = 1;
nodes = (
(5,0,l),
(176,0,l),
(274,558,l),
(103,558,l)
);
},
{
closed = 1;
nodes = (
(372,714,l),
(231,793,l),
(62,714,l),
(41,596,l),
(211,678,l),
(351,596,l)
);
}
);
width = 321;
}
);
note = icircumflex;
unicode = 238;
},
{
glyphname = idieresis;
lastChange = "2022-10-20 15:43:06 +0000";
layers = (
{
layerId = m01;
shapes = (
{
closed = 1;
nodes = (
(7,0,l),
(178,0,l),
(277,558,l),
(106,558,l)
);
},
{
closed = 1;
nodes = (
(144,620,o),
(181,652,o),
(189,693,cs),
(196,735,o),
(170,767,o),
(128,767,cs),
(87,767,o),
(49,735,o),
(42,693,cs),
(34,652,o),
(61,620,o),
(102,620,cs)
);
},
{
closed = 1;
nodes = (
(344,620,o),
(381,652,o),
(389,693,cs),
(396,735,o),
(370,767,o),
(328,767,cs),
(287,767,o),
(249,735,o),
(242,693,cs),
(234,652,o),
(261,620,o),
(302,620,cs)
);
}
);
width = 321;
}
);
note = idieresis;
unicode = 239;
},
{
glyphname = eth;
lastChange = "2022-10-20 15:43:06 +0000";
layers = (
{
layerId = m01;
shapes = (
{
closed = 1;
nodes = (
(-18,104,o),
(94,-7,o),
(255,-7,cs),
(416,-7,o),
(566,104,o),
(603,317,cs),
(625,441,o),
(599,559,o),
(541,657,c),
(593,672,l),
(605,739,l),
(505,710,l),
(496,720,o),
(488,730,o),
(480,740,c),
(323,740,l),
(343,719,o),
(362,697,o),
(380,674,c),
(315,655,l),
(303,588,l),
(414,620,l),
(430,592,o),
(442,563,o),
(450,533,c),
(417,553,o),
(383,564,o),
(339,564,cs),
(186,564,o),
(44,456,o),
(13,280,cs)
);
},
{
closed = 1;
nodes = (
(205,376,o),
(271,418,o),
(329,418,cs),
(386,418,o),
(439,376,o),
(422,279,cs),
(404,182,o),
(339,139,o),
(281,139,cs),
(223,139,o),
(170,182,o),
(188,279,cs)
);
}
);
width = 640;
}
);
note = eth;
unicode = 240;
},
{
glyphname = ntilde;
lastChange = "2022-10-20 15:43:06 +0000";
layers = (
{
layerId = m01;
shapes = (
{
closed = 1;
nodes = (
(220,303,ls),
(233,379,o),
(283,421,o),
(348,421,cs),
(413,421,o),
(447,379,o),
(434,303,cs),
(381,0,l),
(551,0,l),
(608,326,ls),
(635,476,o),
(564,564,o),
(435,564,cs),
(360,564,o),
(294,531,o),
(252,484,c),
(265,558,l),
(94,558,l),
(-4,0,l),
(167,0,l)
);
},
{
closed = 1;
nodes = (
(288,605,l),
(299,636,o),
(317,650,o),
(340,650,cs),
(380,650,o),
(403,605,o),
(463,605,cs),
(533,605,o),
(592,648,o),
(627,753,c),
(539,753,l),
(530,722,o),
(511,708,o),
(488,708,cs),
(448,708,o),
(425,753,o),
(365,753,cs),
(294,753,o),
(237,710,o),
(201,605,c)
);
}
);
width = 674;
}
);
note = ntilde;
unicode = 241;
},
{
glyphname = ograve;
lastChange = "2022-10-20 15:43:06 +0000";
layers = (
{
layerId = m01;
shapes = (
{
closed = 1;
nodes = (
(616,456,o),
(509,566,o),
(345,566,cs),
(182,566,o),
(36,456,o),
(4,279,cs),
(-27,102,o),
(78,-8,o),
(242,-8,cs),
(406,-8,o),
(553,102,o),
(584,279,cs)
);
},
{
closed = 1;
nodes = (
(195,374,o),
(257,418,o),
(319,418,cs),
(379,418,o),
(427,374,o),
(410,279,cs),
(394,185,o),
(329,140,o),
(268,140,cs),
(206,140,o),
(162,185,o),
(178,279,cs)
);
},
{
closed = 1;
nodes = (
(258,701,l),
(481,600,l),
(502,718,l),
(281,834,l)
);
}
);
width = 637;
}
);
note = ograve;
unicode = 242;
},
{
glyphname = oacute;
lastChange = "2022-10-20 15:43:06 +0000";
layers = (
{
layerId = m01;
shapes = (
{
closed = 1;
nodes = (
(616,456,o),
(509,566,o),
(345,566,cs),
(182,566,o),
(36,456,o),
(4,279,cs),
(-27,102,o),
(78,-8,o),
(242,-8,cs),
(406,-8,o),
(553,102,o),
(584,279,cs)
);
},
{
closed = 1;
nodes = (
(195,374,o),
(257,418,o),
(319,418,cs),
(379,418,o),
(427,374,o),
(410,279,cs),
(394,185,o),
(329,140,o),
(268,140,cs),
(206,140,o),
(162,185,o),
(178,279,cs)
);
},
{
closed = 1;
nodes = (
(261,718,l),
(240,600,l),
(499,701,l),
(522,834,l)
);
}
);
width = 637;
}
);
note = oacute;
unicode = 243;
},
{
glyphname = ocircumflex;
lastChange = "2022-10-20 15:43:06 +0000";
layers = (
{
layerId = m01;
shapes = (
{
closed = 1;
nodes = (
(619,456,o),
(512,566,o),
(348,566,cs),
(185,566,o),
(39,456,o),
(8,279,cs),
(-24,102,o),
(81,-8,o),
(245,-8,cs),
(409,-8,o),
(556,102,o),
(588,279,cs)
);
},
{
closed = 1;
nodes = (
(198,374,o),
(260,418,o),
(322,418,cs),
(382,418,o),
(430,374,o),
(414,279,cs),
(397,185,o),
(332,140,o),
(271,140,cs),
(209,140,o),
(165,185,o),
(182,279,cs)
);
},
{
closed = 1;
nodes = (
(544,718,l),
(403,797,l),
(234,718,l),
(213,600,l),
(383,682,l),
(523,600,l)
);
}
);
width = 637;
}
);
note = ocircumflex;
unicode = 244;
},
{
glyphname = otilde;
lastChange = "2022-10-20 15:43:06 +0000";
layers = (
{
layerId = m01;
shapes = (
{
closed = 1;
nodes = (
(622,456,o),
(516,566,o),
(352,566,cs),
(189,566,o),
(42,456,o),
(11,279,cs),
(-20,102,o),
(85,-8,o),
(249,-8,cs),
(413,-8,o),
(560,102,o),
(591,279,cs)
);
},
{
closed = 1;
nodes = (
(202,374,o),
(264,418,o),
(326,418,cs),
(386,418,o),
(434,374,o),
(417,279,cs),
(401,185,o),
(336,140,o),
(275,140,cs),
(213,140,o),
(169,185,o),
(185,279,cs)
);
},
{
closed = 1;
nodes = (
(259,609,l),
(270,640,o),
(288,654,o),
(311,654,cs),
(351,654,o),
(374,609,o),
(434,609,cs),
(504,609,o),
(563,652,o),
(598,757,c),
(510,757,l),
(501,726,o),
(483,712,o),
(460,712,cs),
(420,712,o),
(396,757,o),
(336,757,cs),
(265,757,o),
(208,714,o),
(172,609,c)
);
}
);
width = 637;
}
);
note = otilde;
unicode = 245;
},
{
glyphname = odieresis;
lastChange = "2022-10-20 15:43:06 +0000";
layers = (
{
layerId = m01;
shapes = (
{
closed = 1;
nodes = (
(621,456,o),
(515,566,o),
(351,566,cs),
(188,566,o),
(41,456,o),
(10,279,cs),
(-21,102,o),
(83,-8,o),
(247,-8,cs),
(411,-8,o),
(559,102,o),
(590,279,cs)
);
},
{
closed = 1;
nodes = (
(201,374,o),
(262,418,o),
(324,418,cs),
(384,418,o),
(433,374,o),
(416,279,cs),
(399,185,o),
(334,140,o),
(273,140,cs),
(211,140,o),
(167,185,o),
(184,279,cs)
);
},
{
closed = 1;
nodes = (
(316,624,o),
(353,656,o),
(361,697,cs),
(368,739,o),
(342,771,o),
(300,771,cs),
(259,771,o),
(221,739,o),
(214,697,cs),
(206,656,o),
(233,624,o),
(274,624,cs)
);
},
{
closed = 1;
nodes = (
(516,624,o),
(553,656,o),
(561,697,cs),
(568,739,o),
(542,771,o),
(500,771,cs),
(459,771,o),
(421,739,o),
(414,697,cs),
(406,656,o),
(433,624,o),
(474,624,cs)
);
}
);
width = 637;
}
);
note = odieresis;
unicode = 246;
},
{
glyphname = divide;
lastChange = "2022-10-20 15:43:06 +0000";
layers = (
{
layerId = m01;
shapes = (
{
closed = 1;
nodes = (
(40,275,l),
(551,275,l),
(577,426,l),
(66,426,l)
);
},
{
closed = 1;
nodes = (
(382,176,o),
(348,217,o),
(288,217,cs),
(227,217,o),
(179,176,o),
(170,123,cs),
(161,72,o),
(195,31,o),
(256,31,cs),
(316,31,o),
(364,72,o),
(373,123,cs)
);
},
{
closed = 1;
nodes = (
(462,629,o),
(428,670,o),
(368,670,cs),
(307,670,o),
(259,629,o),
(250,576,cs),
(241,525,o),
(275,484,o),
(336,484,cs),
(396,484,o),
(444,525,o),
(453,576,cs)
);
}
);
width = 611;
}
);
note = divide;
unicode = 247;
},
{
glyphname = oslash;
lastChange = "2022-10-20 15:43:06 +0000";
layers = (
{
layerId = m01;
shapes = (
{
closed = 1;
nodes = (
(618,358,o),
(604,423,o),
(571,472,c),
(665,558,l),
(573,558,l),
(528,517,l),
(486,549,o),
(430,566,o),
(365,566,cs),
(202,566,o),
(55,456,o),
(24,279,cs),
(10,200,o),
(23,134,o),
(57,85,c),
(-36,0,l),
(56,0,l),
(100,40,l),
(141,9,o),
(196,-8,o),
(261,-8,cs),
(425,-8,o),
(573,102,o),
(604,279,cs)
);
},
{
closed = 1;
nodes = (
(215,374,o),
(277,418,o),
(339,418,cs),
(362,418,o),
(382,412,o),
(399,398,c),
(198,214,l),
(194,232,o),
(194,254,o),
(198,279,cs)
);
},
{
closed = 1;
nodes = (
(264,140,o),
(245,146,o),
(229,158,c),
(430,343,l),
(434,325,o),
(434,304,o),
(430,279,cs),
(413,185,o),
(348,140,o),
(287,140,cs)
);
}
);
width = 629;
}
);
note = oslash;
unicode = 248;
},
{
glyphname = ugrave;
lastChange = "2022-10-20 15:43:06 +0000";
layers = (
{
layerId = m01;
shapes = (
{
closed = 1;
nodes = (
(639,558,l),
(468,558,l),
(414,255,ls),
(401,179,o),
(352,137,o),
(286,137,cs),
(222,137,o),
(186,179,o),
(199,255,cs),
(253,558,l),
(83,558,l),
(25,232,ls),
(-1,83,o),
(70,-6,o),
(199,-6,cs),
(274,-6,o),
(340,28,o),
(383,76,c),
(369,0,l),
(540,0,l)
);
},
{
closed = 1;
nodes = (
(263,697,l),
(486,596,l),
(507,714,l),
(287,830,l)
);
}
);
width = 674;
}
);
note = ugrave;
unicode = 249;
},
{
glyphname = uacute;
lastChange = "2022-10-20 15:43:06 +0000";
layers = (
{
layerId = m01;
shapes = (
{
closed = 1;
nodes = (
(639,558,l),
(468,558,l),
(414,255,ls),
(401,179,o),
(352,137,o),
(286,137,cs),
(222,137,o),
(186,179,o),
(199,255,cs),
(253,558,l),
(83,558,l),
(25,232,ls),
(-1,83,o),
(70,-6,o),
(199,-6,cs),
(274,-6,o),
(340,28,o),
(383,76,c),
(369,0,l),
(540,0,l)
);
},
{
closed = 1;
nodes = (
(266,714,l),
(245,596,l),
(504,697,l),
(528,830,l)
);
}
);
width = 674;
}
);
note = uacute;
unicode = 250;
},
{
glyphname = ucircumflex;
lastChange = "2022-10-20 15:43:06 +0000";
layers = (
{
layerId = m01;
shapes = (
{
closed = 1;
nodes = (
(642,558,l),
(471,558,l),
(418,255,ls),
(404,179,o),
(355,137,o),
(289,137,cs),
(225,137,o),
(189,179,o),
(203,255,cs),
(256,558,l),
(86,558,l),
(29,232,ls),
(2,83,o),
(74,-6,o),
(203,-6,cs),
(278,-6,o),
(344,28,o),
(386,76,c),
(373,0,l),
(544,0,l)
);
},
{
closed = 1;
nodes = (
(550,714,l),
(408,793,l),
(240,714,l),
(219,596,l),
(388,678,l),
(529,596,l)
);
}
);
width = 674;
}
);
note = ucircumflex;
unicode = 251;
},
{
glyphname = udieresis;
lastChange = "2022-10-20 15:43:06 +0000";
layers = (
{
layerId = m01;
shapes = (
{
closed = 1;
nodes = (
(644,558,l),
(473,558,l),
(420,255,ls),
(406,179,o),
(357,137,o),
(291,137,cs),
(227,137,o),
(191,179,o),
(205,255,cs),
(258,558,l),
(88,558,l),
(31,232,ls),
(5,83,o),
(76,-6,o),
(205,-6,cs),
(280,-6,o),
(346,28,o),
(388,76,c),
(375,0,l),
(546,0,l)
);
},
{
closed = 1;
nodes = (
(321,620,o),
(359,652,o),
(366,693,cs),
(374,735,o),
(347,767,o),
(305,767,cs),
(264,767,o),
(227,735,o),
(219,693,cs),
(212,652,o),
(238,620,o),
(279,620,cs)
);
},
{
closed = 1;
nodes = (
(521,620,o),
(559,652,o),
(566,693,cs),
(574,735,o),
(547,767,o),
(505,767,cs),
(464,767,o),
(427,735,o),
(419,693,cs),
(412,652,o),
(438,620,o),
(479,620,cs)
);
}
);
width = 674;
}
);
note = udieresis;
unicode = 252;
},
{
glyphname = yacute;
lastChange = "2022-10-20 15:43:06 +0000";
layers = (
{
layerId = m01;
shapes = (
{
closed = 1;
nodes = (
(306,209,l),
(239,558,l),
(48,558,l),
(180,19,l),
(1,-265,l),
(185,-265,l),
(681,558,l),
(496,558,l)
);
},
{
closed = 1;
nodes = (
(267,714,l),
(246,596,l),
(505,697,l),
(529,830,l)
);
}
);
width = 632;
}
);
note = yacute;
unicode = 253;
},
{
glyphname = thorn;
lastChange = "2022-10-20 15:43:06 +0000";
layers = (
{
layerId = m01;
shapes = (
{
closed = 1;
nodes = (
(322,740,l),
(151,740,l),
(-27,-266,l),
(144,-266,l),
(205,81,l),
(233,27,o),
(280,-7,o),
(354,-7,cs),
(493,-7,o),
(628,108,o),
(658,278,cs),
(688,448,o),
(594,564,o),
(455,564,cs),
(381,564,o),
(322,535,o),
(277,485,c)
);
},
{
closed = 1;
nodes = (
(468,184,o),
(396,141,o),
(338,141,cs),
(280,141,o),
(224,185,o),
(240,279,cs),
(257,373,o),
(329,416,o),
(387,416,cs),
(445,416,o),
(501,372,o),
(484,278,cs)
);
}
);
width = 679;
}
);
note = thorn;
unicode = 254;
},
{
glyphname = ydieresis;
lastChange = "2022-10-20 15:43:06 +0000";
layers = (
{
layerId = m01;
shapes = (
{
closed = 1;
nodes = (
(312,209,l),
(244,558,l),
(53,558,l),
(185,19,l),
(7,-265,l),
(191,-265,l),
(686,558,l),
(501,558,l)
);
},
{
closed = 1;
nodes = (
(322,620,o),
(360,652,o),
(367,693,cs),
(374,735,o),
(348,767,o),
(306,767,cs),
(265,767,o),
(227,735,o),
(220,693,cs),
(213,652,o),
(239,620,o),
(280,620,cs)
);
},
{
closed = 1;
nodes = (
(522,620,o),
(560,652,o),
(567,693,cs),
(574,735,o),
(548,767,o),
(506,767,cs),
(465,767,o),
(427,735,o),
(420,693,cs),
(413,652,o),
(439,620,o),
(480,620,cs)
);
}
);
width = 632;
}
);
note = ydieresis;
unicode = 255;
},
{
glyphname = Amacron;
lastChange = "2022-10-20 15:43:06 +0000";
layers = (
{
layerId = m01;
shapes = (
{
closed = 1;
nodes = (
(462,0,l),
(643,0,l),
(513,702,l),
(315,702,l),
(-63,0,l),
(116,0,l),
(180,124,l),
(442,124,l)
);
},
{
closed = 1;
nodes = (
(227,774,l),
(627,774,l),
(648,892,l),
(248,892,l)
);
},
{
closed = 1;
nodes = (
(421,256,l),
(248,256,l),
(380,513,l)
);
}
);
width = 737;
}
);
note = Amacron;
unicode = 256;
},
{
glyphname = amacron;
lastChange = "2022-10-20 15:43:06 +0000";
layers = (
{
layerId = m01;
shapes = (
{
closed = 1;
nodes = (
(-19,104,o),
(71,-8,o),
(207,-8,cs),
(290,-8,o),
(355,30,o),
(395,79,c),
(381,0,l),
(552,0,l),
(650,558,l),
(479,558,l),
(465,479,l),
(444,528,o),
(392,566,o),
(309,566,cs),
(172,566,o),
(43,456,o),
(12,280,cs)
);
},
{
closed = 1;
nodes = (
(414,190,o),
(349,141,o),
(284,141,cs),
(220,141,o),
(171,191,o),
(186,280,cs),
(202,369,o),
(268,417,o),
(332,417,cs),
(397,417,o),
(446,368,o),
(430,279,cs)
);
},
{
closed = 1;
nodes = (
(189,628,l),
(589,628,l),
(609,746,l),
(209,746,l)
);
}
);
width = 679;
}
);
note = amacron;
unicode = 257;
},
{
glyphname = Abreve;
lastChange = "2022-10-20 15:43:06 +0000";
layers = (
{
layerId = m01;
shapes = (
{
closed = 1;
nodes = (
(458,0,l),
(639,0,l),
(509,702,l),
(311,702,l),
(-67,0,l),
(112,0,l),
(176,124,l),
(438,124,l)
);
},
{
closed = 1;
nodes = (
(623,937,l),
(537,937,l),
(529,895,o),
(505,870,o),
(440,870,cs),
(375,870,o),
(359,895,o),
(367,937,c),
(282,937,l),
(278,918,ls),
(259,806,o),
(318,745,o),
(418,745,cs),
(518,745,o),
(599,805,o),
(619,917,cs)
);
},
{
closed = 1;
nodes = (
(418,256,l),
(245,256,l),
(376,513,l)
);
}
);
width = 737;
}
);
note = Abreve;
unicode = 258;
},
{
glyphname = abreve;
lastChange = "2022-10-20 15:43:06 +0000";
layers = (
{
layerId = m01;
shapes = (
{
closed = 1;
nodes = (
(-23,104,o),
(67,-8,o),
(203,-8,cs),
(286,-8,o),
(351,30,o),
(391,79,c),
(377,0,l),
(548,0,l),
(646,558,l),
(475,558,l),
(461,479,l),
(440,528,o),
(388,566,o),
(305,566,cs),
(168,566,o),
(39,456,o),
(8,280,cs)
);
},
{
closed = 1;
nodes = (
(410,190,o),
(345,141,o),
(280,141,cs),
(216,141,o),
(167,191,o),
(182,280,cs),
(198,369,o),
(264,417,o),
(328,417,cs),
(393,417,o),
(442,368,o),
(426,279,cs)
);
},
{
closed = 1;
nodes = (
(584,791,l),
(498,791,l),
(491,749,o),
(467,724,o),
(402,724,cs),
(337,724,o),
(321,749,o),
(328,791,c),
(243,791,l),
(240,772,ls),
(220,660,o),
(280,599,o),
(380,599,cs),
(480,599,o),
(561,659,o),
(581,771,cs)
);
}
);
width = 679;
}
);
note = abreve;
unicode = 259;
},
{
glyphname = Aogonek;
lastChange = "2022-10-20 15:43:06 +0000";
layers = (
{
layerId = m01;
shapes = (
{
closed = 1;
nodes = (
(351,702,l),
(-27,0,l),
(152,0,l),
(216,124,l),
(478,124,l),
(497,6,l),
(449,-27,o),
(429,-61,o),
(423,-100,cs),
(409,-180,o),
(467,-217,o),
(549,-217,cs),
(586,-217,o),
(620,-211,o),
(651,-202,c),
(668,-106,l),
(637,-116,o),
(611,-121,o),
(590,-121,cs),
(561,-121,o),
(547,-108,o),
(551,-86,cs),
(555,-66,o),
(571,-46,o),
(628,-22,cs),
(679,0,l),
(549,702,l)
);
},
{
closed = 1;
nodes = (
(457,256,l),
(284,256,l),
(416,513,l)
);
}
);
width = 737;
}
);
note = Aogonek;
unicode = 260;
},
{
glyphname = aogonek;
lastChange = "2022-10-20 15:43:06 +0000";
layers = (
{
layerId = m01;
shapes = (
{
closed = 1;
nodes = (
(16,104,o),
(105,-8,o),
(241,-8,cs),
(324,-8,o),
(390,30,o),
(429,79,c),
(417,10,l),
(360,-26,o),
(336,-63,o),
(329,-103,cs),
(315,-180,o),
(374,-217,o),
(457,-217,cs),
(493,-217,o),
(528,-211,o),
(558,-202,c),
(575,-106,l),
(545,-116,o),
(517,-121,o),
(496,-121,cs),
(468,-121,o),
(454,-108,o),
(458,-88,cs),
(462,-66,o),
(483,-48,o),
(536,-23,cs),
(586,0,l),
(685,558,l),
(514,558,l),
(500,479,l),
(478,528,o),
(426,566,o),
(343,566,cs),
(206,566,o),
(78,456,o),
(47,280,cs)
);
},
{
closed = 1;
nodes = (
(449,190,o),
(383,141,o),
(318,141,cs),
(254,141,o),
(205,191,o),
(221,280,cs),
(236,369,o),
(303,417,o),
(367,417,cs),
(432,417,o),
(480,368,o),
(464,279,cs)
);
}
);
width = 679;
}
);
note = aogonek;
unicode = 261;
},
{
glyphname = Cacute;
lastChange = "2022-10-20 15:43:06 +0000";
layers = (
{
layerId = m01;
shapes = (
{
closed = 1;
nodes = (
(-28,142,o),
(92,-5,o),
(299,-5,cs),
(466,-5,o),
(609,88,o),
(675,240,c),
(487,240,l),
(448,180,o),
(389,150,o),
(324,150,cs),
(219,150,o),
(161,228,o),
(183,352,cs),
(205,476,o),
(291,554,o),
(396,554,cs),
(461,554,o),
(508,524,o),
(527,464,c),
(715,464,l),
(702,616,o),
(592,710,o),
(425,710,cs),
(218,710,o),
(46,562,o),
(9,352,cs)
);
},
{
closed = 1;
nodes = (
(325,864,l),
(305,746,l),
(563,847,l),
(587,980,l)
);
}
);
width = 762;
}
);
note = Cacute;
unicode = 262;
},
{
glyphname = cacute;
lastChange = "2022-10-20 15:43:06 +0000";
layers = (
{
layerId = m01;
shapes = (
{
closed = 1;
nodes = (
(-26,102,o),
(70,-8,o),
(234,-8,cs),
(374,-8,o),
(487,73,o),
(539,202,c),
(357,202,l),
(335,161,o),
(304,138,o),
(257,138,cs),
(196,138,o),
(162,186,o),
(179,279,cs),
(195,372,o),
(246,420,o),
(307,420,cs),
(354,420,o),
(377,395,o),
(384,356,c),
(566,356,l),
(561,489,o),
(475,566,o),
(335,566,cs),
(171,566,o),
(36,455,o),
(5,279,cs)
);
},
{
closed = 1;
nodes = (
(228,714,l),
(208,596,l),
(466,697,l),
(490,830,l)
);
}
);
width = 605;
}
);
note = cacute;
unicode = 263;
},
{
glyphname = Cdotaccent;
lastChange = "2022-10-20 15:43:06 +0000";
layers = (
{
layerId = m01;
shapes = (
{
closed = 1;
nodes = (
(-22,142,o),
(98,-5,o),
(305,-5,cs),
(472,-5,o),
(614,88,o),
(681,240,c),
(493,240,l),
(453,180,o),
(395,150,o),
(330,150,cs),
(225,150,o),
(167,228,o),
(189,352,cs),
(211,476,o),
(296,554,o),
(401,554,cs),
(466,554,o),
(514,524,o),
(532,464,c),
(720,464,l),
(707,616,o),
(598,710,o),
(431,710,cs),
(224,710,o),
(52,562,o),
(15,352,cs)
);
},
{
closed = 1;
nodes = (
(480,770,o),
(518,802,o),
(525,843,cs),
(533,885,o),
(506,917,o),
(464,917,cs),
(423,917,o),
(386,885,o),
(378,843,cs),
(371,802,o),
(397,770,o),
(438,770,cs)
);
}
);
width = 762;
}
);
note = Cdotaccent;
unicode = 266;
},
{
glyphname = cdotaccent;
lastChange = "2022-10-20 15:43:06 +0000";
layers = (
{
layerId = m01;
shapes = (
{
closed = 1;
nodes = (
(-21,102,o),
(76,-8,o),
(240,-8,cs),
(380,-8,o),
(493,73,o),
(545,202,c),
(363,202,l),
(340,161,o),
(309,138,o),
(262,138,cs),
(201,138,o),
(168,186,o),
(184,279,cs),
(201,372,o),
(251,420,o),
(312,420,cs),
(359,420,o),
(383,395,o),
(390,356,c),
(572,356,l),
(566,489,o),
(481,566,o),
(341,566,cs),
(177,566,o),
(41,455,o),
(10,279,cs)
);
},
{
closed = 1;
nodes = (
(382,620,o),
(420,652,o),
(427,693,cs),
(435,735,o),
(408,767,o),
(366,767,cs),
(325,767,o),
(288,735,o),
(280,693,cs),
(273,652,o),
(299,620,o),
(340,620,cs)
);
}
);
width = 605;
}
);
note = cdotaccent;
unicode = 267;
},
{
glyphname = Ccaron;
lastChange = "2022-10-20 15:43:06 +0000";
layers = (
{
layerId = m01;
shapes = (
{
closed = 1;
nodes = (
(-25,142,o),
(95,-5,o),
(302,-5,cs),
(469,-5,o),
(612,88,o),
(679,240,c),
(491,240,l),
(451,180,o),
(393,150,o),
(328,150,cs),
(223,150,o),
(165,228,o),
(186,352,cs),
(208,476,o),
(294,554,o),
(399,554,cs),
(464,554,o),
(512,524,o),
(530,464,c),
(718,464,l),
(705,616,o),
(595,710,o),
(428,710,cs),
(221,710,o),
(49,562,o),
(12,352,cs)
);
},
{
closed = 1;
nodes = (
(452,856,l),
(313,943,l),
(292,825,l),
(433,746,l),
(602,825,l),
(623,943,l)
);
}
);
width = 762;
}
);
note = Ccaron;
unicode = 268;
},
{
glyphname = ccaron;
lastChange = "2022-10-20 15:43:06 +0000";
layers = (
{
layerId = m01;
shapes = (
{
closed = 1;
nodes = (
(-23,102,o),
(73,-8,o),
(237,-8,cs),
(377,-8,o),
(491,73,o),
(542,202,c),
(360,202,l),
(338,161,o),
(307,138,o),
(260,138,cs),
(199,138,o),
(166,186,o),
(182,279,cs),
(198,372,o),
(249,420,o),
(310,420,cs),
(357,420,o),
(380,395,o),
(388,356,c),
(570,356,l),
(564,489,o),
(479,566,o),
(339,566,cs),
(175,566,o),
(39,455,o),
(8,279,cs)
);
},
{
closed = 1;
nodes = (
(354,706,l),
(215,793,l),
(194,675,l),
(335,596,l),
(504,675,l),
(525,793,l)
);
}
);
width = 605;
}
);
note = ccaron;
unicode = 269;
},
{
glyphname = Dcaron;
lastChange = "2022-10-20 15:43:06 +0000";
layers = (
{
layerId = m01;
shapes = (
{
closed = 1;
nodes = (
(103,702,l),
(-21,0,l),
(242,0,ls),
(466,0,o),
(635,143,o),
(672,351,cs),
(709,560,o),
(590,702,o),
(366,702,cs)
);
},
{
closed = 1;
nodes = (
(176,148,l),
(248,556,l),
(329,556,ls),
(458,556,o),
(521,480,o),
(498,351,cs),
(475,222,o),
(386,148,o),
(257,148,cs)
);
},
{
closed = 1;
nodes = (
(424,852,l),
(285,939,l),
(264,821,l),
(405,742,l),
(574,821,l),
(595,939,l)
);
}
);
width = 727;
}
);
note = Dcaron;
unicode = 270;
},
{
glyphname = dcaron;
lastChange = "2022-10-20 15:43:06 +0000";
layers = (
{
layerId = m01;
shapes = (
{
closed = 1;
nodes = (
(739,740,l),
(717,617,l),
(780,617,l),
(777,601,ls),
(770,556,o),
(748,535,o),
(714,535,c),
(702,470,l),
(797,470,o),
(853,532,o),
(869,622,cs),
(875,658,o),
(877,698,o),
(870,740,c)
);
},
{
closed = 1;
nodes = (
(-18,104,o),
(71,-8,o),
(208,-8,cs),
(290,-8,o),
(356,29,o),
(396,80,c),
(381,0,l),
(552,0,l),
(683,740,l),
(512,740,l),
(466,481,l),
(441,532,o),
(383,566,o),
(309,566,cs),
(172,566,o),
(44,456,o),
(13,280,cs)
);
},
{
closed = 1;
nodes = (
(415,190,o),
(349,141,o),
(284,141,cs),
(220,141,o),
(171,191,o),
(187,280,cs),
(203,369,o),
(269,417,o),
(333,417,cs),
(398,417,o),
(446,368,o),
(431,279,cs)
);
}
);
width = 834;
}
);
note = dcaron;
unicode = 271;
},
{
glyphname = Dcroat;
lastChange = "2022-10-20 15:43:06 +0000";
layers = (
{
layerId = m01;
shapes = (
{
closed = 1;
nodes = (
(129,702,l),
(80,422,l),
(17,422,l),
(-9,280,l),
(54,280,l),
(5,0,l),
(268,0,ls),
(493,0,o),
(661,143,o),
(698,351,cs),
(735,560,o),
(617,702,o),
(392,702,cs)
);
},
{
closed = 1;
nodes = (
(203,146,l),
(226,280,l),
(378,280,l),
(404,422,l),
(252,422,l),
(275,556,l),
(356,556,ls),
(484,556,o),
(547,480,o),
(524,351,cs),
(501,222,o),
(412,146,o),
(284,146,cs)
);
}
);
width = 732;
}
);
note = Dcroat;
unicode = 272;
},
{
glyphname = dcroat;
lastChange = "2022-10-20 15:43:06 +0000";
layers = (
{
layerId = m01;
shapes = (
{
closed = 1;
nodes = (
(-18,104,o),
(71,-8,o),
(208,-8,cs),
(290,-8,o),
(356,29,o),
(396,80,c),
(381,0,l),
(552,0,l),
(657,591,l),
(719,591,l),
(733,673,l),
(671,673,l),
(683,740,l),
(512,740,l),
(500,673,l),
(430,673,l),
(416,591,l),
(486,591,l),
(466,481,l),
(441,532,o),
(383,566,o),
(309,566,cs),
(172,566,o),
(44,456,o),
(13,280,cs)
);
},
{
closed = 1;
nodes = (
(415,190,o),
(349,141,o),
(284,141,cs),
(220,141,o),
(171,191,o),
(187,280,cs),
(203,369,o),
(269,417,o),
(333,417,cs),
(398,417,o),
(446,368,o),
(431,279,cs)
);
}
);
width = 692;
}
);
note = dcroat;
unicode = 273;
},
{
glyphname = Emacron;
lastChange = "2022-10-20 15:43:06 +0000";
layers = (
{
layerId = m01;
shapes = (
{
closed = 1;
nodes = (
(537,702,l),
(107,702,l),
(-17,0,l),
(413,0,l),
(438,137,l),
(179,137,l),
(206,291,l),
(435,291,l),
(458,423,l),
(229,423,l),
(254,565,l),
(513,565,l)
);
},
{
closed = 1;
nodes = (
(131,774,l),
(531,774,l),
(552,892,l),
(152,892,l)
);
}
);
width = 541;
}
);
note = Emacron;
unicode = 274;
},
{
glyphname = emacron;
lastChange = "2022-10-20 15:43:06 +0000";
layers = (
{
layerId = m01;
shapes = (
{
closed = 1;
nodes = (
(375,429,o),
(417,394,o),
(406,333,c),
(192,333,l),
(213,395,o),
(262,429,o),
(318,429,cs)
);
},
{
closed = 1;
nodes = (
(360,185,l),
(341,155,o),
(310,131,o),
(262,131,cs),
(207,131,o),
(168,165,o),
(175,238,c),
(562,238,l),
(567,255,o),
(571,272,o),
(573,288,cs),
(603,458,o),
(507,566,o),
(344,566,cs),
(178,566,o),
(43,456,o),
(12,279,cs),
(-19,102,o),
(79,-8,o),
(243,-8,cs),
(382,-8,o),
(496,76,o),
(542,185,c)
);
},
{
closed = 1;
nodes = (
(155,632,l),
(555,632,l),
(576,750,l),
(176,750,l)
);
}
);
width = 616;
}
);
note = emacron;
unicode = 275;
},
{
glyphname = Ebreve;
lastChange = "2022-10-20 15:43:06 +0000";
layers = (
{
layerId = m01;
shapes = (
{
closed = 1;
nodes = (
(533,702,l),
(103,702,l),
(-21,0,l),
(409,0,l),
(434,137,l),
(175,137,l),
(202,291,l),
(431,291,l),
(454,423,l),
(225,423,l),
(250,565,l),
(509,565,l)
);
},
{
closed = 1;
nodes = (
(526,937,l),
(440,937,l),
(432,895,o),
(408,870,o),
(343,870,cs),
(278,870,o),
(262,895,o),
(270,937,c),
(185,937,l),
(181,918,ls),
(162,806,o),
(221,745,o),
(321,745,cs),
(421,745,o),
(502,805,o),
(522,917,cs)
);
}
);
width = 541;
}
);
note = Ebreve;
unicode = 276;
},
{
glyphname = ebreve;
lastChange = "2022-10-20 15:43:06 +0000";
layers = (
{
layerId = m01;
shapes = (
{
closed = 1;
nodes = (
(371,429,o),
(413,394,o),
(402,333,c),
(188,333,l),
(209,395,o),
(258,429,o),
(314,429,cs)
);
},
{
closed = 1;
nodes = (
(356,185,l),
(337,155,o),
(306,131,o),
(258,131,cs),
(203,131,o),
(164,165,o),
(171,238,c),
(558,238,l),
(563,255,o),
(567,272,o),
(569,288,cs),
(599,458,o),
(503,566,o),
(340,566,cs),
(174,566,o),
(39,456,o),
(8,279,cs),
(-23,102,o),
(75,-8,o),
(239,-8,cs),
(378,-8,o),
(492,76,o),
(538,185,c)
);
},
{
closed = 1;
nodes = (
(550,795,l),
(464,795,l),
(456,753,o),
(432,728,o),
(367,728,cs),
(302,728,o),
(286,753,o),
(294,795,c),
(209,795,l),
(205,776,ls),
(186,664,o),
(245,603,o),
(345,603,cs),
(445,603,o),
(527,663,o),
(546,775,cs)
);
}
);
width = 616;
}
);
note = ebreve;
unicode = 277;
},
{
glyphname = Edotaccent;
lastChange = "2022-10-20 15:43:06 +0000";
layers = (
{
layerId = m01;
shapes = (
{
closed = 1;
nodes = (
(535,702,l),
(105,702,l),
(-18,0,l),
(412,0,l),
(436,137,l),
(177,137,l),
(204,291,l),
(433,291,l),
(456,423,l),
(227,423,l),
(252,565,l),
(511,565,l)
);
},
{
closed = 1;
nodes = (
(368,766,o),
(405,798,o),
(412,839,cs),
(420,881,o),
(393,913,o),
(351,913,cs),
(310,913,o),
(273,881,o),
(265,839,cs),
(258,798,o),
(285,766,o),
(326,766,cs)
);
}
);
width = 541;
}
);
note = Edotaccent;
unicode = 278;
},
{
glyphname = edotaccent;
lastChange = "2022-10-20 15:43:06 +0000";
layers = (
{
layerId = m01;
shapes = (
{
closed = 1;
nodes = (
(373,429,o),
(415,394,o),
(404,333,c),
(190,333,l),
(211,395,o),
(260,429,o),
(316,429,cs)
);
},
{
closed = 1;
nodes = (
(358,185,l),
(339,155,o),
(308,131,o),
(260,131,cs),
(205,131,o),
(166,165,o),
(173,238,c),
(560,238,l),
(565,255,o),
(569,272,o),
(572,288,cs),
(601,458,o),
(506,566,o),
(343,566,cs),
(177,566,o),
(41,456,o),
(10,279,cs),
(-21,102,o),
(77,-8,o),
(241,-8,cs),
(380,-8,o),
(494,76,o),
(540,185,c)
);
},
{
closed = 1;
nodes = (
(392,624,o),
(429,656,o),
(437,697,cs),
(444,739,o),
(418,771,o),
(376,771,cs),
(335,771,o),
(297,739,o),
(290,697,cs),
(282,656,o),
(309,624,o),
(350,624,cs)
);
}
);
width = 616;
}
);
note = edotaccent;
unicode = 279;
},
{
glyphname = Eogonek;
lastChange = "2022-10-20 15:43:06 +0000";
layers = (
{
layerId = m01;
shapes = (
{
closed = 1;
nodes = (
(573,702,l),
(143,702,l),
(19,0,l),
(265,0,l),
(218,-33,o),
(199,-66,o),
(192,-103,cs),
(179,-180,o),
(237,-217,o),
(320,-217,cs),
(356,-217,o),
(391,-211,o),
(421,-202,c),
(438,-106,l),
(408,-116,o),
(380,-121,o),
(359,-121,cs),
(331,-121,o),
(317,-108,o),
(321,-88,cs),
(325,-66,o),
(346,-48,o),
(399,-23,cs),
(449,0,l),
(473,137,l),
(214,137,l),
(242,291,l),
(471,291,l),
(494,423,l),
(265,423,l),
(290,565,l),
(549,565,l)
);
}
);
width = 541;
}
);
note = Eogonek;
unicode = 280;
},
{
glyphname = eogonek;
lastChange = "2022-10-20 15:43:06 +0000";
layers = (
{
layerId = m01;
shapes = (
{
closed = 1;
nodes = (
(409,429,o),
(451,394,o),
(440,333,c),
(226,333,l),
(247,395,o),
(296,429,o),
(352,429,cs)
);
},
{
closed = 1;
nodes = (
(369,-95,l),
(339,-105,o),
(311,-110,o),
(290,-110,cs),
(262,-110,o),
(248,-97,o),
(252,-77,cs),
(256,-55,o),
(277,-37,o),
(330,-12,cs),
(364,3,l),
(463,30,o),
(540,100,o),
(576,185,c),
(394,185,l),
(375,155,o),
(343,131,o),
(295,131,cs),
(240,131,o),
(201,165,o),
(208,238,c),
(595,238,l),
(600,255,o),
(604,272,o),
(607,288,cs),
(637,458,o),
(541,566,o),
(378,566,cs),
(212,566,o),
(77,456,o),
(45,279,cs),
(20,137,o),
(79,38,o),
(187,5,c),
(147,-26,o),
(129,-58,o),
(123,-92,cs),
(109,-169,o),
(168,-206,o),
(251,-206,cs),
(287,-206,o),
(322,-200,o),
(352,-191,c)
);
}
);
width = 616;
}
);
note = eogonek;
unicode = 281;
},
{
glyphname = Ecaron;
lastChange = "2022-10-20 15:43:06 +0000";
layers = (
{
layerId = m01;
shapes = (
{
closed = 1;
nodes = (
(533,702,l),
(103,702,l),
(-21,0,l),
(409,0,l),
(433,137,l),
(174,137,l),
(202,291,l),
(431,291,l),
(454,423,l),
(225,423,l),
(250,565,l),
(509,565,l)
);
},
{
closed = 1;
nodes = (
(339,852,l),
(200,939,l),
(179,821,l),
(320,742,l),
(489,821,l),
(510,939,l)
);
}
);
width = 541;
}
);
note = Ecaron;
unicode = 282;
},
{
glyphname = ecaron;
lastChange = "2022-10-20 15:43:06 +0000";
layers = (
{
layerId = m01;
shapes = (
{
closed = 1;
nodes = (
(371,429,o),
(413,394,o),
(402,333,c),
(188,333,l),
(209,395,o),
(258,429,o),
(314,429,cs)
);
},
{
closed = 1;
nodes = (
(356,185,l),
(337,155,o),
(306,131,o),
(258,131,cs),
(203,131,o),
(164,165,o),
(170,238,c),
(557,238,l),
(562,255,o),
(566,272,o),
(569,288,cs),
(599,458,o),
(503,566,o),
(340,566,cs),
(174,566,o),
(39,456,o),
(8,279,cs),
(-24,102,o),
(75,-8,o),
(239,-8,cs),
(378,-8,o),
(492,76,o),
(538,185,c)
);
},
{
closed = 1;
nodes = (
(364,710,l),
(224,797,l),
(203,679,l),
(344,600,l),
(513,679,l),
(534,797,l)
);
}
);
width = 616;
}
);
note = ecaron;
unicode = 283;
},
{
glyphname = Gbreve;
lastChange = "2022-10-20 15:43:06 +0000";
layers = (
{
layerId = m01;
shapes = (
{
closed = 1;
nodes = (
(223,710,o),
(50,562,o),
(13,352,cs),
(-24,142,o),
(98,-5,o),
(308,-5,cs),
(493,-5,o),
(631,116,o),
(689,237,c),
(717,396,l),
(345,396,l),
(322,270,l),
(539,270,l),
(500,191,o),
(433,146,o),
(348,146,cs),
(225,146,o),
(164,222,o),
(187,352,cs),
(208,474,o),
(295,552,o),
(405,552,cs),
(469,552,o),
(513,527,o),
(530,480,c),
(719,480,l),
(708,624,o),
(601,710,o),
(433,710,cs)
);
},
{
closed = 1;
nodes = (
(635,937,l),
(549,937,l),
(542,895,o),
(517,870,o),
(452,870,cs),
(387,870,o),
(372,895,o),
(379,937,c),
(294,937,l),
(291,918,ls),
(271,806,o),
(330,745,o),
(430,745,cs),
(530,745,o),
(612,805,o),
(632,917,cs)
);
}
);
width = 762;
}
);
note = Gbreve;
unicode = 286;
},
{
glyphname = gbreve;
lastChange = "2022-10-20 15:43:06 +0000";
layers = (
{
layerId = m01;
shapes = (
{
closed = 1;
nodes = (
(1,104,o),
(90,-8,o),
(227,-8,cs),
(309,-8,o),
(375,31,o),
(415,80,c),
(401,1,ls),
(384,-93,o),
(327,-127,o),
(262,-127,cs),
(203,-127,o),
(166,-100,o),
(162,-58,c),
(-7,-58,l),
(-15,-191,o),
(78,-275,o),
(244,-275,cs),
(437,-275,o),
(545,-148,o),
(572,1,cs),
(670,558,l),
(499,558,l),
(485,479,l),
(464,529,o),
(410,566,o),
(328,566,cs),
(191,566,o),
(63,456,o),
(32,280,cs)
);
},
{
closed = 1;
nodes = (
(434,190,o),
(368,141,o),
(303,141,cs),
(239,141,o),
(190,191,o),
(206,280,cs),
(222,369,o),
(288,417,o),
(352,417,cs),
(417,417,o),
(465,368,o),
(450,279,cs)
);
},
{
closed = 1;
nodes = (
(608,791,l),
(522,791,l),
(515,749,o),
(490,724,o),
(425,724,cs),
(360,724,o),
(345,749,o),
(352,791,c),
(267,791,l),
(264,772,ls),
(244,660,o),
(303,599,o),
(403,599,cs),
(503,599,o),
(585,659,o),
(604,771,cs)
);
}
);
width = 679;
}
);
note = gbreve;
unicode = 287;
},
{
glyphname = Gdotaccent;
lastChange = "2022-10-20 15:43:06 +0000";
layers = (
{
layerId = m01;
shapes = (
{
closed = 1;
nodes = (
(225,710,o),
(52,562,o),
(15,352,cs),
(-22,142,o),
(100,-5,o),
(310,-5,cs),
(495,-5,o),
(633,116,o),
(691,237,c),
(719,396,l),
(347,396,l),
(325,270,l),
(542,270,l),
(502,191,o),
(435,146,o),
(350,146,cs),
(227,146,o),
(166,222,o),
(189,352,cs),
(211,474,o),
(297,552,o),
(407,552,cs),
(471,552,o),
(515,527,o),
(533,480,c),
(722,480,l),
(710,624,o),
(603,710,o),
(435,710,cs)
);
},
{
closed = 1;
nodes = (
(477,766,o),
(515,798,o),
(522,839,cs),
(529,881,o),
(503,913,o),
(461,913,cs),
(420,913,o),
(382,881,o),
(375,839,cs),
(368,798,o),
(394,766,o),
(435,766,cs)
);
}
);
width = 762;
}
);
note = Gdotaccent;
unicode = 288;
},
{
glyphname = gdotaccent;
lastChange = "2022-10-20 15:43:06 +0000";
layers = (
{
layerId = m01;
shapes = (
{
closed = 1;
nodes = (
(3,104,o),
(92,-8,o),
(229,-8,cs),
(311,-8,o),
(377,31,o),
(417,80,c),
(403,1,ls),
(386,-93,o),
(329,-127,o),
(264,-127,cs),
(205,-127,o),
(168,-100,o),
(164,-58,c),
(-5,-58,l),
(-13,-191,o),
(80,-275,o),
(246,-275,cs),
(439,-275,o),
(548,-148,o),
(574,1,cs),
(672,558,l),
(501,558,l),
(487,479,l),
(466,529,o),
(412,566,o),
(330,566,cs),
(193,566,o),
(65,456,o),
(34,280,cs)
);
},
{
closed = 1;
nodes = (
(436,190,o),
(370,141,o),
(305,141,cs),
(241,141,o),
(192,191,o),
(208,280,cs),
(224,369,o),
(290,417,o),
(354,417,cs),
(419,417,o),
(468,368,o),
(452,279,cs)
);
},
{
closed = 1;
nodes = (
(450,620,o),
(488,652,o),
(495,693,cs),
(502,735,o),
(476,767,o),
(434,767,cs),
(393,767,o),
(355,735,o),
(348,693,cs),
(341,652,o),
(367,620,o),
(408,620,cs)
);
}
);
width = 679;
}
);
note = gdotaccent;
unicode = 289;
},
{
glyphname = uni0122;
lastChange = "2022-10-20 15:43:06 +0000";
layers = (
{
layerId = m01;
shapes = (
{
closed = 1;
nodes = (
(272,-40,l),
(250,-163,l),
(313,-163,l),
(310,-179,ls),
(302,-224,o),
(281,-245,o),
(247,-245,c),
(235,-310,l),
(330,-310,o),
(386,-248,o),
(402,-158,cs),
(408,-122,o),
(409,-82,o),
(403,-40,c)
);
},
{
closed = 1;
nodes = (
(270,710,o),
(97,562,o),
(60,352,cs),
(23,142,o),
(145,-5,o),
(355,-5,cs),
(540,-5,o),
(678,116,o),
(736,237,c),
(764,396,l),
(392,396,l),
(369,270,l),
(586,270,l),
(546,191,o),
(479,146,o),
(394,146,cs),
(271,146,o),
(211,222,o),
(234,352,cs),
(255,474,o),
(342,552,o),
(452,552,cs),
(516,552,o),
(560,527,o),
(577,480,c),
(766,480,l),
(755,624,o),
(648,710,o),
(480,710,cs)
);
}
);
width = 764;
}
);
note = uni0122;
unicode = 290;
},
{
glyphname = uni0123;
lastChange = "2022-10-20 15:43:06 +0000";
layers = (
{
layerId = m01;
shapes = (
{
closed = 1;
nodes = (
(470,598,l),
(492,721,l),
(429,721,l),
(432,737,ls),
(440,782,o),
(461,803,o),
(495,803,c),
(507,868,l),
(412,868,o),
(356,806,o),
(340,716,cs),
(334,680,o),
(333,640,o),
(339,598,c)
);
},
{
closed = 1;
nodes = (
(-6,104,o),
(83,-8,o),
(220,-8,cs),
(302,-8,o),
(368,31,o),
(408,80,c),
(394,1,ls),
(377,-93,o),
(320,-127,o),
(255,-127,cs),
(196,-127,o),
(159,-100,o),
(155,-58,c),
(-14,-58,l),
(-22,-191,o),
(71,-275,o),
(237,-275,cs),
(430,-275,o),
(539,-148,o),
(565,1,cs),
(663,558,l),
(492,558,l),
(478,479,l),
(457,529,o),
(404,566,o),
(322,566,cs),
(185,566,o),
(56,456,o),
(25,280,cs)
);
},
{
closed = 1;
nodes = (
(427,190,o),
(362,141,o),
(297,141,cs),
(233,141,o),
(183,191,o),
(199,280,cs),
(215,369,o),
(281,417,o),
(345,417,cs),
(410,417,o),
(459,368,o),
(443,279,cs)
);
}
);
width = 679;
}
);
note = uni0123;
unicode = 291;
},
{
glyphname = Itilde;
lastChange = "2022-10-20 15:43:06 +0000";
layers = (
{
layerId = m01;
shapes = (
{
closed = 1;
nodes = (
(-17,0,l),
(154,0,l),
(278,702,l),
(107,702,l)
);
},
{
closed = 1;
nodes = (
(88,751,l),
(99,782,o),
(117,796,o),
(140,796,cs),
(180,796,o),
(203,751,o),
(263,751,cs),
(333,751,o),
(392,794,o),
(427,899,c),
(339,899,l),
(330,868,o),
(311,854,o),
(288,854,cs),
(248,854,o),
(225,899,o),
(165,899,cs),
(94,899,o),
(37,856,o),
(1,751,c)
);
}
);
width = 295;
}
);
note = Itilde;
unicode = 296;
},
{
glyphname = itilde;
lastChange = "2022-10-20 15:43:06 +0000";
layers = (
{
layerId = m01;
shapes = (
{
closed = 1;
nodes = (
(9,0,l),
(180,0,l),
(278,558,l),
(107,558,l)
);
},
{
closed = 1;
nodes = (
(88,605,l),
(99,636,o),
(117,650,o),
(140,650,cs),
(180,650,o),
(203,605,o),
(263,605,cs),
(333,605,o),
(392,648,o),
(427,753,c),
(339,753,l),
(330,722,o),
(311,708,o),
(288,708,cs),
(248,708,o),
(225,753,o),
(165,753,cs),
(94,753,o),
(37,710,o),
(1,605,c)
);
}
);
width = 321;
}
);
note = itilde;
unicode = 297;
},
{
glyphname = Imacron;
lastChange = "2022-10-20 15:43:06 +0000";
layers = (
{
layerId = m01;
shapes = (
{
closed = 1;
nodes = (
(-17,0,l),
(154,0,l),
(278,702,l),
(107,702,l)
);
},
{
closed = 1;
nodes = (
(6,774,l),
(406,774,l),
(427,892,l),
(27,892,l)
);
}
);
width = 295;
}
);
note = Imacron;
unicode = 298;
},
{
glyphname = imacron;
lastChange = "2022-10-20 15:43:06 +0000";
layers = (
{
layerId = m01;
shapes = (
{
closed = 1;
nodes = (
(9,0,l),
(180,0,l),
(279,558,l),
(108,558,l)
);
},
{
closed = 1;
nodes = (
(6,628,l),
(406,628,l),
(427,746,l),
(27,746,l)
);
}
);
width = 321;
}
);
note = imacron;
unicode = 299;
},
{
glyphname = uni012C;
lastChange = "2022-10-20 15:43:06 +0000";
layers = (
{
layerId = m01;
shapes = (
{
closed = 1;
nodes = (
(-21,0,l),
(150,0,l),
(274,702,l),
(103,702,l)
);
},
{
closed = 1;
nodes = (
(402,937,l),
(316,937,l),
(308,895,o),
(284,870,o),
(219,870,cs),
(154,870,o),
(138,895,o),
(146,937,c),
(61,937,l),
(57,918,ls),
(38,806,o),
(97,745,o),
(197,745,cs),
(297,745,o),
(378,805,o),
(398,917,cs)
);
}
);
width = 295;
}
);
note = uni012C;
unicode = 300;
},
{
glyphname = uni012D;
lastChange = "2022-10-20 15:43:06 +0000";
layers = (
{
layerId = m01;
shapes = (
{
closed = 1;
nodes = (
(5,0,l),
(176,0,l),
(275,558,l),
(104,558,l)
);
},
{
closed = 1;
nodes = (
(402,791,l),
(316,791,l),
(308,749,o),
(284,724,o),
(219,724,cs),
(154,724,o),
(138,749,o),
(146,791,c),
(61,791,l),
(57,772,ls),
(38,660,o),
(97,599,o),
(197,599,cs),
(297,599,o),
(378,659,o),
(398,771,cs)
);
}
);
width = 321;
}
);
note = uni012D;
unicode = 301;
},
{
glyphname = Iogonek;
lastChange = "2022-10-20 15:43:06 +0000";
layers = (
{
layerId = m01;
shapes = (
{
closed = 1;
nodes = (
(179,-106,l),
(149,-116,o),
(121,-121,o),
(100,-121,cs),
(72,-121,o),
(58,-108,o),
(62,-88,cs),
(66,-66,o),
(87,-48,o),
(140,-23,cs),
(190,0,l),
(314,702,l),
(143,702,l),
(21,10,l),
(-36,-26,o),
(-60,-63,o),
(-67,-103,cs),
(-80,-180,o),
(-22,-217,o),
(61,-217,cs),
(97,-217,o),
(132,-211,o),
(162,-202,c)
);
}
);
width = 295;
}
);
note = Iogonek;
unicode = 302;
},
{
glyphname = iogonek;
lastChange = "2022-10-20 15:43:06 +0000";
layers = (
{
layerId = m01;
shapes = (
{
closed = 1;
nodes = (
(170,-106,l),
(140,-116,o),
(112,-121,o),
(91,-121,cs),
(63,-121,o),
(49,-108,o),
(53,-88,cs),
(57,-66,o),
(78,-48,o),
(131,-23,cs),
(182,0,l),
(280,558,l),
(109,558,l),
(12,10,l),
(-45,-26,o),
(-69,-63,o),
(-76,-103,cs),
(-89,-180,o),
(-31,-217,o),
(52,-217,cs),
(88,-217,o),
(123,-211,o),
(153,-202,c)
);
},
{
closed = 1;
nodes = (
(265,616,o),
(313,657,o),
(322,708,cs),
(332,760,o),
(298,801,o),
(238,801,cs),
(177,801,o),
(129,760,o),
(119,708,cs),
(110,657,o),
(144,616,o),
(205,616,cs)
);
}
);
width = 295;
}
);
note = iogonek;
unicode = 303;
},
{
glyphname = Idotaccent;
lastChange = "2022-10-20 15:43:06 +0000";
layers = (
{
layerId = m01;
shapes = (
{
closed = 1;
nodes = (
(-18,0,l),
(153,0,l),
(276,702,l),
(105,702,l)
);
},
{
closed = 1;
nodes = (
(244,766,o),
(281,798,o),
(288,839,cs),
(296,881,o),
(269,913,o),
(227,913,cs),
(186,913,o),
(149,881,o),
(141,839,cs),
(134,798,o),
(161,766,o),
(202,766,cs)
);
}
);
width = 295;
}
);
note = Idotaccent;
unicode = 304;
},
{
glyphname = dotlessi;
lastChange = "2022-10-20 15:43:06 +0000";
layers = (
{
layerId = m01;
shapes = (
{
closed = 1;
nodes = (
(26,0,l),
(197,0,l),
(295,558,l),
(124,558,l)
);
}
);
width = 321;
}
);
note = dotlessi;
unicode = 305;
},
{
glyphname = uni0136;
lastChange = "2022-10-20 15:43:06 +0000";
layers = (
{
layerId = m01;
shapes = (
{
closed = 1;
nodes = (
(250,-40,l),
(229,-163,l),
(292,-163,l),
(289,-179,ls),
(281,-224,o),
(259,-245,o),
(225,-245,c),
(214,-310,l),
(309,-310,o),
(365,-248,o),
(381,-158,cs),
(387,-122,o),
(388,-82,o),
(381,-40,c)
);
},
{
closed = 1;
nodes = (
(434,0,l),
(643,0,l),
(425,358,l),
(757,702,l),
(556,702,l),
(268,394,l),
(322,702,l),
(151,702,l),
(27,0,l),
(198,0,l),
(253,310,l)
);
}
);
width = 720;
}
);
note = uni0136;
unicode = 310;
},
{
glyphname = uni0137;
lastChange = "2022-10-20 15:43:06 +0000";
layers = (
{
layerId = m01;
shapes = (
{
closed = 1;
nodes = (
(199,-40,l),
(177,-163,l),
(240,-163,l),
(238,-179,ls),
(230,-224,o),
(207,-245,o),
(173,-245,c),
(161,-310,l),
(256,-310,o),
(312,-248,o),
(328,-158,cs),
(335,-122,o),
(336,-82,o),
(330,-40,c)
);
},
{
closed = 1;
nodes = (
(24,0,l),
(195,0,l),
(236,234,l),
(365,0,l),
(577,0,l),
(392,278,l),
(673,558,l),
(462,558,l),
(253,331,l),
(326,740,l),
(155,740,l)
);
}
);
width = 618;
}
);
note = uni0137;
unicode = 311;
},
{
glyphname = Lacute;
lastChange = "2022-10-20 15:43:06 +0000";
layers = (
{
layerId = m01;
shapes = (
{
closed = 1;
nodes = (
(100,702,l),
(-24,0,l),
(371,0,l),
(394,132,l),
(170,132,l),
(271,702,l)
);
},
{
closed = 1;
nodes = (
(168,860,l),
(147,742,l),
(406,843,l),
(429,976,l)
);
}
);
width = 477;
}
);
note = Lacute;
unicode = 313;
},
{
glyphname = lacute;
lastChange = "2022-10-20 15:43:06 +0000";
layers = (
{
layerId = m01;
shapes = (
{
closed = 1;
nodes = (
(-27,0,l),
(144,0,l),
(274,740,l),
(103,740,l)
);
},
{
closed = 1;
nodes = (
(92,896,l),
(71,778,l),
(330,879,l),
(353,1012,l)
);
}
);
width = 295;
}
);
note = lacute;
unicode = 314;
},
